{
.appVersion = "1172";
DisplayStrings = (
"%¼½¾ÀÁÂÃÄÅÇÈÉÌÍÑÒÓÙÚÛÜÝàáâäçèéêëìíïòóôùúûý/Amacron/Abreve/abreve/Cacute/cacute/Ccircumflex/ccircumflex/Cdotaccent/cdotaccent/Ccaron/ccaron/Dcaron/emacron/Ebreve/ebreve/Edotaccent/edotaccent/Eogonek/Ecaron/ecaron/gcircumflex/Gbreve/gbreve/Gdotaccent/gdotaccent/Iogonek/Lcaron/Nacute/nacute/Ncaron/ncaron/napostrophe/Omacron/Obreve/obreve/Ohungarumlaut/ohungarumlaut/Racute/racute/Rcommaaccent/Rcaron/rcaron/Sacute/sacute/Scircumflex/scircumflex/uni015E/uni015F/Scaron/scaron/uni0162/uni0163/Tcaron/Utilde/Umacron/Ubreve/Uring/Uhungarumlaut/uhungarumlaut/Uogonek/uogonek/Wcircumflex/wcircumflex/Ycircumflex/ycircumflex/Ydieresis/Zacute/zacute/Zdotaccent/zdotaccent/Zcaron/zcaron/uni01C4/uni01C5/uni01C6/oogonek/Gacute/gacute/aringacute/Adblgrave/adblgrave/Ainvertedbreve/Edblgrave/edblgrave/einvertedbreve/Idblgrave/idblgrave/Odblgrave/odblgrave/Oinvertedbreve/Rdblgrave/rdblgrave/Rinvertedbreve/rinvertedbreve/Udblgrave/udblgrave/Uinvertedbreve/uni0218/Ddotbelow/ddotbelow/ndotaccent/Rdotbelow/Sdotbelow/Wgrave/wgrave/Wacute/wacute/Wdieresis/Zdotbelow/Edotbelow/edotbelow/Etilde/etilde/idotbelow/odotbelow/Udotbelow/Ygrave/ygrave/Ytilde/perthousand/onethird/twothirds/oneeighth/threeeighths/fiveeighths/seveneighths"
);
copyright = "Copyright (c) 2012, Impallari Type (www.impallari.com)";
customParameters = (
{
name = glyphOrder;
value = (
.notdef,
CR,
space,
exclam,
quotedbl,
numbersign,
dollar,
percent,
ampersand,
quotesingle,
parenleft,
parenright,
asterisk,
plus,
comma,
hyphen,
period,
slash,
zero,
one,
two,
three,
four,
five,
six,
seven,
eight,
nine,
colon,
semicolon,
less,
equal,
greater,
question,
at,
A,
B,
C,
D,
E,
F,
G,
H,
I,
J,
K,
L,
M,
N,
O,
P,
Q,
R,
S,
T,
U,
V,
W,
X,
Y,
Z,
bracketleft,
backslash,
bracketright,
asciicircum,
underscore,
grave,
a,
b,
c,
d,
e,
f,
g,
h,
i,
j,
k,
l,
m,
n,
o,
p,
q,
r,
s,
t,
u,
v,
w,
x,
y,
z,
braceleft,
bar,
braceright,
asciitilde,
uni00A0,
exclamdown,
cent,
sterling,
currency,
yen,
brokenbar,
section,

glyphs = (
{
glyphname = exclam;
lastChange = "2018-10-29 19:59:31 +0000";
layers = (
{
layerId = master01;
paths = (
{
closed = 1;
nodes = (
"286 616 OFFCURVE",
"297 838 OFFCURVE",
"312 1023 CURVE SMOOTH",
"330 1241 OFFCURVE",
"350 1406 OFFCURVE",
"350 1465 CURVE SMOOTH",
"350 1529 OFFCURVE",
"321 1566 OFFCURVE",
"264 1566 CURVE SMOOTH",
"211 1566 OFFCURVE",
"178 1527 OFFCURVE",
"178 1459 CURVE SMOOTH",
"178 1401 OFFCURVE",
"194 1234 OFFCURVE",
"216 1014 CURVE SMOOTH",
"235 832 OFFCURVE",
"240 614 OFFCURVE",
"253 374 CURVE",
"275 374 LINE"
);
},
{
closed = 1;
nodes = (
"158 24 OFFCURVE",
"200 -22 OFFCURVE",
"264 -22 CURVE SMOOTH",
"328 -22 OFFCURVE",
"370 24 OFFCURVE",
"370 84 CURVE SMOOTH",
"370 143 OFFCURVE",
"328 189 OFFCURVE",
"264 189 CURVE SMOOTH",
"200 189 OFFCURVE",
"158 143 OFFCURVE",
"158 84 CURVE SMOOTH"
);
}
);
width = 528;
}
);
unicode = 0021;
},
{
glyphname = quotedbl;
lastChange = "2018-10-29 19:59:31 +0000";
layers = (
{
layerId = master01;
paths = (
{
closed = 1;
nodes = (
"196 1122 LINE",
"196 1355 OFFCURVE",
"244 1430 OFFCURVE",
"244 1505 CURVE SMOOTH",
"244 1551 OFFCURVE",
"220 1571 OFFCURVE",
"185 1571 CURVE SMOOTH",
"150 1571 OFFCURVE",
"125 1551 OFFCURVE",
"125 1505 CURVE SMOOTH",
"125 1432 OFFCURVE",
"174 1355 OFFCURVE",
"174 1122 CURVE"
);
},
{
closed = 1;
nodes = (
"394 1122 LINE",
"394 1355 OFFCURVE",
"442 1430 OFFCURVE",
"442 1505 CURVE SMOOTH",
"442 1551 OFFCURVE",
"418 1571 OFFCURVE",
"383 1571 CURVE SMOOTH",
"348 1571 OFFCURVE",
"323 1551 OFFCURVE",
"323 1505 CURVE SMOOTH",
"323 1432 OFFCURVE",
"372 1355 OFFCURVE",
"372 1122 CURVE"
);
}
);
width = 568;
}
);
leftKerningGroup = quotesingle;
rightKerningGroup = quotesingle;
unicode = 0022;
},
{
glyphname = numbersign;
lastChange = "2018-10-29 19:59:31 +0000";
layers = (
{
layerId = master01;
paths = (
{
closed = 1;
nodes = (
"1214 977 LINE",
"1203 928 LINE",
"187 928 LINE",
"198 977 LINE"
);
},
{
closed = 1;
nodes = (
"1137 554 LINE",
"1124 506 LINE",
"108 506 LINE",
"119 554 LINE"
);
},
{
closed = 1;
nodes = (
"394 202 LINE",
"343 202 LINE",
"513 1283 LINE",
"563 1283 LINE"
);
},
{
closed = 1;
nodes = (
"816 202 LINE",
"766 202 LINE",
"935 1283 LINE",
"986 1283 LINE"
);
}
);
width = 1322;
}
);
unicode = 0023;
},
{
glyphname = dollar;
lastChange = "2018-10-29 19:59:31 +0000";
layers = (
{
layerId = master01;
paths = (
{
closed = 1;
nodes = (
"592 -222 LINE",
"543 -222 LINE",
"543 1760 LINE",
"592 1760 LINE"
);
},
{
closed = 1;
nodes = (
"752 -9 OFFCURVE",
"904 110 OFFCURVE",
"904 306 CURVE SMOOTH",
"904 510 OFFCURVE",
"737 585 OFFCURVE",
"499 693 CURVE SMOOTH",
"312 779 OFFCURVE",
"108 873 OFFCURVE",
"108 1129 CURVE SMOOTH",
"108 1379 OFFCURVE",
"306 1553 OFFCURVE",
"581 1553 CURVE SMOOTH",
"799 1553 OFFCURVE",
"999 1445 OFFCURVE",
"999 1331 CURVE SMOOTH",
"999 1285 OFFCURVE",
"966 1250 OFFCURVE",
"920 1250 CURVE SMOOTH",
"860 1250 OFFCURVE",
"840 1302 OFFCURVE",
"829 1335 CURVE SMOOTH",
"792 1439 OFFCURVE",
"746 1527 OFFCURVE",
"572 1527 CURVE SMOOTH",
"376 1527 OFFCURVE",
"251 1417 OFFCURVE",
"251 1232 CURVE SMOOTH",
"251 1032 OFFCURVE",
"398 961 OFFCURVE",
"649 843 CURVE SMOOTH",
"858 744 OFFCURVE",
"1041 653 OFFCURVE",
"1041 416 CURVE SMOOTH",
"1041 147 OFFCURVE",
"805 -35 OFFCURVE",
"537 -35 CURVE SMOOTH",
"312 -35 OFFCURVE",
"117 92 OFFCURVE",
"117 224 CURVE SMOOTH",
"117 277 OFFCURVE",
"147 312 OFFCURVE",
"196 312 CURVE SMOOTH",
"251 312 OFFCURVE",
"271 266 OFFCURVE",
"286 227 CURVE SMOOTH",
"339 92 OFFCURVE",
"354 -9 OFFCURVE",
"546 -9 CURVE SMOOTH"
);
}
);
width = 1135;
}
);
unicode = 0024;
},
{
glyphname = ampersand;
lastChange = "2018-10-29 19:59:31 +0000";
layers = (
{
layerId = master01;
paths = (
{
closed = 1;
nodes = (
"1731 224 LINE",
"1723 200 LINE SMOOTH",
"1668 48 OFFCURVE",
"1540 -44 OFFCURVE",
"1388 -44 CURVE SMOOTH",
"1274 -44 OFFCURVE",
"1188 7 OFFCURVE",
"1074 139 CURVE SMOOTH",
"484 823 LINE SMOOTH",
"348 979 OFFCURVE",
"301 1071 OFFCURVE",
"301 1184 CURVE SMOOTH",
"301 1399 OFFCURVE",
"471 1553 OFFCURVE",
"706 1553 CURVE SMOOTH",
"909 1553 OFFCURVE",
"1047 1439 OFFCURVE",
"1047 1272 CURVE SMOOTH",
"1047 1098 OFFCURVE",
"898 928 OFFCURVE",
"675 847 CURVE",
"667 862 LINE",
"821 946 OFFCURVE",
"900 1074 OFFCURVE",
"900 1243 CURVE SMOOTH",
"900 1417 OFFCURVE",
"814 1527 OFFCURVE",
"678 1527 CURVE SMOOTH",
"548 1527 OFFCURVE",
"455 1426 OFFCURVE",
"455 1278 CURVE SMOOTH",
"455 1157 OFFCURVE",
"519 1032 OFFCURVE",
"667 867 CURVE SMOOTH",
"1197 264 LINE SMOOTH",
"1316 130 OFFCURVE",
"1377 88 OFFCURVE",
"1474 88 CURVE SMOOTH",
"1560 88 OFFCURVE",
"1621 119 OFFCURVE",
"1701 205 CURVE SMOOTH",
"1723 229 LINE"
);
},
{
closed = 1;
nodes = (
"1164 224 OFFCURVE",
"869 -44 OFFCURVE",
"530 -44 CURVE SMOOTH",
"257 -44 OFFCURVE",
"101 90 OFFCURVE",
"101 323 CURVE SMOOTH",
"101 548 OFFCURVE",
"251 722 OFFCURVE",
"537 812 CURVE",
"550 803 LINE",
"394 722 OFFCURVE",
"299 563 OFFCURVE",
"299 378 CURVE SMOOTH",
"299 172 OFFCURVE",
"422 35 OFFCURVE",
"609 35 CURVE SMOOTH",
"889 35 OFFCURVE",
"1190 319 OFFCURVE",
"1344 728 CURVE SMOOTH",
"1351 746 OFFCURVE",
"1353 752 OFFCURVE",
"1353 766 CURVE SMOOTH",
"1353 799 OFFCURVE",
"1338 812 OFFCURVE",
"1287 816 CURVE SMOOTH",
"1109 827 LINE",
"1109 845 LINE",
"1665 845 LINE",
"1665 827 LINE",
"1498 816 LINE SMOOTH",
"1423 812 OFFCURVE",
"1408 799 OFFCURVE",
"1379 728 CURVE SMOOTH"
);
}
);
width = 1822;
}
);
unicode = 0026;
userData = {
com.typemytype.robofont.guides = (
{
angle = 0;
isGlobal = 0;
magnetic = 5;
x = 0;
y = -20;
}
);
};
},
{
glyphname = quotesingle;
lastChange = "2018-10-29 19:59:31 +0000";
layers = (
{
layerId = master01;
paths = (
{
closed = 1;
nodes = (
"196 1122 LINE",
"196 1355 OFFCURVE",
"244 1430 OFFCURVE",
"244 1505 CURVE SMOOTH",
"244 1551 OFFCURVE",
"220 1571 OFFCURVE",
"185 1571 CURVE SMOOTH",
"150 1571 OFFCURVE",
"125 1551 OFFCURVE",
"125 1505 CURVE SMOOTH",
"125 1432 OFFCURVE",
"174 1355 OFFCURVE",
"174 1122 CURVE"
);
}
);
width = 370;
}
);
leftKerningGroup = quotesingle;
rightKerningGroup = quotesingle;
unicode = 0027;
},
{
glyphname = parenleft;
lastChange = "2018-10-29 19:59:31 +0000";
layers = (
{
layerId = master01;
paths = (
{
closed = 1;
nodes = (
"262 180 OFFCURVE",
"372 -216 OFFCURVE",
"530 -385 CURVE",
"521 -392 LINE",
"332 -235 OFFCURVE",
"95 178 OFFCURVE",
"95 620 CURVE SMOOTH",
"95 1063 OFFCURVE",
"332 1476 OFFCURVE",
"521 1632 CURVE",
"530 1626 LINE",
"372 1456 OFFCURVE",
"262 1056 OFFCURVE",
"262 618 CURVE SMOOTH"
);
}
);
width = 587;
}
);
unicode = 0028;
},
{
glyphname = parenright;
lastChange = "2018-10-29 19:59:31 +0000";
layers = (
{
layerId = master01;
paths = (
{
closed = 1;
nodes = (
"326 1056 OFFCURVE",
"216 1456 OFFCURVE",
"57 1626 CURVE",
"66 1632 LINE",
"255 1476 OFFCURVE",
"493 1063 OFFCURVE",
"493 620 CURVE SMOOTH",
"493 178 OFFCURVE",
"255 -235 OFFCURVE",
"66 -392 CURVE",
"57 -385 LINE",
"216 -216 OFFCURVE",
"326 180 OFFCURVE",
"326 618 CURVE SMOOTH"
);
}
);
width = 587;
}
);
unicode = 0029;
},
{
glyphname = asterisk;
lastChange = "2018-10-29 19:59:31 +0000";
layers = (
{
layerId = master01;
paths = (
{
closed = 1;
nodes = (
"508 1551 OFFCURVE",
"484 1571 OFFCURVE",
"449 1571 CURVE SMOOTH",
"414 1571 OFFCURVE",
"389 1551 OFFCURVE",
"389 1507 CURVE SMOOTH",
"389 1452 OFFCURVE",
"436 1404 OFFCURVE",
"438 1243 CURVE",
"279 1351 OFFCURVE",
"260 1434 OFFCURVE",
"200 1434 CURVE SMOOTH",
"172 1434 OFFCURVE",
"143 1417 OFFCURVE",
"143 1379 CURVE SMOOTH",
"143 1313 OFFCURVE",
"238 1335 OFFCURVE",
"427 1225 CURVE",
"235 1118 OFFCURVE",
"143 1140 OFFCURVE",
"143 1071 CURVE SMOOTH",
"143 1034 OFFCURVE",
"172 1019 OFFCURVE",
"198 1019 CURVE SMOOTH",
"260 1019 OFFCURVE",
"279 1102 OFFCURVE",
"438 1208 CURVE",
"436 1049 OFFCURVE",
"389 999 OFFCURVE",
"389 946 CURVE SMOOTH",
"389 904 OFFCURVE",
"414 882 OFFCURVE",
"449 882 CURVE SMOOTH",
"484 882 OFFCURVE",
"508 906 OFFCURVE",
"508 946 CURVE SMOOTH",
"508 1001 OFFCURVE",
"462 1052 OFFCURVE",
"460 1208 CURVE",
"618 1102 OFFCURVE",
"638 1019 OFFCURVE",
"697 1019 CURVE SMOOTH",
"726 1019 OFFCURVE",
"755 1036 OFFCURVE",
"755 1074 CURVE SMOOTH",
"755 1140 OFFCURVE",
"660 1118 OFFCURVE",
"471 1225 CURVE",
"662 1335 OFFCURVE",
"755 1313 OFFCURVE",
"755 1379 CURVE SMOOTH",
"755 1419 OFFCURVE",
"724 1434 OFFCURVE",
"697 1434 CURVE SMOOTH",
"638 1434 OFFCURVE",
"618 1351 OFFCURVE",
"460 1243 CURVE",
"462 1401 OFFCURVE",
"508 1450 OFFCURVE",
"508 1507 CURVE SMOOTH"
);
}
);
width = 898;
}
);
unicode = 002A;
},
{
glyphname = plus;
lastChange = "2018-10-29 19:59:31 +0000";
layers = (
{
layerId = master01;
paths = (
{
closed = 1;
nodes = (
"873 781 LINE",
"873 733 LINE",
"125 733 LINE",
"125 781 LINE"
);
},
{
closed = 1;
nodes = (
"524 383 LINE",
"475 383 LINE",
"475 1131 LINE",
"524 1131 LINE"
);
}
);
width = 999;
}
);
unicode = 002B;
},
{
glyphname = comma;
lastChange = "2018-10-29 19:59:31 +0000";
layers = (
{
layerId = master01;
paths = (
{
closed = 1;
nodes = (
"304 -249 OFFCURVE",
"376 -112 OFFCURVE",
"376 44 CURVE SMOOTH",
"376 158 OFFCURVE",
"321 218 OFFCURVE",
"244 218 CURVE SMOOTH",
"185 218 OFFCURVE",
"141 172 OFFCURVE",
"141 106 CURVE SMOOTH",
"141 -2 OFFCURVE",
"271 11 OFFCURVE",
"271 -114 CURVE SMOOTH",
"271 -187 OFFCURVE",
"224 -282 OFFCURVE",
"161 -343 CURVE",
"169 -354 LINE"
);
}
);
width = 515;
}
);
leftKerningGroup = period;
rightKerningGroup = period;
unicode = 002C;
},
{
glyphname = hyphen;
lastChange = "2018-10-29 19:59:31 +0000";
layers = (
{
layerId = master01;
paths = (
{
closed = 1;
nodes = (
"642 524 LINE",
"627 475 LINE",
"143 475 LINE",
"158 524 LINE"
);
}
);
width = 783;
}
);
leftKerningGroup = hyphen;
rightKerningGroup = hyphen;
unicode = 002D;
},
{
glyphname = period;
lastChange = "2018-10-29 19:59:31 +0000";
layers = (
{
layerId = master01;
paths = (
{
closed = 1;
nodes = (
"141 42 OFFCURVE",
"187 -9 OFFCURVE",
"255 -9 CURVE SMOOTH",
"323 -9 OFFCURVE",
"367 42 OFFCURVE",
"367 106 CURVE SMOOTH",
"367 169 OFFCURVE",
"323 218 OFFCURVE",
"255 218 CURVE SMOOTH",
"187 218 OFFCURVE",
"141 169 OFFCURVE",
"141 106 CURVE SMOOTH"
);
}
);
width = 508;
}
);
leftKerningGroup = period;
rightKerningGroup = period;
unicode = 002E;
},
{
glyphname = slash;
lastChange = "2018-10-29 19:59:31 +0000";
layers = (
{
layerId = master01;
paths = (
{
closed = 1;
nodes = (
"152 0 LINE",
"101 0 LINE",
"563 1518 LINE",
"614 1518 LINE"
);
}
);
width = 715;
}
);
unicode = 002F;
},
{
glyphname = zero;
lastChange = "2018-10-29 19:59:31 +0000";
layers = (
{
layerId = master01;
paths = (
{
closed = 1;
nodes = (
"997 1553 OFFCURVE",
"1245 1201 OFFCURVE",
"1245 759 CURVE SMOOTH",
"1245 317 OFFCURVE",
"997 -35 OFFCURVE",
"684 -35 CURVE SMOOTH",
"372 -35 OFFCURVE",
"123 317 OFFCURVE",
"123 759 CURVE SMOOTH",
"123 1201 OFFCURVE",
"372 1553 OFFCURVE",
"684 1553 CURVE SMOOTH"
);
},
{
closed = 1;
nodes = (
"334 240 OFFCURVE",
"449 -9 OFFCURVE",
"684 -9 CURVE SMOOTH",
"920 -9 OFFCURVE",
"1034 240 OFFCURVE",
"1034 759 CURVE SMOOTH",
"1034 1278 OFFCURVE",
"920 1527 OFFCURVE",
"684 1527 CURVE SMOOTH",
"449 1527 OFFCURVE",
"334 1278 OFFCURVE",
"334 759 CURVE SMOOTH"
);
}
);
width = 1368;
}
);
unicode = 0030;
},
{
glyphname = one;
lastChange = "2018-10-29 19:59:31 +0000";
layers = (
{
layerId = master01;
paths = (
{
closed = 1;
nodes = (
"88 1320 LINE",
"88 1335 LINE",
"275 1360 OFFCURVE",
"389 1430 OFFCURVE",
"473 1571 CURVE",
"484 1566 LINE",
"484 37 LINE",
"686 20 LINE",
"686 0 LINE",
"90 0 LINE",
"90 20 LINE",
"315 37 LINE",
"315 1320 LINE"
);
}
);
width = 757;
}
);
unicode = 0031;
},
{
glyphname = two;
lastChange = "2018-10-29 19:59:31 +0000";
layers = (
{
layerId = master01;
paths = (
{
closed = 1;
nodes = (
"994 427 LINE",
"977 431 LINE",
"935 271 LINE SMOOTH",
"913 185 OFFCURVE",
"876 169 OFFCURVE",
"794 169 CURVE SMOOTH",
"286 169 LINE",
"550 436 LINE SMOOTH",
"849 739 OFFCURVE",
"966 924 OFFCURVE",
"966 1126 CURVE SMOOTH",
"966 1375 OFFCURVE",
"801 1553 OFFCURVE",
"570 1553 CURVE SMOOTH",
"376 1553 OFFCURVE",
"200 1428 OFFCURVE",
"123 1236 CURVE",
"143 1225 LINE",
"213 1357 OFFCURVE",
"332 1432 OFFCURVE",
"475 1432 CURVE SMOOTH",
"658 1432 OFFCURVE",
"759 1307 OFFCURVE",
"759 1078 CURVE SMOOTH",
"759 803 OFFCURVE",
"612 528 OFFCURVE",
"312 244 CURVE SMOOTH",
"77 20 LINE",
"84 0 LINE",
"944 0 LINE"
);
}
);
width = 1122;
}
);
unicode = 0032;
},
{
glyphname = three;
lastChange = "2018-10-29 19:59:31 +0000";
layers = (
{
layerId = master01;
paths = (
{
closed = 1;
nodes = (
"403 766 OFFCURVE",
"455 772 OFFCURVE",
"495 772 CURVE SMOOTH",
"689 772 OFFCURVE",
"825 605 OFFCURVE",
"825 365 CURVE SMOOTH",
"825 136 OFFCURVE",
"702 -4 OFFCURVE",
"502 -4 CURVE SMOOTH",
"411 -4 OFFCURVE",
"392 15 OFFCURVE",
"341 152 CURVE SMOOTH",
"290 288 OFFCURVE",
"257 328 OFFCURVE",
"196 328 CURVE SMOOTH",
"139 328 OFFCURVE",
"101 286 OFFCURVE",
"101 222 CURVE SMOOTH",
"101 84 OFFCURVE",
"284 -35 OFFCURVE",
"495 -35 CURVE SMOOTH",
"788 -35 OFFCURVE",
"1023 185 OFFCURVE",
"1023 460 CURVE SMOOTH",
"1023 693 OFFCURVE",
"849 876 OFFCURVE",
"614 882 CURVE",
"614 891 LINE",
"792 990 OFFCURVE",
"895 1133 OFFCURVE",
"895 1278 CURVE SMOOTH",
"895 1441 OFFCURVE",
"766 1555 OFFCURVE",
"583 1555 CURVE SMOOTH",
"387 1555 OFFCURVE",
"222 1423 OFFCURVE",
"150 1210 CURVE",
"169 1201 LINE",
"235 1349 OFFCURVE",
"348 1432 OFFCURVE",
"482 1432 CURVE SMOOTH",
"618 1432 OFFCURVE",
"702 1342 OFFCURVE",
"702 1197 CURVE SMOOTH",
"702 1021 OFFCURVE",
"574 862 OFFCURVE",
"356 774 CURVE",
"363 752 LINE"
);
}
);
width = 1135;
}
);
unicode = 0033;
},
{
glyphname = four;
lastChange = "2018-10-29 19:59:31 +0000";
layers = (
{
layerId = master01;
paths = (
{
closed = 1;
nodes = (
"436 20 LINE",
"436 0 LINE",
"1019 0 LINE",
"1019 20 LINE",
"829 37 LINE",
"829 429 LINE",
"1016 429 LINE",
"1016 543 LINE",
"829 543 LINE",
"829 1566 LINE",
"818 1571 LINE",
"44 442 LINE",
"51 429 LINE",
"660 429 LINE",
"660 37 LINE"
);
},
{
closed = 1;
nodes = (
"152 543 LINE",
"150 550 LINE",
"651 1272 LINE",
"660 1272 LINE",
"660 543 LINE"
);
}
);
width = 1120;
}
);
unicode = 0034;
},
{
glyphname = five;
lastChange = "2018-10-29 19:59:31 +0000";
layers = (
{
layerId = master01;
paths = (
{
closed = 1;
nodes = (
"889 1353 LINE",
"959 1586 LINE",
"944 1591 LINE",
"931 1564 OFFCURVE",
"917 1540 OFFCURVE",
"902 1518 CURVE",
"328 1518 LINE",
"222 770 LINE",
"231 768 LINE",
"299 821 OFFCURVE",
"367 845 OFFCURVE",
"449 845 CURVE SMOOTH",
"662 845 OFFCURVE",
"794 682 OFFCURVE",
"794 418 CURVE SMOOTH",
"794 165 OFFCURVE",
"675 -4 OFFCURVE",
"499 -4 CURVE SMOOTH",
"251 -4 OFFCURVE",
"354 328 OFFCURVE",
"178 328 CURVE SMOOTH",
"117 328 OFFCURVE",
"77 286 OFFCURVE",
"77 222 CURVE SMOOTH",
"77 86 OFFCURVE",
"262 -35 OFFCURVE",
"466 -35 CURVE SMOOTH",
"759 -35 OFFCURVE",
"986 207 OFFCURVE",
"986 517 CURVE SMOOTH",
"986 805 OFFCURVE",
"790 997 OFFCURVE",
"493 997 CURVE SMOOTH",
"429 997 OFFCURVE",
"376 988 OFFCURVE",
"284 964 CURVE",
"337 1353 LINE"
);
}
);
width = 1098;
}
);
unicode = 0035;
},
{
glyphname = six;
lastChange = "2018-10-29 19:59:31 +0000";
layers = (
{
layerId = master01;
paths = (
{
closed = 1;
nodes = (
"847 -35 OFFCURVE",
"1038 176 OFFCURVE",
"1038 477 CURVE SMOOTH",
"1038 750 OFFCURVE",
"880 931 OFFCURVE",
"638 931 CURVE SMOOTH",
"521 931 OFFCURVE",
"418 889 OFFCURVE",
"350 814 CURVE",
"381 1129 OFFCURVE",
"541 1360 OFFCURVE",
"860 1553 CURVE",
"851 1571 LINE",
"407 1393 OFFCURVE",
"119 1001 OFFCURVE",
"119 535 CURVE SMOOTH",
"119 187 OFFCURVE",
"295 -35 OFFCURVE",
"574 -35 CURVE SMOOTH"
);
},
{
closed = 1;
nodes = (
"427 -9 OFFCURVE",
"321 185 OFFCURVE",
"321 482 CURVE SMOOTH",
"321 574 OFFCURVE",
"332 693 OFFCURVE",
"345 774 CURVE",
"396 840 OFFCURVE",
"475 878 OFFCURVE",
"561 878 CURVE SMOOTH",
"735 878 OFFCURVE",
"834 719 OFFCURVE",
"834 438 CURVE SMOOTH",
"834 163 OFFCURVE",
"739 -9 OFFCURVE",
"587 -9 CURVE SMOOTH"
);
}
);
width = 1126;
}
);
unicode = 0036;
},
{
glyphname = seven;
lastChange = "2018-10-29 19:59:31 +0000";
layers = (
{
layerId = master01;
paths = (
{
closed = 1;
nodes = (
"200 1540 OFFCURVE",
"198 1562 OFFCURVE",
"198 1584 CURVE",
"187 1588 LINE",
"68 1210 LINE",
"84 1203 LINE",
"108 1263 OFFCURVE",
"125 1298 OFFCURVE",
"163 1353 CURVE",
"832 1353 LINE",
"227 112 LINE SMOOTH",
"216 92 OFFCURVE",
"211 68 OFFCURVE",
"211 48 CURVE SMOOTH",
"211 2 OFFCURVE",
"235 -35 OFFCURVE",
"290 -35 CURVE SMOOTH",
"332 -35 OFFCURVE",
"378 -7 OFFCURVE",
"396 51 CURVE SMOOTH",
"625 785 OFFCURVE",
"682 928 OFFCURVE",
"931 1507 CURVE",
"917 1518 LINE",
"202 1518 LINE"
);
}
);
width = 950;
}
);
unicode = 0037;
},
{
glyphname = eight;
lastChange = "2018-10-29 19:59:31 +0000";
layers = (
{
layerId = master01;
paths = (
{
closed = 1;
nodes = (
"854 955 OFFCURVE",
"959 1089 OFFCURVE",
"959 1239 CURVE SMOOTH",
"959 1421 OFFCURVE",
"803 1553 OFFCURVE",
"587 1553 CURVE SMOOTH",
"350 1553 OFFCURVE",
"174 1390 OFFCURVE",
"174 1173 CURVE SMOOTH",
"174 1012 OFFCURVE",
"266 887 OFFCURVE",
"464 781 CURVE",
"244 686 OFFCURVE",
"123 539 OFFCURVE",
"123 365 CURVE SMOOTH",
"123 143 OFFCURVE",
"319 -35 OFFCURVE",
"565 -35 CURVE SMOOTH",
"829 -35 OFFCURVE",
"1038 165 OFFCURVE",
"1038 418 CURVE SMOOTH",
"1038 598 OFFCURVE",
"928 741 OFFCURVE",
"682 880 CURVE"
);
},
{
closed = 1;
nodes = (
"440 990 OFFCURVE",
"341 1104 OFFCURVE",
"341 1267 CURVE SMOOTH",
"341 1423 OFFCURVE",
"433 1527 OFFCURVE",
"574 1527 CURVE SMOOTH",
"722 1527 OFFCURVE",
"814 1415 OFFCURVE",
"814 1232 CURVE SMOOTH",
"814 1089 OFFCURVE",
"759 966 OFFCURVE",
"662 891 CURVE"
);
},
{
closed = 1;
nodes = (
"759 631 OFFCURVE",
"876 495 OFFCURVE",
"876 308 CURVE SMOOTH",
"876 121 OFFCURVE",
"757 -9 OFFCURVE",
"581 -9 CURVE SMOOTH",
"398 -9 OFFCURVE",
"290 134 OFFCURVE",
"290 374 CURVE SMOOTH",
"290 563 OFFCURVE",
"359 697 OFFCURVE",
"488 766 CURVE"
);
}
);
width = 1155;
}
);
unicode = 0038;
},
{
glyphname = nine;
lastChange = "2018-10-29 19:59:31 +0000";
layers = (
{
layerId = master01;
paths = (
{
closed = 1;
nodes = (
"279 1571 OFFCURVE",
"86 1364 OFFCURVE",
"86 1074 CURVE SMOOTH",
"86 805 OFFCURVE",
"246 627 OFFCURVE",
"488 627 CURVE SMOOTH",
"605 627 OFFCURVE",
"708 669 OFFCURVE",
"774 744 CURVE",
"735 420 OFFCURVE",
"570 174 OFFCURVE",
"264 -18 CURVE",
"273 -35 LINE",
"724 145 OFFCURVE",
"1005 543 OFFCURVE",
"1005 997 CURVE SMOOTH",
"1005 1353 OFFCURVE",
"834 1571 OFFCURVE",
"554 1571 CURVE SMOOTH"
);
},
{
closed = 1;
nodes = (
"713 1544 OFFCURVE",
"803 1375 OFFCURVE",
"803 1069 CURVE SMOOTH",
"803 975 OFFCURVE",
"794 869 OFFCURVE",
"779 783 CURVE",
"726 717 OFFCURVE",
"649 680 OFFCURVE",
"563 680 CURVE SMOOTH",
"389 680 OFFCURVE",
"290 838 OFFCURVE",
"290 1113 CURVE SMOOTH",
"290 1382 OFFCURVE",
"387 1544 OFFCURVE",
"550 1544 CURVE SMOOTH"
);
}
);
width = 1124;
}
);
unicode = 0039;
},
{
glyphname = colon;
lastChange = "2018-10-29 19:59:31 +0000";
layers = (
{
layerId = master01;
paths = (
{
closed = 1;
nodes = (
"143 42 OFFCURVE",
"189 -9 OFFCURVE",
"257 -9 CURVE SMOOTH",
"326 -9 OFFCURVE",
"370 42 OFFCURVE",
"370 106 CURVE SMOOTH",
"370 169 OFFCURVE",
"326 218 OFFCURVE",
"257 218 CURVE SMOOTH",
"189 218 OFFCURVE",
"143 169 OFFCURVE",
"143 106 CURVE SMOOTH"
);
},
{
closed = 1;
nodes = (
"143 724 OFFCURVE",
"189 673 OFFCURVE",
"257 673 CURVE SMOOTH",
"326 673 OFFCURVE",
"370 724 OFFCURVE",
"370 788 CURVE SMOOTH",
"370 851 OFFCURVE",
"326 900 OFFCURVE",
"257 900 CURVE SMOOTH",
"189 900 OFFCURVE",
"143 851 OFFCURVE",
"143 788 CURVE SMOOTH"
);
}
);
width = 513;
}
);
leftKerningGroup = colon;
rightKerningGroup = colon;
unicode = 003A;
},
{
glyphname = semicolon;
lastChange = "2018-10-29 19:59:31 +0000";
layers = (
{
layerId = master01;
paths = (
{
closed = 1;
nodes = (
"147 724 OFFCURVE",
"194 673 OFFCURVE",
"262 673 CURVE SMOOTH",
"330 673 OFFCURVE",
"374 724 OFFCURVE",
"374 788 CURVE SMOOTH",
"374 851 OFFCURVE",
"330 900 OFFCURVE",
"262 900 CURVE SMOOTH",
"194 900 OFFCURVE",
"147 851 OFFCURVE",
"147 788 CURVE SMOOTH"
);
},
{
closed = 1;
nodes = (
"319 -249 OFFCURVE",
"392 -112 OFFCURVE",
"392 44 CURVE SMOOTH",
"392 158 OFFCURVE",
"337 218 OFFCURVE",
"260 218 CURVE SMOOTH",
"200 218 OFFCURVE",
"156 172 OFFCURVE",
"156 106 CURVE SMOOTH",
"156 -2 OFFCURVE",
"286 11 OFFCURVE",
"286 -114 CURVE SMOOTH",
"286 -187 OFFCURVE",
"240 -282 OFFCURVE",
"176 -343 CURVE",
"185 -354 LINE"
);
}
);
width = 541;
}
);
leftKerningGroup = colon;
rightKerningGroup = colon;
unicode = 003B;
},
{
glyphname = less;
lastChange = "2018-10-29 19:59:31 +0000";
layers = (
{
layerId = master01;
paths = (
{
closed = 1;
nodes = (
"713 1109 LINE",
"733 1074 LINE",
"145 761 LINE",
"735 453 LINE",
"715 409 LINE",
"114 724 LINE",
"114 796 LINE"
);
}
);
width = 931;
}
);
unicode = 003C;
},
{
glyphname = equal;
lastChange = "2018-10-29 19:59:31 +0000";
layers = (
{
layerId = master01;
paths = (
{
closed = 1;
nodes = (
"902 550 LINE",
"887 502 LINE",
"161 502 LINE",
"176 550 LINE"
);
},
{
closed = 1;
nodes = (
"902 957 LINE",
"887 909 LINE",
"161 909 LINE",
"176 957 LINE"
);
}
);
width = 1058;
}
);
unicode = 003D;
},
{
glyphname = greater;
lastChange = "2018-10-29 19:59:31 +0000";
layers = (
{
layerId = master01;
paths = (
{
closed = 1;
nodes = (
"216 409 LINE",
"196 453 LINE",
"785 761 LINE",
"198 1074 LINE",
"218 1109 LINE",
"816 796 LINE",
"816 724 LINE"
);
}
);
width = 931;
}
);
unicode = 003E;
},
{
glyphname = question;
lastChange = "2018-10-29 19:59:31 +0000";
layers = (
{
layerId = master01;
paths = (
{
closed = 1;
nodes = (
"218 884 LINE",
"277 884 LINE SMOOTH",
"546 884 OFFCURVE",
"664 939 OFFCURVE",
"664 1067 CURVE SMOOTH",
"664 1322 OFFCURVE",
"161 1318 OFFCURVE",
"161 1489 CURVE SMOOTH",
"161 1542 OFFCURVE",
"189 1566 OFFCURVE",
"257 1566 CURVE SMOOTH",
"471 1566 OFFCURVE",
"695 1300 OFFCURVE",
"695 1047 CURVE SMOOTH",
"695 845 OFFCURVE",
"559 719 OFFCURVE",
"332 711 CURVE SMOOTH",
"275 708 LINE",
"257 374 LINE",
"235 374 LINE"
);
},
{
closed = 1;
nodes = (
"132 22 OFFCURVE",
"176 -22 OFFCURVE",
"238 -22 CURVE SMOOTH",
"299 -22 OFFCURVE",
"343 22 OFFCURVE",
"343 84 CURVE SMOOTH",
"343 145 OFFCURVE",
"299 189 OFFCURVE",
"238 189 CURVE SMOOTH",
"176 189 OFFCURVE",
"132 145 OFFCURVE",
"132 84 CURVE SMOOTH"
);
}
);
width = 799;
}
);
unicode = 003F;
},
{
glyphname = at;
lastChange = "2018-10-29 19:59:31 +0000";
layers = (
{
layerId = master01;
paths = (
{
closed = 1;
nodes = (
"1100 -345 OFFCURVE",
"966 -381 OFFCURVE",
"814 -381 CURVE SMOOTH",
"381 -381 OFFCURVE",
"95 -123 OFFCURVE",
"95 268 CURVE SMOOTH",
"95 719 OFFCURVE",
"460 1074 OFFCURVE",
"924 1074 CURVE SMOOTH",
"1285 1074 OFFCURVE",
"1544 840 OFFCURVE",
"1544 513 CURVE SMOOTH",
"1544 229 OFFCURVE",
"1351 -13 OFFCURVE",
"1122 -13 CURVE SMOOTH",
"1010 -13 OFFCURVE",
"944 44 OFFCURVE",
"944 143 CURVE SMOOTH",
"944 161 OFFCURVE",
"946 174 OFFCURVE",
"953 183 CURVE",
"946 185 LINE",
"867 70 OFFCURVE",
"774 11 OFFCURVE",
"669 11 CURVE SMOOTH",
"537 11 OFFCURVE",
"455 97 OFFCURVE",
"455 235 CURVE SMOOTH",
"455 486 OFFCURVE",
"715 779 OFFCURVE",
"935 779 CURVE SMOOTH",
"1003 779 OFFCURVE",
"1047 752 OFFCURVE",
"1074 691 CURVE",
"1082 691 LINE",
"1109 779 LINE",
"1276 779 LINE",
"1104 198 LINE SMOOTH",
"1093 167 OFFCURVE",
"1091 150 OFFCURVE",
"1091 125 CURVE SMOOTH",
"1091 59 OFFCURVE",
"1113 35 OFFCURVE",
"1168 35 CURVE SMOOTH",
"1346 35 OFFCURVE",
"1511 262 OFFCURVE",
"1511 510 CURVE SMOOTH",
"1511 821 OFFCURVE",
"1265 1041 OFFCURVE",
"922 1041 CURVE SMOOTH",
"532 1041 OFFCURVE",
"235 713 OFFCURVE",
"235 284 CURVE SMOOTH",
"235 -101 OFFCURVE",
"477 -345 OFFCURVE",
"858 -345 CURVE SMOOTH",
"992 -345 OFFCURVE",
"1085 -319 OFFCURVE",
"1201 -251 CURVE",
"1212 -279 LINE"
);
},
{
closed = 1;
nodes = (
"873 42 OFFCURVE",
"1047 339 OFFCURVE",
"1047 605 CURVE SMOOTH",
"1047 708 OFFCURVE",
"1021 752 OFFCURVE",
"959 752 CURVE SMOOTH",
"801 752 OFFCURVE",
"616 460 OFFCURVE",
"616 207 CURVE SMOOTH",
"616 99 OFFCURVE",
"651 42 OFFCURVE",
"715 42 CURVE SMOOTH"
);
}
);
width = 1654;
}
);
unicode = 0040;
},
{
glyphname = A;
lastChange = "2018-10-29 19:59:31 +0000";
layers = (
{
anchors = (
{
name = bottom;
position = "{1230, 0}";
},
{
name = top;
position = "{702, 1760}";
}
);
layerId = master01;
paths = (
{
closed = 1;
nodes = (
"392 0 LINE",
"-77 0 LINE",
"-77 18 LINE",
"46 29 LINE SMOOTH",
"119 35 OFFCURVE",
"141 51 OFFCURVE",
"165 117 CURVE SMOOTH",
"704 1553 LINE",
"744 1553 LINE",
"1298 40 LINE",
"1481 18 LINE",
"1481 0 LINE",
"942 0 LINE",
"942 18 LINE",
"1122 40 LINE",
"656 1309 LINE",
"647 1309 LINE",
"200 117 LINE SMOOTH",
"194 99 OFFCURVE",
"191 88 OFFCURVE",
"191 77 CURVE SMOOTH",
"191 44 OFFCURVE",
"209 33 OFFCURVE",
"257 29 CURVE SMOOTH",
"392 18 LINE"
);
},
{
closed = 1;
nodes = (
"957 638 LINE",
"957 603 LINE",
"370 603 LINE",
"370 638 LINE"
);
}
);
width = 1448;
}
);
leftKerningGroup = A;
rightKerningGroup = A;
unicode = 0041;
},
{
glyphname = B;
lastChange = "2018-10-29 19:59:31 +0000";
layers = (
{
layerId = master01;
paths = (
{
closed = 1;
nodes = (
"330 26 LINE",
"684 26 LINE SMOOTH",
"920 26 OFFCURVE",
"1025 161 OFFCURVE",
"1025 409 CURVE SMOOTH",
"1025 682 OFFCURVE",
"902 790 OFFCURVE",
"684 790 CURVE SMOOTH",
"330 790 LINE",
"330 816 LINE",
"693 816 LINE SMOOTH",
"895 816 OFFCURVE",
"970 939 OFFCURVE",
"970 1157 CURVE SMOOTH",
"970 1377 OFFCURVE",
"862 1492 OFFCURVE",
"629 1492 CURVE SMOOTH",
"363 1492 LINE",
"363 1518 LINE",
"636 1518 LINE SMOOTH",
"981 1518 OFFCURVE",
"1168 1390 OFFCURVE",
"1168 1157 CURVE SMOOTH",
"1168 972 OFFCURVE",
"1052 840 OFFCURVE",
"840 810 CURVE",
"840 801 LINE",
"1096 766 OFFCURVE",
"1234 631 OFFCURVE",
"1234 416 CURVE SMOOTH",
"1234 205 OFFCURVE",
"1100 0 OFFCURVE",
"737 0 CURVE SMOOTH",
"330 0 LINE"
);
},
{
closed = 1;
nodes = (
"88 1518 LINE",
"438 1518 LINE",
"438 0 LINE",
"88 0 LINE",
"88 18 LINE",
"268 35 LINE",
"268 1483 LINE",
"88 1500 LINE"
);
}
);
width = 1353;
}
);
leftKerningGroup = I;
unicode = 0042;
userData = {
com.typemytype.robofont.guides = (
{
angle = 90;
isGlobal = 0;
magnetic = 5;
x = 175;
y = 0;
},
{
angle = 90;
isGlobal = 0;
magnetic = 5;
x = 287;
y = 0;
}
);
};
},
{
glyphname = C;
lastChange = "2018-10-29 19:59:31 +0000";
layers = (
{
anchors = (
{
name = bottom;
position = "{825, 0}";
},
{
name = top;
position = "{803, 1760}";
}
);
layerId = master01;
paths = (
{
closed = 1;
nodes = (
"1245 249 OFFCURVE",
"1291 387 OFFCURVE",
"1320 510 CURVE",
"1349 506 LINE",
"1349 0 LINE",
"1320 0 LINE",
"1245 121 LINE",
"1115 26 OFFCURVE",
"953 -35 OFFCURVE",
"807 -35 CURVE SMOOTH",
"418 -35 OFFCURVE",
"114 312 OFFCURVE",
"114 759 CURVE SMOOTH",
"114 1203 OFFCURVE",
"418 1553 OFFCURVE",
"803 1553 CURVE SMOOTH",
"935 1553 OFFCURVE",
"1067 1514 OFFCURVE",
"1239 1421 CURVE",
"1291 1527 LINE",
"1320 1527 LINE",
"1342 1032 LINE",
"1311 1023 LINE",
"1291 1133 OFFCURVE",
"1258 1230 OFFCURVE",
"1214 1302 CURVE SMOOTH",
"1126 1448 OFFCURVE",
"979 1527 OFFCURVE",
"810 1527 CURVE SMOOTH",
"497 1527 OFFCURVE",
"326 1247 OFFCURVE",
"326 759 CURVE SMOOTH",
"326 273 OFFCURVE",
"499 -4 OFFCURVE",
"807 -4 CURVE SMOOTH",
"942 -4 OFFCURVE",
"1074 59 OFFCURVE",
"1157 150 CURVE SMOOTH"
);
}
);
width = 1487;
}
);
leftKerningGroup = O;
rightKerningGroup = C;
unicode = 0043;
},
{
glyphname = D;
lastChange = "2018-10-29 19:59:31 +0000";
layers = (
{
anchors = (
{
name = bottom;
position = "{700, 0}";
},
{
name = top;
position = "{700, 1760}";
}
);
layerId = master01;
paths = (
{
closed = 1;
nodes = (
"88 1518 LINE",
"438 1518 LINE",
"438 0 LINE",
"88 0 LINE",
"88 18 LINE",
"268 35 LINE",
"268 1483 LINE",
"88 1500 LINE"
);
},
{
closed = 1;
nodes = (
"673 1518 LINE SMOOTH",
"876 1518 OFFCURVE",
"1027 1481 OFFCURVE",
"1142 1401 CURVE SMOOTH",
"1322 1276 OFFCURVE",
"1426 1045 OFFCURVE",
"1426 768 CURVE SMOOTH",
"1426 488 OFFCURVE",
"1320 249 OFFCURVE",
"1142 119 CURVE SMOOTH",
"1027 35 OFFCURVE",
"887 0 OFFCURVE",
"673 0 CURVE SMOOTH",
"326 0 LINE",
"326 26 LINE",
"653 26 LINE SMOOTH",
"889 26 OFFCURVE",
"986 59 OFFCURVE",
"1063 156 CURVE SMOOTH",
"1157 277 OFFCURVE",
"1214 510 OFFCURVE",
"1214 779 CURVE SMOOTH",
"1214 1038 OFFCURVE",
"1162 1245 OFFCURVE",
"1063 1362 CURVE SMOOTH",
"981 1456 OFFCURVE",
"878 1492 OFFCURVE",
"653 1492 CURVE SMOOTH",
"326 1492 LINE",
"326 1518 LINE"
);
}
);
width = 1549;
}
);
leftKerningGroup = I;
rightKerningGroup = D;
unicode = 0044;
},
{
glyphname = E;
lastChange = "2018-10-29 19:59:31 +0000";
layers = (
{
anchors = (
{
name = bottom;
position = "{689, 0}";
},
{
name = top;
position = "{691, 1760}";
}
);
layerId = master01;
paths = (
{
closed = 1;
nodes = (
"438 26 LINE",
"931 26 LINE SMOOTH",
"1001 26 OFFCURVE",
"1025 42 OFFCURVE",
"1052 108 CURVE SMOOTH",
"1197 464 LINE",
"1221 462 LINE",
"1166 0 LINE",
"88 0 LINE",
"88 18 LINE",
"268 35 LINE",
"268 1483 LINE",
"88 1500 LINE",
"88 1518 LINE",
"1168 1518 LINE",
"1199 1104 LINE",
"1177 1102 LINE",
"1054 1410 LINE SMOOTH",
"1027 1476 OFFCURVE",
"1005 1492 OFFCURVE",
"935 1492 CURVE SMOOTH",
"438 1492 LINE"
);
},
{
closed = 1;
nodes = (
"834 816 OFFCURVE",
"856 834 OFFCURVE",
"869 902 CURVE SMOOTH",
"906 1080 LINE",
"933 1080 LINE",
"933 517 LINE",
"906 517 LINE",
"869 695 LINE SMOOTH",
"856 763 OFFCURVE",
"834 781 OFFCURVE",
"763 781 CURVE SMOOTH",
"418 781 LINE",
"418 816 LINE",
"763 816 LINE SMOOTH"
);
}
);
width = 1351;
}
);
leftKerningGroup = I;
rightKerningGroup = E;
unicode = 0045;
},
{
glyphname = F;
lastChange = "2018-10-29 19:59:31 +0000";
layers = (
{
layerId = master01;
paths = (
{
closed = 1;
nodes = (
"438 35 LINE",
"653 18 LINE",
"653 0 LINE",
"88 0 LINE",
"88 18 LINE",
"268 35 LINE",
"268 1483 LINE",
"88 1500 LINE",
"88 1518 LINE",
"1118 1518 LINE",
"1153 1080 LINE",
"1135 1078 LINE",
"1003 1410 LINE SMOOTH",
"977 1476 OFFCURVE",
"955 1492 OFFCURVE",
"884 1492 CURVE SMOOTH",
"438 1492 LINE"
);
},
{
closed = 1;
nodes = (
"827 816 OFFCURVE",
"849 834 OFFCURVE",
"862 902 CURVE SMOOTH",
"900 1080 LINE",
"926 1080 LINE",
"926 517 LINE",
"900 517 LINE",
"862 695 LINE SMOOTH",
"849 763 OFFCURVE",
"827 781 OFFCURVE",
"757 781 CURVE SMOOTH",
"411 781 LINE",
"411 816 LINE",
"757 816 LINE SMOOTH"
);
}
);
width = 1219;
}
);
leftKerningGroup = I;
unicode = 0046;
userData = {
com.typemytype.robofont.guides = (
{
angle = 90;
isGlobal = 0;
magnetic = 5;
x = 98;
y = 0;
},
{
angle = 90;
isGlobal = 0;
magnetic = 5;
x = 175;
y = 0;
}
);
};
},
{
glyphname = G;
lastChange = "2018-10-29 19:59:31 +0000";
layers = (
{
anchors = (
{
name = top;
position = "{818, 1760}";
}
);
layerId = master01;
paths = (
{
closed = 1;
nodes = (
"1003 759 LINE",
"1511 759 LINE",
"1511 741 LINE",
"1331 724 LINE",
"1331 150 LINE",
"1173 2 OFFCURVE",
"917 -35 OFFCURVE",
"807 -35 CURVE SMOOTH",
"418 -35 OFFCURVE",
"114 312 OFFCURVE",
"114 759 CURVE SMOOTH",
"114 1203 OFFCURVE",
"418 1553 OFFCURVE",
"803 1553 CURVE SMOOTH",
"931 1553 OFFCURVE",
"1063 1514 OFFCURVE",
"1230 1421 CURVE",
"1283 1527 LINE",
"1311 1527 LINE",
"1333 1032 LINE",
"1302 1023 LINE",
"1283 1133 OFFCURVE",
"1250 1230 OFFCURVE",
"1206 1302 CURVE SMOOTH",
"1118 1448 OFFCURVE",
"975 1527 OFFCURVE",
"810 1527 CURVE SMOOTH",
"497 1527 OFFCURVE",
"326 1247 OFFCURVE",
"326 759 CURVE SMOOTH",
"326 268 OFFCURVE",
"499 -9 OFFCURVE",
"807 -9 CURVE SMOOTH",
"957 -9 OFFCURVE",
"1091 66 OFFCURVE",
"1162 169 CURVE",
"1162 724 LINE",
"1003 741 LINE"
);
}
);
width = 1547;
}
);
leftKerningGroup = O;
rightKerningGroup = G;
unicode = 0047;
},
{
glyphname = H;
lastChange = "2018-10-29 19:59:31 +0000";
layers = (
{
anchors = (
{
name = bottom;
position = "{810, 0}";
},
{
name = top;
position = "{810, 1760}";
}
);
layerId = master01;
paths = (
{
closed = 1;
nodes = (
"979 1518 LINE",
"1520 1518 LINE",
"1520 1500 LINE",
"1340 1483 LINE",
"1340 35 LINE",
"1520 18 LINE",
"1520 0 LINE",
"979 0 LINE",
"979 18 LINE",
"1170 35 LINE",
"1170 1483 LINE",
"979 1500 LINE"
);
},
{
closed = 1;
nodes = (
"88 1518 LINE",
"629 1518 LINE",
"629 1500 LINE",
"438 1483 LINE",
"438 35 LINE",
"629 18 LINE",
"629 0 LINE",
"88 0 LINE",
"88 18 LINE",
"268 35 LINE",
"268 1483 LINE",
"88 1500 LINE"
);
},
{
closed = 1;
nodes = (
"1252 816 LINE",
"1252 781 LINE",
"356 781 LINE",
"356 816 LINE"
);
}
);
width = 1608;
}
);
leftKerningGroup = I;
rightKerningGroup = I;
unicode = 0048;
},
{
glyphname = I;
lastChange = "2018-10-29 19:59:31 +0000";
layers = (
{
anchors = (
{
name = bottom;
position = "{354, 0}";
},
{
name = top;
position = "{354, 1760}";
}
);
layerId = master01;
paths = (
{
closed = 1;
nodes = (
"268 35 LINE",
"88 18 LINE",
"88 0 LINE",
"618 0 LINE",
"618 18 LINE",
"438 35 LINE",
"438 1483 LINE",
"618 1500 LINE",
"618 1518 LINE",
"88 1518 LINE",
"88 1500 LINE",
"268 1483 LINE"
);
}
);
width = 706;
}
);
leftKerningGroup = I;
rightKerningGroup = I;
unicode = 0049;
userData = {
com.typemytype.robofont.guides = (
{
angle = 0;
isGlobal = 0;
magnetic = 5;
x = 0;
y = 8;
},
{
angle = 0;
isGlobal = 0;
magnetic = 5;
x = 0;
y = 16;
}
);
};
},
{
glyphname = J;
lastChange = "2018-10-29 19:59:31 +0000";
layers = (
{
anchors = (
{
name = top;
position = "{381, 1760}";
}
);
layerId = master01;
paths = (
{
closed = 1;
nodes = (
"114 1500 LINE",
"114 1518 LINE",
"645 1518 LINE",
"645 1500 LINE",
"464 1483 LINE",
"464 125 LINE SMOOTH",
"464 -66 OFFCURVE",
"444 -163 OFFCURVE",
"392 -240 CURVE SMOOTH",
"332 -323 OFFCURVE",
"231 -376 OFFCURVE",
"121 -376 CURVE SMOOTH",
"-15 -376 OFFCURVE",
"-119 -304 OFFCURVE",
"-119 -207 CURVE SMOOTH",
"-119 -147 OFFCURVE",
"-84 -110 OFFCURVE",
"-26 -110 CURVE SMOOTH",
"31 -110 OFFCURVE",
"66 -147 OFFCURVE",
"66 -209 CURVE SMOOTH",
"66 -224 OFFCURVE",
"64 -257 OFFCURVE",
"64 -273 CURVE SMOOTH",
"64 -323 OFFCURVE",
"90 -350 OFFCURVE",
"139 -350 CURVE SMOOTH",
"233 -350 OFFCURVE",
"295 -229 OFFCURVE",
"295 -44 CURVE SMOOTH",
"295 1483 LINE"
);
}
);
width = 726;
}
);
leftKerningGroup = J;
rightKerningGroup = J;
unicode = 004A;
userData = {
com.typemytype.robofont.guides = (
{
angle = 0;
isGlobal = 0;
magnetic = 5;
x = 0;
y = -173;
}
);
};
},
{
glyphname = K;
lastChange = "2018-10-29 19:59:31 +0000";
layers = (
{
anchors = (
{
name = bottom;
position = "{737, 0}";
}
);
layerId = master01;
paths = (
{
closed = 1;
nodes = (
"1313 88 LINE SMOOTH",
"1362 33 OFFCURVE",
"1395 18 OFFCURVE",
"1476 18 CURVE SMOOTH",
"1485 18 LINE",
"1485 0 LINE",
"1157 0 LINE",
"554 794 LINE",
"669 931 LINE"
);
},
{
closed = 1;
nodes = (
"88 1518 LINE",
"629 1518 LINE",
"629 1500 LINE",
"438 1483 LINE",
"438 35 LINE",
"629 18 LINE",
"629 0 LINE",
"88 0 LINE",
"88 18 LINE",
"268 35 LINE",
"268 1483 LINE",
"88 1500 LINE"
);
},
{
closed = 1;
nodes = (
"900 1518 LINE",
"1349 1518 LINE",
"1349 1500 LINE",
"1177 1472 OFFCURVE",
"1146 1456 OFFCURVE",
"1080 1382 CURVE SMOOTH",
"378 579 LINE",
"378 618 LINE",
"1036 1377 LINE SMOOTH",
"1058 1404 OFFCURVE",
"1071 1428 OFFCURVE",
"1071 1445 CURVE SMOOTH",
"1071 1474 OFFCURVE",
"1038 1485 OFFCURVE",
"900 1500 CURVE"
);
}
);
width = 1443;
}
);
leftKerningGroup = I;
rightKerningGroup = K;
unicode = 004B;
},
{
glyphname = L;
lastChange = "2018-10-29 19:59:31 +0000";
layers = (
{
anchors = (
{
name = bottom;
position = "{660, 0}";
}
);
layerId = master01;
paths = (
{
closed = 1;
nodes = (
"88 1518 LINE",
"629 1518 LINE",
"629 1500 LINE",
"438 1483 LINE",
"438 26 LINE",
"924 26 LINE SMOOTH",
"994 26 OFFCURVE",
"1019 42 OFFCURVE",
"1045 108 CURVE SMOOTH",
"1195 484 LINE",
"1221 480 LINE",
"1166 0 LINE",
"88 0 LINE",
"88 18 LINE",
"268 35 LINE",
"268 1483 LINE",
"88 1500 LINE"
);
}
);
width = 1283;
}
);
leftKerningGroup = I;
rightKerningGroup = L;
unicode = 004C;
userData = {
com.typemytype.robofont.guides = (
{
angle = 90;
isGlobal = 0;
magnetic = 5;
x = 16;
y = 0;
},
{
angle = 90;
isGlobal = 0;
magnetic = 5;
x = 262;
y = 0;
}
);
};
},
{
glyphname = M;
lastChange = "2018-10-29 19:59:31 +0000";
layers = (
{
layerId = master01;
paths = (
{
closed = 1;
nodes = (
"75 1518 LINE",
"451 1518 LINE",
"992 227 LINE",
"1001 227 LINE",
"1485 1518 LINE",
"1533 1518 LINE",
"1478 1375 LINE",
"1470 1375 LINE",
"939 -35 LINE",
"917 -35 LINE",
"326 1377 LINE",
"317 1377 LINE",
"299 1395 LINE",
"299 1419 LINE",
"271 1485 OFFCURVE",
"246 1500 OFFCURVE",
"176 1500 CURVE SMOOTH",
"75 1500 LINE"
);
},
{
closed = 1;
nodes = (
"317 134 LINE SMOOTH",
"317 64 OFFCURVE",
"330 42 OFFCURVE",
"383 35 CURVE SMOOTH",
"539 18 LINE",
"539 0 LINE",
"57 0 LINE",
"57 18 LINE",
"216 35 LINE SMOOTH",
"268 42 OFFCURVE",
"282 64 OFFCURVE",
"282 134 CURVE SMOOTH",
"282 1492 LINE",
"317 1492 LINE"
);
},
{
closed = 1;
nodes = (
"1839 1500 LINE",
"1648 1483 LINE",
"1648 35 LINE",
"1839 18 LINE",
"1839 0 LINE",
"1298 0 LINE",
"1298 18 LINE",
"1478 35 LINE",
"1478 1434 LINE",
"1494 1518 LINE",
"1839 1518 LINE"
);
}
);
width = 1916;
}
);
leftKerningGroup = I;
rightKerningGroup = I;
unicode = 004D;
userData = {
com.typemytype.robofont.guides = (
{
angle = 0;
isGlobal = 0;
magnetic = 5;
x = 0;
y = 682;
},
{
angle = 90;
isGlobal = 0;
magnetic = 5;
x = 638;
y = 0;
}
);
};
},
{
glyphname = N;
lastChange = "2018-10-29 19:59:31 +0000";
layers = (
{
anchors = (
{
name = bottom;
position = "{827, 0}";
},
{
name = top;
position = "{827, 1760}";
}
);
layerId = master01;
paths = (
{
closed = 1;
nodes = (
"95 1518 LINE",
"422 1518 LINE",
"1289 304 LINE",
"1333 304 LINE",
"1333 -35 LINE",
"1311 -35 LINE",
"323 1366 LINE",
"304 1366 LINE",
"293 1397 LINE",
"271 1428 LINE SMOOTH",
"231 1485 OFFCURVE",
"202 1500 OFFCURVE",
"132 1500 CURVE SMOOTH",
"95 1500 LINE"
);
},
{
closed = 1;
nodes = (
"1298 1384 LINE SMOOTH",
"1298 1454 OFFCURVE",
"1285 1478 OFFCURVE",
"1232 1483 CURVE SMOOTH",
"1054 1500 LINE",
"1054 1518 LINE",
"1580 1518 LINE",
"1580 1500 LINE",
"1421 1483 LINE SMOOTH",
"1351 1474 OFFCURVE",
"1333 1454 OFFCURVE",
"1333 1384 CURVE SMOOTH",
"1333 150 LINE",
"1298 150 LINE"
);
},
{
closed = 1;
nodes = (
"315 134 LINE SMOOTH",
"315 64 OFFCURVE",
"328 42 OFFCURVE",
"381 35 CURVE SMOOTH",
"537 18 LINE",
"537 0 LINE",
"55 0 LINE",
"55 18 LINE",
"213 35 LINE SMOOTH",
"266 42 OFFCURVE",
"279 64 OFFCURVE",
"279 134 CURVE SMOOTH",
"279 1456 LINE",
"315 1461 LINE"
);
}
);
width = 1615;
}
);
leftKerningGroup = I;
rightKerningGroup = N;
unicode = 004E;
},
{
glyphname = O;
lastChange = "2018-10-29 19:59:31 +0000";
layers = (
{
anchors = (
{
name = bottom;
position = "{810, 0}";
},
{
name = top;
position = "{812, 1760}";
}
);
layerId = master01;
paths = (
{
closed = 1;
nodes = (
"418 1553 OFFCURVE",
"114 1206 OFFCURVE",
"114 759 CURVE SMOOTH",
"114 312 OFFCURVE",
"418 -35 OFFCURVE",
"807 -35 CURVE SMOOTH",
"1197 -35 OFFCURVE",
"1500 312 OFFCURVE",
"1500 759 CURVE SMOOTH",
"1500 1206 OFFCURVE",
"1197 1553 OFFCURVE",
"807 1553 CURVE SMOOTH"
);
},
{
closed = 1;
nodes = (
"326 1250 OFFCURVE",
"499 1527 OFFCURVE",
"807 1527 CURVE SMOOTH",
"1115 1527 OFFCURVE",
"1289 1250 OFFCURVE",
"1289 759 CURVE SMOOTH",
"1289 271 OFFCURVE",
"1115 -7 OFFCURVE",
"807 -7 CURVE SMOOTH",
"499 -7 OFFCURVE",
"326 271 OFFCURVE",
"326 759 CURVE SMOOTH"
);
}
);
width = 1615;
}
);
leftKerningGroup = O;
rightKerningGroup = O;
unicode = 004F;
},
{
glyphname = P;
lastChange = "2018-10-29 19:59:31 +0000";
layers = (
{
layerId = master01;
paths = (
{
closed = 1;
nodes = (
"268 1483 LINE",
"88 1500 LINE",
"88 1518 LINE",
"438 1518 LINE",
"438 35 LINE",
"653 18 LINE",
"653 0 LINE",
"88 0 LINE",
"88 18 LINE",
"268 35 LINE"
);
},
{
closed = 1;
nodes = (
"645 1518 LINE SMOOTH",
"990 1518 OFFCURVE",
"1177 1364 OFFCURVE",
"1177 1098 CURVE SMOOTH",
"1177 812 OFFCURVE",
"990 660 OFFCURVE",
"645 660 CURVE SMOOTH",
"363 660 LINE",
"363 686 LINE",
"638 686 LINE SMOOTH",
"876 686 OFFCURVE",
"979 816 OFFCURVE",
"979 1109 CURVE SMOOTH",
"979 1324 OFFCURVE",
"915 1492 OFFCURVE",
"638 1492 CURVE SMOOTH",
"363 1492 LINE",
"363 1518 LINE"
);
}
);
width = 1250;
}
);
leftKerningGroup = I;
unicode = 0050;
userData = {
com.typemytype.robofont.guides = (
{
angle = 90;
isGlobal = 0;
magnetic = 5;
x = 175;
y = 0;
},
{
angle = 90;
isGlobal = 0;
magnetic = 5;
x = 414;
y = 0;
}
);
};
},
{
glyphname = Q;
lastChange = "2018-10-29 19:59:31 +0000";
layers = (
{
layerId = master01;
paths = (
{
closed = 1;
nodes = (
"1197 1553 OFFCURVE",
"1500 1206 OFFCURVE",
"1500 759 CURVE SMOOTH",
"1500 312 OFFCURVE",
"1197 -35 OFFCURVE",
"807 -35 CURVE SMOOTH",
"418 -35 OFFCURVE",
"114 312 OFFCURVE",
"114 759 CURVE SMOOTH",
"114 1206 OFFCURVE",
"418 1553 OFFCURVE",
"807 1553 CURVE SMOOTH"
);
},
{
closed = 1;
nodes = (
"326 268 OFFCURVE",
"499 -9 OFFCURVE",
"807 -9 CURVE SMOOTH",
"1115 -9 OFFCURVE",
"1289 268 OFFCURVE",
"1289 759 CURVE SMOOTH",
"1289 1250 OFFCURVE",
"1115 1527 OFFCURVE",
"807 1527 CURVE SMOOTH",
"499 1527 OFFCURVE",
"326 1250 OFFCURVE",
"326 759 CURVE SMOOTH"
);
},
{
closed = 1;
nodes = (
"1045 -73 OFFCURVE",
"1199 -194 OFFCURVE",
"1349 -194 CURVE SMOOTH",
"1450 -194 OFFCURVE",
"1492 -136 OFFCURVE",
"1522 -66 CURVE SMOOTH",
"1544 -79 LINE SMOOTH",
"1485 -216 OFFCURVE",
"1351 -328 OFFCURVE",
"1203 -328 CURVE SMOOTH",
"1089 -328 OFFCURVE",
"1001 -262 OFFCURVE",
"944 -187 CURVE SMOOTH",
"884 -110 OFFCURVE",
"810 -35 OFFCURVE",
"719 -35 CURVE SMOOTH",
"662 -35 OFFCURVE",
"583 -66 OFFCURVE",
"583 -121 CURVE SMOOTH",
"583 -154 OFFCURVE",
"612 -194 OFFCURVE",
"612 -238 CURVE SMOOTH",
"612 -288 OFFCURVE",
"572 -330 OFFCURVE",
"519 -330 CURVE SMOOTH",
"469 -330 OFFCURVE",
"433 -290 OFFCURVE",
"433 -233 CURVE SMOOTH",
"433 -136 OFFCURVE",
"535 -64 OFFCURVE",
"658 -18 CURVE",
"887 -18 LINE"
);
}
);
width = 1615;
}
);
leftKerningGroup = O;
rightKerningGroup = O;
unicode = 0051;
},
{
glyphname = R;
lastChange = "2018-10-29 19:59:31 +0000";
layers = (
{
anchors = (
{
name = bottom;
position = "{717, 0}";
},
{
name = top;
position = "{711, 1760}";
}
);
layerId = master01;
paths = (
{
closed = 1;
nodes = (
"854 722 LINE",
"1256 92 LINE SMOOTH",
"1294 33 OFFCURVE",
"1322 18 OFFCURVE",
"1393 18 CURVE SMOOTH",
"1423 18 LINE",
"1423 0 LINE",
"1197 0 LINE SMOOTH",
"1126 0 OFFCURVE",
"1100 15 OFFCURVE",
"1063 75 CURVE SMOOTH",
"726 618 LINE SMOOTH",
"684 684 OFFCURVE",
"673 693 OFFCURVE",
"601 693 CURVE SMOOTH",
"392 693 LINE",
"392 722 LINE"
);
},
{
closed = 1;
nodes = (
"268 1483 LINE",
"88 1500 LINE",
"88 1518 LINE",
"438 1518 LINE",
"438 35 LINE",
"629 18 LINE",
"629 0 LINE",
"88 0 LINE",
"88 18 LINE",
"268 35 LINE"
);
},
{
closed = 1;
nodes = (
"645 1518 LINE SMOOTH",
"990 1518 OFFCURVE",
"1177 1375 OFFCURVE",
"1177 1111 CURVE SMOOTH",
"1177 847 OFFCURVE",
"988 700 OFFCURVE",
"645 700 CURVE SMOOTH",
"363 700 LINE",
"363 726 LINE",
"638 726 LINE SMOOTH",
"873 726 OFFCURVE",
"983 849 OFFCURVE",
"983 1107 CURVE SMOOTH",
"983 1366 OFFCURVE",
"871 1492 OFFCURVE",
"638 1492 CURVE SMOOTH",
"363 1492 LINE",
"363 1518 LINE"
);
}
);
width = 1351;
}
);
leftKerningGroup = I;
rightKerningGroup = R;
unicode = 0052;
},
{
glyphname = S;
lastChange = "2018-10-29 19:59:31 +0000";
layers = (
{
anchors = (
{
name = bottom;
position = "{607, 0}";
},
{
name = top;
position = "{612, 1760}";
}
);
layerId = master01;
paths = (
{
closed = 1;
nodes = (
"471 -35 OFFCURVE",
"334 9 OFFCURVE",
"242 86 CURVE",
"196 -35 LINE",
"167 -35 LINE",
"139 491 LINE",
"158 495 LINE",
"202 297 OFFCURVE",
"242 198 OFFCURVE",
"315 117 CURVE SMOOTH",
"389 33 OFFCURVE",
"486 -9 OFFCURVE",
"612 -9 CURVE SMOOTH",
"825 -9 OFFCURVE",
"948 110 OFFCURVE",
"948 297 CURVE SMOOTH",
"948 506 OFFCURVE",
"790 585 OFFCURVE",
"543 693 CURVE SMOOTH",
"350 777 OFFCURVE",
"152 880 OFFCURVE",
"152 1133 CURVE SMOOTH",
"152 1377 OFFCURVE",
"341 1553 OFFCURVE",
"603 1553 CURVE SMOOTH",
"722 1553 OFFCURVE",
"818 1516 OFFCURVE",
"939 1421 CURVE",
"992 1527 LINE",
"1021 1527 LINE",
"1043 1047 LINE",
"1021 1041 LINE",
"994 1148 OFFCURVE",
"961 1236 OFFCURVE",
"931 1300 CURVE SMOOTH",
"862 1441 OFFCURVE",
"752 1527 OFFCURVE",
"594 1527 CURVE SMOOTH",
"411 1527 OFFCURVE",
"295 1415 OFFCURVE",
"295 1236 CURVE SMOOTH",
"295 1036 OFFCURVE",
"442 957 OFFCURVE",
"693 843 CURVE SMOOTH",
"911 744 OFFCURVE",
"1085 649 OFFCURVE",
"1085 407 CURVE SMOOTH",
"1085 150 OFFCURVE",
"884 -35 OFFCURVE",
"607 -35 CURVE SMOOTH"
);
}
);
width = 1212;
}
);
leftKerningGroup = S;
rightKerningGroup = S;
unicode = 0053;
},
{
glyphname = T;
lastChange = "2018-10-29 19:59:31 +0000";
layers = (
{
anchors = (
{
name = bottom;
position = "{722, 0}";
},
{
name = top;
position = "{717, 1760}";
}
);
layerId = master01;
paths = (
{
closed = 1;
nodes = (
"275 1494 OFFCURVE",
"251 1476 OFFCURVE",
"222 1410 CURVE SMOOTH",
"70 1071 LINE",
"53 1076 LINE",
"139 1553 LINE",
"152 1553 LINE",
"218 1525 OFFCURVE",
"251 1518 OFFCURVE",
"321 1518 CURVE SMOOTH",
"1168 1518 LINE SMOOTH",
"1239 1518 OFFCURVE",
"1272 1525 OFFCURVE",
"1338 1553 CURVE",
"1351 1553 LINE",
"1399 1076 LINE",
"1382 1071 LINE",
"1245 1410 LINE SMOOTH",
"1219 1476 OFFCURVE",
"1197 1494 OFFCURVE",
"1126 1494 CURVE SMOOTH",
"805 1494 LINE",
"805 35 LINE",
"1043 18 LINE",
"1043 0 LINE",
"398 0 LINE",
"398 18 LINE",
"636 35 LINE",
"636 1494 LINE",
"345 1494 LINE SMOOTH"
);
}
);
width = 1463;
}
);
leftKerningGroup = T;
rightKerningGroup = T;
unicode = 0054;
},
{
glyphname = U;
lastChange = "2018-10-29 19:59:31 +0000";
layers = (
{
anchors = (
{
name = top;
position = "{752, 1760}";
}
);
layerId = master01;
paths = (
{
closed = 1;
nodes = (
"1179 350 OFFCURVE",
"1157 251 OFFCURVE",
"1102 169 CURVE SMOOTH",
"1027 62 OFFCURVE",
"900 0 OFFCURVE",
"752 0 CURVE SMOOTH",
"673 0 OFFCURVE",
"596 18 OFFCURVE",
"546 48 CURVE SMOOTH",
"453 103 OFFCURVE",
"416 209 OFFCURVE",
"416 422 CURVE SMOOTH",
"416 1483 LINE",
"607 1500 LINE",
"607 1518 LINE",
"66 1518 LINE",
"66 1500 LINE",
"246 1483 LINE",
"246 495 LINE SMOOTH",
"246 277 OFFCURVE",
"282 167 OFFCURVE",
"372 88 CURVE SMOOTH",
"460 11 OFFCURVE",
"603 -35 OFFCURVE",
"737 -35 CURVE SMOOTH",
"904 -35 OFFCURVE",
"1049 35 OFFCURVE",
"1129 150 CURVE SMOOTH",
"1188 238 OFFCURVE",
"1214 354 OFFCURVE",
"1214 539 CURVE SMOOTH",
"1214 1384 LINE SMOOTH",
"1214 1454 OFFCURVE",
"1228 1474 OFFCURVE",
"1280 1483 CURVE SMOOTH",
"1439 1500 LINE",
"1439 1518 LINE",
"957 1518 LINE",
"957 1500 LINE",
"1113 1483 LINE SMOOTH",
"1166 1474 OFFCURVE",
"1179 1454 OFFCURVE",
"1179 1384 CURVE SMOOTH",
"1179 528 LINE"
);
}
);
width = 1463;
}
);
leftKerningGroup = U;
rightKerningGroup = U;
unicode = 0055;
},
{
glyphname = V;
lastChange = "2018-10-29 19:59:31 +0000";
layers = (
{
layerId = master01;
paths = (
{
closed = 1;
nodes = (
"1056 1518 LINE",
"1525 1518 LINE",
"1525 1500 LINE",
"1401 1489 LINE SMOOTH",
"1327 1483 OFFCURVE",
"1307 1467 OFFCURVE",
"1283 1401 CURVE SMOOTH",
"744 -35 LINE",
"704 -35 LINE",
"147 1483 LINE",
"-33 1500 LINE",
"-33 1518 LINE",
"517 1518 LINE",
"517 1500 LINE",
"326 1483 LINE",
"792 209 LINE",
"801 209 LINE",
"1247 1401 LINE SMOOTH",
"1256 1423 OFFCURVE",
"1256 1432 OFFCURVE",
"1256 1443 CURVE SMOOTH",
"1256 1472 OFFCURVE",
"1239 1485 OFFCURVE",
"1190 1489 CURVE SMOOTH",
"1056 1500 LINE"
);
}
);
width = 1448;
}
);
unicode = 0056;
userData = {
com.typemytype.robofont.guides = (
{
angle = 0;
isGlobal = 0;
magnetic = 5;
x = 0;
y = 674;
},
{
angle = 90;
isGlobal = 0;
magnetic = 5;
x = 537;
y = 0;
},
{
angle = 90;
isGlobal = 0;
magnetic = 5;
x = 553;
y = 0;
}
);
};
},
{
glyphname = W;
lastChange = "2018-10-29 19:59:31 +0000";
layers = (
{
anchors = (
{
name = top;
position = "{1005, 1760}";
}
);
layerId = master01;
paths = (
{
closed = 1;
nodes = (
"702 -35 LINE",
"667 -35 LINE",
"132 1483 LINE",
"-48 1500 LINE",
"-48 1518 LINE",
"502 1518 LINE",
"502 1500 LINE",
"310 1483 LINE",
"744 246 LINE",
"752 246 LINE",
"1056 1243 LINE",
"1091 1243 LINE"
);
},
{
closed = 1;
nodes = (
"1668 1518 LINE",
"2136 1518 LINE",
"2136 1500 LINE",
"2013 1489 LINE SMOOTH",
"1934 1483 OFFCURVE",
"1914 1467 OFFCURVE",
"1894 1401 CURVE SMOOTH",
"1456 -35 LINE",
"1421 -35 LINE",
"887 1483 LINE",
"706 1500 LINE",
"706 1518 LINE",
"1256 1518 LINE",
"1256 1500 LINE",
"1065 1483 LINE",
"1498 246 LINE",
"1507 246 LINE",
"1859 1401 LINE SMOOTH",
"1863 1417 OFFCURVE",
"1866 1430 OFFCURVE",
"1866 1443 CURVE SMOOTH",
"1866 1474 OFFCURVE",
"1852 1485 OFFCURVE",
"1802 1489 CURVE SMOOTH",
"1668 1500 LINE"
);
}
);
width = 2079;
}
);
leftKerningGroup = W;
rightKerningGroup = W;
unicode = 0057;
},
{
glyphname = X;
lastChange = "2018-10-29 19:59:31 +0000";
layers = (
{
layerId = master01;
paths = (
{
closed = 1;
nodes = (
"24 1500 LINE",
"24 1518 LINE",
"585 1518 LINE",
"585 1500 LINE",
"394 1483 LINE",
"1390 35 LINE",
"1571 18 LINE",
"1571 0 LINE",
"1010 0 LINE",
"1010 18 LINE",
"1201 35 LINE",
"205 1483 LINE"
);
},
{
closed = 1;
nodes = (
"451 0 LINE",
"2 0 LINE",
"2 18 LINE",
"114 26 LINE SMOOTH",
"185 33 OFFCURVE",
"213 48 OFFCURVE",
"255 106 CURVE SMOOTH",
"730 748 LINE",
"766 748 LINE",
"290 106 LINE SMOOTH",
"273 81 OFFCURVE",
"264 66 OFFCURVE",
"264 55 CURVE SMOOTH",
"264 40 OFFCURVE",
"284 33 OFFCURVE",
"326 29 CURVE",
"451 18 LINE"
);
},
{
closed = 1;
nodes = (
"1100 1518 LINE",
"1549 1518 LINE",
"1549 1500 LINE",
"1437 1492 LINE SMOOTH",
"1366 1485 OFFCURVE",
"1338 1470 OFFCURVE",
"1296 1412 CURVE SMOOTH",
"821 770 LINE",
"785 770 LINE",
"1261 1412 LINE SMOOTH",
"1278 1437 OFFCURVE",
"1287 1452 OFFCURVE",
"1287 1463 CURVE SMOOTH",
"1287 1478 OFFCURVE",
"1267 1485 OFFCURVE",
"1225 1489 CURVE",
"1100 1500 LINE"
);
}
);
width = 1573;
}
);
unicode = 0058;
},
{
glyphname = Y;
lastChange = "2018-10-29 19:59:31 +0000";
layers = (
{
anchors = (
{
name = top;
position = "{689, 1760}";
}
);
layerId = master01;
paths = (
{
closed = 1;
nodes = (
"926 1518 LINE",
"1395 1518 LINE",
"1395 1500 LINE",
"1272 1489 LINE SMOOTH",
"1197 1483 OFFCURVE",
"1184 1465 OFFCURVE",
"1153 1401 CURVE SMOOTH",
"706 469 LINE",
"667 469 LINE",
"123 1483 LINE",
"-57 1500 LINE",
"-57 1518 LINE",
"491 1518 LINE",
"491 1500 LINE",
"299 1483 LINE",
"746 649 LINE",
"757 649 LINE",
"1118 1401 LINE SMOOTH",
"1126 1421 OFFCURVE",
"1126 1432 OFFCURVE",
"1126 1443 CURVE SMOOTH",
"1126 1472 OFFCURVE",
"1109 1485 OFFCURVE",
"1060 1489 CURVE SMOOTH",
"926 1500 LINE"
);
},
{
closed = 1;
nodes = (
"770 35 LINE",
"961 18 LINE",
"961 0 LINE",
"409 0 LINE",
"409 18 LINE",
"601 35 LINE",
"601 616 LINE",
"770 616 LINE"
);
}
);
width = 1346;
}
);
leftKerningGroup = Y;
rightKerningGroup = Y;
unicode = 0059;
},
{
glyphname = Z;
lastChange = "2018-10-29 19:59:31 +0000";
layers = (
{
anchors = (
{
name = bottom;
position = "{640, 0}";
},
{
name = top;
position = "{675, 1760}";
}
);
layerId = master01;
paths = (
{
closed = 1;
nodes = (
"447 1492 LINE SMOOTH",
"376 1492 OFFCURVE",
"350 1476 OFFCURVE",
"319 1412 CURVE SMOOTH",
"152 1080 LINE",
"121 1085 LINE",
"211 1518 LINE",
"1175 1518 LINE",
"1175 1500 LINE",
"275 35 LINE",
"275 26 LINE",
"878 26 LINE SMOOTH",
"948 26 OFFCURVE",
"972 42 OFFCURVE",
"1001 108 CURVE SMOOTH",
"1159 477 LINE",
"1190 473 LINE",
"1109 0 LINE",
"77 0 LINE",
"77 18 LINE",
"977 1483 LINE",
"977 1492 LINE"
);
}
);
width = 1291;
}
);
leftKerningGroup = Z;
rightKerningGroup = Z;
unicode = 005A;
},
{
glyphname = bracketleft;
lastChange = "2018-10-29 19:59:31 +0000";
layers = (
{
layerId = master01;
paths = (
{
closed = 1;
nodes = (
"202 1615 LINE",
"618 1615 LINE",
"618 1580 LINE",
"348 1580 LINE",
"348 -332 LINE",
"618 -332 LINE",
"618 -367 LINE",
"202 -367 LINE"
);
}
);
width = 673;
}
);
unicode = 005B;
},
{
glyphname = backslash;
lastChange = "2018-10-29 19:59:31 +0000";
layers = (
{
layerId = master01;
paths = (
{
closed = 1;
nodes = (
"614 0 LINE",
"563 0 LINE",
"101 1518 LINE",
"152 1518 LINE"
);
}
);
width = 715;
}
);
unicode = 005C;
},
{
glyphname = bracketright;
lastChange = "2018-10-29 19:59:31 +0000";
layers = (
{
layerId = master01;
paths = (
{
closed = 1;
nodes = (
"55 -332 LINE",
"326 -332 LINE",
"326 1580 LINE",
"55 1580 LINE",
"55 1615 LINE",
"471 1615 LINE",
"471 -367 LINE",
"55 -367 LINE"
);
}
);
width = 673;
}
);
unicode = 005D;
},
{
glyphname = asciicircum;
lastChange = "2018-10-29 19:59:31 +0000";
layers = (
{
layerId = master01;
paths = (
{
closed = 1;
nodes = (
"455 851 OFFCURVE",
"438 871 OFFCURVE",
"400 871 CURVE SMOOTH",
"367 871 OFFCURVE",
"345 856 OFFCURVE",
"332 825 CURVE SMOOTH",
"145 416 LINE",
"152 414 LINE",
"400 735 LINE",
"649 414 LINE",
"656 416 LINE",
"469 825 LINE SMOOTH"
);
}
);
width = 801;
}
);
unicode = 005E;
},
{
glyphname = underscore;
lastChange = "2018-10-29 19:59:31 +0000";
layers = (
{
layerId = master01;
paths = (
{
closed = 1;
nodes = (
"746 -33 LINE",
"730 -81 LINE",
"114 -81 LINE",
"130 -33 LINE"
);
}
);
width = 871;
}
);
unicode = 005F;
},
{
glyphname = grave;
lastChange = "2018-10-29 19:59:31 +0000";
layers = (
{
anchors = (
{
name = _top;
position = "{213, 1166}";
}
);
layerId = master01;
paths = (
{
closed = 1;
nodes = (
"218 1507 OFFCURVE",
"194 1520 OFFCURVE",
"161 1520 CURVE SMOOTH",
"121 1520 OFFCURVE",
"99 1489 OFFCURVE",
"99 1452 CURVE SMOOTH",
"99 1423 OFFCURVE",
"121 1404 OFFCURVE",
"178 1331 CURVE SMOOTH",
"321 1151 LINE",
"328 1153 LINE",
"229 1474 LINE"
);
}
);
width = 427;
}
);
unicode = 0060;
},
{
glyphname = a;
lastChange = "2018-10-29 19:59:31 +0000";
layers = (
{
anchors = (
{
name = bottom;
position = "{680, 0}";
},
{
name = top;
position = "{418, 1166}";
}
);
layerId = master01;
paths = (
{
closed = 1;
nodes = (
"376 -15 OFFCURVE",
"471 37 OFFCURVE",
"537 121 CURVE",
"543 119 LINE",
"548 44 OFFCURVE",
"603 -7 OFFCURVE",
"680 -7 CURVE SMOOTH {name = hr01;}",
"748 -7 OFFCURVE",
"810 35 OFFCURVE",
"845 108 CURVE",
"836 112 LINE",
"818 86 OFFCURVE",
"785 70 OFFCURVE",
"748 70 CURVE SMOOTH",
"695 70 OFFCURVE",
"678 103 OFFCURVE",
"678 209 CURVE SMOOTH",
"678 629 LINE SMOOTH",
"678 788 OFFCURVE",
"675 821 OFFCURVE",
"660 860 CURVE SMOOTH",
"634 920 OFFCURVE",
"574 953 OFFCURVE",
"493 953 CURVE SMOOTH",
"427 953 OFFCURVE",
"352 933 OFFCURVE",
"288 898 CURVE SMOOTH",
"180 840 OFFCURVE",
"103 748 OFFCURVE",
"103 678 CURVE SMOOTH",
"103 631 OFFCURVE",
"134 598 OFFCURVE",
"178 598 CURVE SMOOTH",
"227 598 OFFCURVE",
"257 642 OFFCURVE",
"257 717 CURVE SMOOTH",
"257 737 OFFCURVE",
"255 761 OFFCURVE",
"255 777 CURVE SMOOTH",
"255 858 OFFCURVE",
"317 911 OFFCURVE",
"407 911 CURVE SMOOTH",
"502 911 OFFCURVE",
"535 854 OFFCURVE",
"535 684 CURVE SMOOTH",
"535 484 LINE",
"213 420 OFFCURVE",
"95 341 OFFCURVE",
"95 194 CURVE SMOOTH",
"95 70 OFFCURVE",
"174 -15 OFFCURVE",
"286 -15 CURVE SMOOTH"
);
},
{
closed = 1;
nodes = (
"295 68 OFFCURVE",
"242 132 OFFCURVE",
"242 235 CURVE SMOOTH",
"242 354 OFFCURVE",
"310 405 OFFCURVE",
"535 460 CURVE",
"535 150 LINE",
"499 97 OFFCURVE",
"440 68 OFFCURVE",
"381 68 CURVE SMOOTH"
);
}
);
width = 860;
}
);
leftKerningGroup = a;
rightKerningGroup = a;
unicode = 0061;
},
{
glyphname = b;
lastChange = "2018-10-29 19:59:31 +0000";
layers = (
{
layerId = master01;
paths = (
{
closed = 1;
nodes = (
"407 -22 OFFCURVE",
"321 7 OFFCURVE",
"251 59 CURVE",
"242 59 LINE",
"176 0 LINE",
"158 0 LINE",
"158 1437 LINE",
"29 1485 LINE",
"29 1500 LINE",
"284 1586 LINE",
"301 1586 LINE",
"301 829 LINE",
"378 913 OFFCURVE",
"469 955 OFFCURVE",
"572 955 CURVE SMOOTH",
"792 955 OFFCURVE",
"939 772 OFFCURVE",
"939 502 CURVE SMOOTH",
"939 200 OFFCURVE",
"752 -22 OFFCURVE",
"497 -22 CURVE SMOOTH {name = hr00;}"
);
},
{
closed = 1;
nodes = (
"664 0 OFFCURVE",
"774 180 OFFCURVE",
"774 455 CURVE SMOOTH",
"774 724 OFFCURVE",
"669 889 OFFCURVE",
"497 889 CURVE SMOOTH",
"418 889 OFFCURVE",
"345 854 OFFCURVE",
"301 796 CURVE",
"301 222 LINE SMOOTH",
"301 88 OFFCURVE",
"378 0 OFFCURVE",
"495 0 CURVE SMOOTH"
);
}
);
width = 1027;
}
);
leftKerningGroup = b;
rightKerningGroup = b;
unicode = 0062;
},
{
glyphname = c;
lastChange = "2018-10-29 19:59:31 +0000";
layers = (
{
anchors = (
{
name = bottom;
position = "{493, 0}";
},
{
name = top;
position = "{508, 1166}";
}
);
layerId = master01;
paths = (
{
closed = 1;
nodes = (
"686 955 OFFCURVE",
"816 871 OFFCURVE",
"816 763 CURVE SMOOTH",
"816 713 OFFCURVE",
"785 680 OFFCURVE",
"735 680 CURVE SMOOTH",
"594 680 OFFCURVE",
"700 933 OFFCURVE",
"515 933 CURVE SMOOTH",
"354 933 OFFCURVE",
"235 746 OFFCURVE",
"235 488 CURVE SMOOTH",
"235 233 OFFCURVE",
"350 86 OFFCURVE",
"548 86 CURVE SMOOTH",
"658 86 OFFCURVE",
"741 130 OFFCURVE",
"814 224 CURVE SMOOTH",
"834 251 LINE",
"843 246 LINE",
"834 222 LINE SMOOTH",
"777 68 OFFCURVE",
"651 -22 OFFCURVE",
"491 -22 CURVE SMOOTH",
"255 -22 OFFCURVE",
"88 176 OFFCURVE",
"88 455 CURVE SMOOTH",
"88 746 OFFCURVE",
"268 955 OFFCURVE",
"524 955 CURVE SMOOTH {name = hr00;}"
);
}
);
width = 893;
}
);
leftKerningGroup = o;
rightKerningGroup = c;
unicode = 0063;
},
{
glyphname = d;
lastChange = "2018-10-29 19:59:31 +0000";
layers = (
{
anchors = (
{
name = bottom;
position = "{453, 0}";
}
);
layerId = master01;
paths = (
{
closed = 1;
nodes = (
"244 -22 OFFCURVE",
"88 178 OFFCURVE",
"88 449 CURVE SMOOTH",
"88 748 OFFCURVE",
"277 955 OFFCURVE",
"554 955 CURVE SMOOTH",
"612 955 OFFCURVE",
"669 946 OFFCURVE",
"726 928 CURVE",
"726 1437 LINE",
"596 1485 LINE",
"596 1500 LINE",
"851 1586 LINE",
"869 1586 LINE",
"869 136 LINE",
"990 110 LINE",
"990 99 LINE",
"750 -11 LINE",
"737 -11 LINE",
"737 139 LINE",
"730 141 LINE",
"662 35 OFFCURVE",
"565 -22 OFFCURVE",
"453 -22 CURVE SMOOTH {name = hr00;}"
);
},
{
closed = 1;
nodes = (
"614 66 OFFCURVE",
"689 103 OFFCURVE",
"726 169 CURVE",
"726 733 LINE SMOOTH",
"726 862 OFFCURVE",
"664 933 OFFCURVE",
"552 933 CURVE SMOOTH",
"365 933 OFFCURVE",
"244 750 OFFCURVE",
"244 480 CURVE SMOOTH",
"244 224 OFFCURVE",
"350 66 OFFCURVE",
"530 66 CURVE SMOOTH"
);
}
);
width = 1038;
}
);
leftKerningGroup = d;
rightKerningGroup = d;
unicode = 0064;
userData = {
com.typemytype.robofont.guides = (
{
angle = 0;
isGlobal = 0;
magnetic = 5;
x = 0;
y = 35;
}
);
};
},
{
glyphname = e;
lastChange = "2018-10-29 19:59:31 +0000";
layers = (
{
anchors = (
{
name = bottom;
position = "{497, 0}";
},
{
name = top;
position = "{510, 1166}";
}
);
layerId = master01;
paths = (
{
closed = 1;
nodes = (
"847 832 OFFCURVE",
"735 955 OFFCURVE",
"530 955 CURVE SMOOTH",
"266 955 OFFCURVE",
"88 755 OFFCURVE",
"88 464 CURVE SMOOTH",
"88 176 OFFCURVE",
"253 -22 OFFCURVE",
"495 -22 CURVE SMOOTH",
"656 -22 OFFCURVE",
"777 66 OFFCURVE",
"834 222 CURVE SMOOTH",
"843 246 LINE",
"834 251 LINE",
"814 224 LINE SMOOTH",
"741 132 OFFCURVE",
"645 88 OFFCURVE",
"548 88 CURVE SMOOTH",
"356 88 OFFCURVE",
"240 224 OFFCURVE",
"240 497 CURVE SMOOTH",
"240 752 OFFCURVE",
"341 931 OFFCURVE",
"506 931 CURVE SMOOTH",
"607 931 OFFCURVE",
"680 882 OFFCURVE",
"680 715 CURVE SMOOTH",
"680 682 OFFCURVE",
"678 645 OFFCURVE",
"673 627 CURVE",
"227 612 LINE",
"227 587 LINE",
"838 587 LINE",
"851 598 LINE {name = hr00;}"
);
}
);
width = 931;
}
);
leftKerningGroup = o;
rightKerningGroup = e;
unicode = 0065;
},
{
glyphname = f;
lastChange = "2018-10-29 19:59:31 +0000";
layers = (
{
layerId = master01;
paths = (
{
closed = 1;
nodes = (
"521 18 LINE",
"521 0 LINE",
"53 0 LINE",
"53 18 LINE",
"187 35 LINE",
"187 1060 LINE SMOOTH",
"187 1272 OFFCURVE",
"191 1333 OFFCURVE",
"213 1390 CURVE SMOOTH",
"264 1520 OFFCURVE",
"400 1613 OFFCURVE",
"543 1613 CURVE SMOOTH",
"658 1613 OFFCURVE",
"757 1553 OFFCURVE",
"757 1483 CURVE SMOOTH",
"757 1439 OFFCURVE",
"719 1404 OFFCURVE",
"675 1404 CURVE SMOOTH",
"627 1404 OFFCURVE",
"601 1432 OFFCURVE",
"590 1494 CURVE SMOOTH",
"572 1566 OFFCURVE",
"554 1584 OFFCURVE",
"506 1584 CURVE SMOOTH",
"442 1584 OFFCURVE",
"392 1544 OFFCURVE",
"361 1470 CURVE SMOOTH",
"337 1408 OFFCURVE",
"330 1342 OFFCURVE",
"330 1181 CURVE SMOOTH",
"330 40 LINE {name = hr00;}"
);
},
{
closed = 1;
nodes = (
"535 933 LINE",
"524 898 LINE",
"40 898 LINE",
"51 933 LINE"
);
}
);
width = 579;
}
);
leftKerningGroup = f;
rightKerningGroup = f;
unicode = 0066;
},
{
glyphname = g;
lastChange = "2018-10-29 19:59:31 +0000";
layers = (
{
anchors = (
{
name = top;
position = "{449, 1166}";
}
);
layerId = master01;
paths = (
{
closed = 1;
nodes = (
"653 312 OFFCURVE",
"799 447 OFFCURVE",
"799 634 CURVE SMOOTH",
"799 821 OFFCURVE",
"653 955 OFFCURVE",
"449 955 CURVE SMOOTH",
"244 955 OFFCURVE",
"99 823 OFFCURVE",
"99 636 CURVE SMOOTH",
"99 447 OFFCURVE",
"244 312 OFFCURVE",
"449 312 CURVE SMOOTH"
);
},
{
closed = 1;
nodes = (
"339 334 OFFCURVE",
"262 458 OFFCURVE",
"262 634 CURVE SMOOTH",
"262 810 OFFCURVE",
"339 933 OFFCURVE",
"449 933 CURVE SMOOTH",
"559 933 OFFCURVE",
"636 810 OFFCURVE",
"636 634 CURVE SMOOTH",
"636 458 OFFCURVE",
"559 334 OFFCURVE",
"449 334 CURVE SMOOTH"
);
},
{
closed = 1;
nodes = (
"691 937 OFFCURVE",
"711 970 OFFCURVE",
"744 970 CURVE SMOOTH {name = hr01;}",
"781 970 OFFCURVE",
"803 926 OFFCURVE",
"847 926 CURVE SMOOTH",
"889 926 OFFCURVE",
"922 959 OFFCURVE",
"922 1001 CURVE SMOOTH",
"922 1052 OFFCURVE",
"887 1085 OFFCURVE",
"832 1085 CURVE SMOOTH",
"752 1085 OFFCURVE",
"693 1014 OFFCURVE",
"658 880 CURVE",
"678 865 LINE"
);
},
{
closed = 1;
nodes = (
"660 -541 OFFCURVE",
"849 -407 OFFCURVE",
"849 -229 CURVE SMOOTH {name = hr02;}",
"849 -75 OFFCURVE",
"755 4 OFFCURVE",
"504 51 CURVE SMOOTH",
"282 92 OFFCURVE",
"244 121 OFFCURVE",
"244 180 CURVE SMOOTH",
"244 246 OFFCURVE",
"350 299 OFFCURVE",
"537 321 CURVE",
"438 321 LINE",
"229 282 OFFCURVE",
"119 207 OFFCURVE",
"119 121 CURVE SMOOTH",
"119 29 OFFCURVE",
"191 -40 OFFCURVE",
"438 -88 CURVE SMOOTH",
"662 -132 OFFCURVE",
"722 -185 OFFCURVE",
"722 -295 CURVE SMOOTH",
"722 -431 OFFCURVE",
"605 -519 OFFCURVE",
"420 -519 CURVE SMOOTH",
"235 -519 OFFCURVE",
"130 -431 OFFCURVE",
"130 -275 CURVE SMOOTH",
"130 -154 OFFCURVE",
"187 -77 OFFCURVE",
"306 -42 CURVE",
"306 -29 LINE",
"134 -70 OFFCURVE",
"24 -176 OFFCURVE",
"24 -295 CURVE SMOOTH",
"24 -451 OFFCURVE",
"165 -541 OFFCURVE",
"407 -541 CURVE SMOOTH"
);
}
);
width = 887;
}
);
leftKerningGroup = g;
rightKerningGroup = g;
unicode = 0067;
},
{
glyphname = h;
lastChange = "2018-10-29 19:59:31 +0000";
layers = (
{
anchors = (
{
name = bottom;
position = "{504, 0}";
}
);
layerId = master01;
paths = (
{
closed = 1;
nodes = (
"451 0 LINE",
"40 0 LINE",
"40 18 LINE",
"174 35 LINE",
"174 1437 LINE",
"44 1485 LINE",
"44 1500 LINE",
"299 1586 LINE",
"317 1586 LINE",
"317 35 LINE",
"451 18 LINE {name = hr00;}"
);
},
{
closed = 1;
nodes = (
"394 898 OFFCURVE",
"502 955 OFFCURVE",
"605 955 CURVE SMOOTH",
"693 955 OFFCURVE",
"770 913 OFFCURVE",
"805 847 CURVE SMOOTH",
"825 807 OFFCURVE",
"829 761 OFFCURVE",
"829 596 CURVE SMOOTH",
"829 35 LINE",
"964 18 LINE",
"964 0 LINE",
"552 0 LINE",
"552 18 LINE",
"686 35 LINE",
"686 596 LINE SMOOTH",
"686 717 OFFCURVE",
"682 759 OFFCURVE",
"664 794 CURVE SMOOTH",
"640 845 OFFCURVE",
"585 873 OFFCURVE",
"515 873 CURVE SMOOTH",
"431 873 OFFCURVE",
"359 834 OFFCURVE",
"299 759 CURVE",
"299 794 LINE"
);
}
);
width = 997;
}
);
leftKerningGroup = h;
rightKerningGroup = n;
unicode = 0068;
},
{
glyphname = i;
lastChange = "2018-10-29 19:59:31 +0000";
layers = (
{
layerId = master01;
paths = (
{
closed = 1;
nodes = (
"143 1212 OFFCURVE",
"185 1166 OFFCURVE",
"249 1166 CURVE SMOOTH",
"312 1166 OFFCURVE",
"354 1212 OFFCURVE",
"354 1272 CURVE SMOOTH",
"354 1331 OFFCURVE",
"312 1377 OFFCURVE",
"249 1377 CURVE SMOOTH",
"185 1377 OFFCURVE",
"143 1331 OFFCURVE",
"143 1272 CURVE SMOOTH {name = hr00;}"
);
},
{
closed = 1;
nodes = (
"466 0 LINE",
"55 0 LINE",
"55 18 LINE",
"189 35 LINE",
"189 805 LINE",
"59 854 LINE",
"59 869 LINE",
"315 955 LINE",
"332 955 LINE",
"332 35 LINE",
"466 18 LINE"
);
}
);
width = 504;
}
);
leftKerningGroup = i;
rightKerningGroup = i;
unicode = 0069;
},
{
glyphname = j;
lastChange = "2018-10-29 19:59:31 +0000";
layers = (
{
layerId = master01;
paths = (
{
closed = 1;
nodes = (
"132 1210 OFFCURVE",
"176 1166 OFFCURVE",
"238 1166 CURVE SMOOTH",
"299 1166 OFFCURVE",
"343 1210 OFFCURVE",
"343 1272 CURVE SMOOTH",
"343 1333 OFFCURVE",
"299 1377 OFFCURVE",
"238 1377 CURVE SMOOTH",
"176 1377 OFFCURVE",
"132 1333 OFFCURVE",
"132 1272 CURVE SMOOTH {name = hr00;}"
);
},
{
closed = 1;
nodes = (
"48 854 LINE",
"48 869 LINE",
"304 955 LINE",
"321 955 LINE",
"321 88 LINE SMOOTH",
"321 -200 OFFCURVE",
"312 -271 OFFCURVE",
"271 -348 CURVE SMOOTH",
"205 -471 OFFCURVE",
"95 -543 OFFCURVE",
"-29 -543 CURVE SMOOTH",
"-130 -543 OFFCURVE",
"-198 -491 OFFCURVE",
"-198 -416 CURVE SMOOTH",
"-198 -363 OFFCURVE",
"-163 -328 OFFCURVE",
"-114 -328 CURVE SMOOTH",
"-70 -328 OFFCURVE",
"-44 -354 OFFCURVE",
"-29 -414 CURVE SMOOTH",
"-13 -480 OFFCURVE",
"7 -502 OFFCURVE",
"53 -502 CURVE SMOOTH",
"139 -502 OFFCURVE",
"178 -414 OFFCURVE",
"178 -224 CURVE SMOOTH",
"178 805 LINE"
);
}
);
width = 480;
}
);
leftKerningGroup = j;
rightKerningGroup = j;
unicode = 006A;
},
{
glyphname = k;
lastChange = "2018-10-29 19:59:31 +0000";
layers = (
{
anchors = (
{
name = bottom;
position = "{499, 0}";
}
);
layerId = master01;
paths = (
{
closed = 1;
nodes = (
"911 35 LINE",
"1032 18 LINE",
"1032 0 LINE",
"750 0 LINE",
"370 462 LINE",
"464 576 LINE {name = hr00;}"
);
},
{
closed = 1;
nodes = (
"449 0 LINE",
"40 0 LINE",
"40 18 LINE",
"174 35 LINE",
"174 1437 LINE",
"44 1485 LINE",
"44 1500 LINE",
"299 1586 LINE",
"317 1586 LINE",
"317 35 LINE",
"449 18 LINE"
);
},
{
closed = 1;
nodes = (
"532 933 LINE",
"904 933 LINE",
"904 915 LINE",
"785 895 OFFCURVE",
"733 867 OFFCURVE",
"673 796 CURVE SMOOTH",
"268 319 LINE",
"268 359 LINE",
"629 792 LINE SMOOTH",
"656 825 OFFCURVE",
"669 847 OFFCURVE",
"669 862 CURVE SMOOTH",
"669 889 OFFCURVE",
"638 900 OFFCURVE",
"532 915 CURVE"
);
}
);
width = 1005;
}
);
leftKerningGroup = h;
rightKerningGroup = k;
unicode = 006B;
},
{
glyphname = l;
lastChange = "2018-10-29 19:59:31 +0000";
layers = (
{
anchors = (
{
name = bottom;
position = "{244, 0}";
}
);
layerId = master01;
paths = (
{
closed = 1;
nodes = (
"451 0 LINE",
"40 0 LINE",
"40 18 LINE",
"174 35 LINE",
"174 1437 LINE",
"44 1485 LINE",
"44 1500 LINE",
"299 1586 LINE",
"317 1586 LINE",
"317 35 LINE",
"451 18 LINE {name = hr00;}"
);
}
);
width = 491;
}
);
leftKerningGroup = l;
rightKerningGroup = l;
unicode = 006C;
},
{
glyphname = m;
lastChange = "2018-10-29 19:59:31 +0000";
layers = (
{
layerId = master01;
paths = (
{
closed = 1;
nodes = (
"466 0 LINE",
"57 0 LINE",
"57 18 LINE",
"189 35 LINE",
"189 805 LINE",
"59 854 LINE",
"59 869 LINE",
"308 955 LINE",
"326 955 LINE",
"326 796 LINE",
"332 788 LINE",
"332 35 LINE",
"466 18 LINE {name = hr00;}"
);
},
{
closed = 1;
nodes = (
"405 900 OFFCURVE",
"499 955 OFFCURVE",
"596 955 CURVE SMOOTH",
"680 955 OFFCURVE",
"741 917 OFFCURVE",
"777 847 CURVE SMOOTH",
"796 807 OFFCURVE",
"801 761 OFFCURVE",
"801 596 CURVE SMOOTH",
"801 35 LINE",
"937 18 LINE",
"937 0 LINE",
"521 0 LINE",
"521 18 LINE",
"658 35 LINE",
"658 596 LINE SMOOTH",
"658 711 OFFCURVE",
"653 757 OFFCURVE",
"638 794 CURVE SMOOTH",
"616 847 OFFCURVE",
"570 873 OFFCURVE",
"506 873 CURVE SMOOTH",
"429 873 OFFCURVE",
"367 836 OFFCURVE",
"315 759 CURVE",
"315 794 LINE"
);
},
{
closed = 1;
nodes = (
"873 900 OFFCURVE",
"968 955 OFFCURVE",
"1065 955 CURVE SMOOTH",
"1148 955 OFFCURVE",
"1210 917 OFFCURVE",
"1245 847 CURVE SMOOTH",
"1265 807 OFFCURVE",
"1269 752 OFFCURVE",
"1269 596 CURVE SMOOTH",
"1269 35 LINE",
"1406 18 LINE",
"1406 0 LINE",
"992 0 LINE",
"992 18 LINE",
"1126 35 LINE",
"1126 596 LINE SMOOTH",
"1126 711 OFFCURVE",
"1122 757 OFFCURVE",
"1107 794 CURVE SMOOTH",
"1085 847 OFFCURVE",
"1038 873 OFFCURVE",
"975 873 CURVE SMOOTH",
"898 873 OFFCURVE",
"836 836 OFFCURVE",
"783 759 CURVE",
"783 794 LINE"
);
}
);
width = 1434;
}
);
leftKerningGroup = n;
rightKerningGroup = n;
unicode = 006D;
},
{
glyphname = n;
lastChange = "2018-10-29 19:59:31 +0000";
layers = (
{
anchors = (
{
name = bottom;
position = "{521, 0}";
},
{
name = top;
position = "{515, 1166}";
}
);
layerId = master01;
paths = (
{
closed = 1;
nodes = (
"466 0 LINE",
"55 0 LINE",
"55 18 LINE",
"189 35 LINE",
"189 794 LINE",
"59 843 LINE",
"59 858 LINE",
"308 944 LINE",
"326 944 LINE",
"326 796 LINE",
"332 788 LINE",
"332 35 LINE",
"466 18 LINE {name = hr00;}"
);
},
{
closed = 1;
nodes = (
"414 902 OFFCURVE",
"517 955 OFFCURVE",
"620 955 CURVE SMOOTH",
"711 955 OFFCURVE",
"792 913 OFFCURVE",
"825 847 CURVE SMOOTH",
"845 807 OFFCURVE",
"849 761 OFFCURVE",
"849 596 CURVE SMOOTH",
"849 35 LINE",
"981 18 LINE",
"981 0 LINE",
"572 0 LINE",
"572 18 LINE",
"706 35 LINE",
"706 596 LINE SMOOTH",
"706 708 OFFCURVE",
"702 757 OFFCURVE",
"684 794 CURVE SMOOTH",
"660 845 OFFCURVE",
"603 873 OFFCURVE",
"532 873 CURVE SMOOTH",
"451 873 OFFCURVE",
"378 836 OFFCURVE",
"315 759 CURVE",
"315 794 LINE"
);
}
);
width = 1016;
}
);
leftKerningGroup = n;
rightKerningGroup = n;
unicode = 006E;
},
{
glyphname = o;
lastChange = "2018-10-29 19:59:31 +0000";
layers = (
{
anchors = (
{
name = bottom;
position = "{524, 0}";
},
{
name = top;
position = "{524, 1166}";
}
);
layerId = master01;
paths = (
{
closed = 1;
nodes = (
"266 955 OFFCURVE",
"88 757 OFFCURVE",
"88 466 CURVE SMOOTH",
"88 176 OFFCURVE",
"266 -22 OFFCURVE",
"524 -22 CURVE SMOOTH",
"781 -22 OFFCURVE",
"959 176 OFFCURVE",
"959 466 CURVE SMOOTH",
"959 757 OFFCURVE",
"781 955 OFFCURVE",
"524 955 CURVE SMOOTH {name = hr00;}"
);
},
{
closed = 1;
nodes = (
"251 759 OFFCURVE",
"352 933 OFFCURVE",
"524 933 CURVE SMOOTH",
"693 933 OFFCURVE",
"796 759 OFFCURVE",
"796 466 CURVE SMOOTH",
"796 174 OFFCURVE",
"693 0 OFFCURVE",
"524 0 CURVE SMOOTH",
"352 0 OFFCURVE",
"251 174 OFFCURVE",
"251 466 CURVE SMOOTH"
);
}
);
width = 1047;
}
);
leftKerningGroup = o;
rightKerningGroup = o;
unicode = 006F;
},
{
glyphname = p;
lastChange = "2018-10-29 19:59:31 +0000";
layers = (
{
layerId = master01;
paths = (
{
closed = 1;
nodes = (
"317 -475 LINE",
"515 -499 LINE",
"515 -515 LINE",
"40 -515 LINE",
"40 -497 LINE",
"174 -480 LINE",
"174 805 LINE",
"44 854 LINE",
"44 869 LINE",
"293 955 LINE",
"310 955 LINE",
"310 799 LINE",
"319 799 LINE",
"383 895 OFFCURVE",
"491 955 OFFCURVE",
"605 955 CURVE SMOOTH",
"803 955 OFFCURVE",
"948 761 OFFCURVE",
"948 493 CURVE SMOOTH",
"948 191 OFFCURVE",
"761 -22 OFFCURVE",
"497 -22 CURVE SMOOTH",
"433 -22 OFFCURVE",
"376 -9 OFFCURVE",
"317 18 CURVE {name = hr00;}"
);
},
{
closed = 1;
nodes = (
"671 0 OFFCURVE",
"788 194 OFFCURVE",
"788 462 CURVE SMOOTH",
"788 722 OFFCURVE",
"682 889 OFFCURVE",
"521 889 CURVE SMOOTH",
"431 889 OFFCURVE",
"352 838 OFFCURVE",
"317 757 CURVE",
"317 156 LINE SMOOTH",
"317 73 OFFCURVE",
"407 0 OFFCURVE",
"513 0 CURVE SMOOTH"
);
}
);
width = 1038;
}
);
rightKerningGroup = b;
unicode = 0070;
},
{
glyphname = q;
lastChange = "2018-10-29 19:59:31 +0000";
layers = (
{
layerId = master01;
paths = (
{
closed = 1;
nodes = (
"726 108 LINE",
"653 22 OFFCURVE",
"559 -22 OFFCURVE",
"455 -22 CURVE SMOOTH",
"240 -22 OFFCURVE",
"88 167 OFFCURVE",
"88 436 CURVE SMOOTH",
"88 733 OFFCURVE",
"279 955 OFFCURVE",
"535 955 CURVE SMOOTH",
"623 955 OFFCURVE",
"702 928 OFFCURVE",
"777 873 CURVE",
"785 873 LINE",
"845 933 LINE",
"869 933 LINE",
"869 -480 LINE",
"1003 -497 LINE",
"1003 -515 LINE",
"528 -515 LINE",
"528 -499 LINE",
"726 -475 LINE {name = hr00;}"
);
},
{
closed = 1;
nodes = (
"365 933 OFFCURVE",
"251 752 OFFCURVE",
"251 475 CURVE SMOOTH",
"251 209 OFFCURVE",
"356 44 OFFCURVE",
"528 44 CURVE SMOOTH",
"605 44 OFFCURVE",
"680 79 OFFCURVE",
"726 136 CURVE",
"726 711 LINE SMOOTH",
"726 851 OFFCURVE",
"658 933 OFFCURVE",
"541 933 CURVE SMOOTH"
);
}
);
width = 1027;
}
);
leftKerningGroup = d;
unicode = 0071;
},
{
glyphname = r;
lastChange = "2018-10-29 19:59:31 +0000";
layers = (
{
anchors = (
{
name = bottom;
position = "{257, 0}";
},
{
name = top;
position = "{372, 1166}";
}
);
layerId = master01;
paths = (
{
closed = 1;
nodes = (
"400 884 OFFCURVE",
"482 955 OFFCURVE",
"557 955 CURVE SMOOTH",
"616 955 OFFCURVE",
"662 909 OFFCURVE",
"662 854 CURVE SMOOTH",
"662 805 OFFCURVE",
"625 770 OFFCURVE",
"579 770 CURVE SMOOTH",
"515 770 OFFCURVE",
"510 845 OFFCURVE",
"455 845 CURVE SMOOTH",
"409 845 OFFCURVE",
"352 781 OFFCURVE",
"332 706 CURVE",
"317 748 LINE"
);
},
{
closed = 1;
nodes = (
"508 0 LINE",
"55 0 LINE",
"55 18 LINE",
"189 35 LINE",
"189 805 LINE",
"59 854 LINE",
"59 869 LINE",
"308 955 LINE {name = hr01;}",
"326 955 LINE {name = hr02;}",
"326 757 LINE",
"332 748 LINE {name = hr03;}",
"332 35 LINE",
"508 18 LINE"
);
}
);
width = 693;
}
);
leftKerningGroup = n;
rightKerningGroup = r;
unicode = 0072;
},
{
glyphname = s;
lastChange = "2018-10-29 19:59:31 +0000";
layers = (
{
anchors = (
{
name = bottom;
position = "{363, 0}";
},
{
name = top;
position = "{374, 1166}";
}
);
layerId = master01;
paths = (
{
closed = 1;
nodes = (
"502 955 OFFCURVE",
"581 942 OFFCURVE",
"627 924 CURVE",
"627 680 LINE",
"603 680 LINE",
"563 856 OFFCURVE",
"504 931 OFFCURVE",
"398 931 CURVE SMOOTH",
"301 931 OFFCURVE",
"238 867 OFFCURVE",
"238 766 CURVE SMOOTH",
"238 502 OFFCURVE",
"664 598 OFFCURVE",
"664 268 CURVE SMOOTH",
"664 90 OFFCURVE",
"541 -22 OFFCURVE",
"348 -22 CURVE SMOOTH",
"275 -22 OFFCURVE",
"178 -4 OFFCURVE",
"117 18 CURVE",
"106 304 LINE",
"132 304 LINE",
"163 99 OFFCURVE",
"235 2 OFFCURVE",
"356 2 CURVE SMOOTH",
"464 2 OFFCURVE",
"535 77 OFFCURVE",
"535 189 CURVE SMOOTH {name = hr01;}",
"535 466 OFFCURVE",
"106 376 OFFCURVE",
"106 695 CURVE SMOOTH",
"106 860 OFFCURVE",
"222 955 OFFCURVE",
"429 955 CURVE SMOOTH"
);
}
);
width = 757;
}
);
leftKerningGroup = s;
rightKerningGroup = s;
unicode = 0073;
userData = {
com.typemytype.robofont.guides = (
{
angle = 90;
isGlobal = 0;
magnetic = 5;
x = 43;
y = 0;
},
{
angle = 90;
isGlobal = 0;
magnetic = 5;
x = 296;
y = 0;
}
);
};
},
{
glyphname = t;
lastChange = "2018-10-29 19:59:31 +0000";
layers = (
{
anchors = (
{
name = bottom;
position = "{343, 0}";
}
);
layerId = master01;
paths = (
{
closed = 1;
nodes = (
"304 933 LINE",
"554 933 LINE",
"541 898 LINE",
"304 898 LINE",
"304 224 LINE SMOOTH",
"304 174 OFFCURVE",
"312 134 OFFCURVE",
"328 110 CURVE SMOOTH",
"345 75 OFFCURVE",
"381 57 OFFCURVE",
"427 57 CURVE SMOOTH",
"475 57 OFFCURVE",
"515 79 OFFCURVE",
"568 132 CURVE",
"576 125 LINE",
"532 35 OFFCURVE",
"447 -22 OFFCURVE",
"354 -22 CURVE SMOOTH",
"308 -22 OFFCURVE",
"262 -7 OFFCURVE",
"229 18 CURVE SMOOTH",
"180 53 OFFCURVE",
"161 103 OFFCURVE",
"161 196 CURVE SMOOTH",
"161 900 LINE",
"57 900 LINE",
"53 911 LINE",
"295 1144 LINE",
"304 1142 LINE {name = hr00;}"
);
}
);
width = 590;
}
);
leftKerningGroup = t;
rightKerningGroup = t;
unicode = 0074;
},
{
glyphname = u;
lastChange = "2018-10-29 19:59:31 +0000";
layers = (
{
anchors = (
{
name = bottom;
position = "{462, 0}";
},
{
name = top;
position = "{484, 1166}";
}
);
layerId = master01;
paths = (
{
closed = 1;
nodes = (
"612 101 OFFCURVE",
"539 62 OFFCURVE",
"464 62 CURVE SMOOTH",
"403 62 OFFCURVE",
"352 90 OFFCURVE",
"330 139 CURVE SMOOTH",
"312 176 OFFCURVE",
"308 222 OFFCURVE",
"308 337 CURVE SMOOTH",
"308 933 LINE",
"33 933 LINE",
"33 915 LINE",
"165 898 LINE",
"165 337 LINE SMOOTH",
"165 172 OFFCURVE",
"169 125 OFFCURVE",
"189 86 CURVE SMOOTH",
"222 20 OFFCURVE",
"297 -22 OFFCURVE",
"387 -22 CURVE SMOOTH",
"488 -22 OFFCURVE",
"579 31 OFFCURVE",
"667 141 CURVE",
"667 176 LINE {name = hr00;}"
);
},
{
closed = 1;
nodes = (
"662 154 LINE",
"667 141 LINE",
"673 139 LINE",
"673 -11 LINE",
"686 -11 LINE",
"926 99 LINE",
"926 110 LINE",
"805 136 LINE",
"805 933 LINE",
"530 933 LINE",
"530 915 LINE",
"662 898 LINE"
);
}
);
width = 975;
}
);
leftKerningGroup = u;
rightKerningGroup = u;
unicode = 0075;
},
{
glyphname = v;
lastChange = "2018-10-29 19:59:31 +0000";
layers = (
{
layerId = master01;
paths = (
{
closed = 1;
nodes = (
"158 823 LINE SMOOTH",
"132 891 OFFCURVE",
"106 909 OFFCURVE",
"4 915 CURVE",
"4 933 LINE",
"429 933 LINE",
"429 915 LINE",
"323 909 OFFCURVE",
"304 902 OFFCURVE",
"304 878 CURVE SMOOTH",
"304 867 OFFCURVE",
"308 851 OFFCURVE",
"319 821 CURVE SMOOTH",
"548 172 LINE",
"557 172 LINE",
"755 766 LINE SMOOTH",
"763 794 OFFCURVE",
"768 816 OFFCURVE",
"768 834 CURVE SMOOTH",
"768 880 OFFCURVE",
"730 898 OFFCURVE",
"614 915 CURVE",
"614 933 LINE",
"1008 933 LINE",
"1008 915 LINE",
"873 900 OFFCURVE",
"825 873 OFFCURVE",
"801 799 CURVE SMOOTH",
"526 -7 LINE",
"482 -7 LINE {name = hr00;}"
);
}
);
width = 981;
}
);
unicode = 0076;
},
{
glyphname = w;
lastChange = "2018-10-29 19:59:31 +0000";
layers = (
{
anchors = (
{
name = top;
position = "{715, 1166}";
}
);
layerId = master01;
paths = (
{
closed = 1;
nodes = (
"464 -7 LINE",
"440 -7 LINE",
"143 840 LINE SMOOTH",
"125 893 OFFCURVE",
"117 902 OFFCURVE",
"11 915 CURVE",
"11 933 LINE",
"405 933 LINE",
"405 915 LINE",
"310 909 OFFCURVE",
"297 895 OFFCURVE",
"297 871 CURVE SMOOTH",
"297 858 OFFCURVE",
"301 843 OFFCURVE",
"310 818 CURVE SMOOTH",
"502 233 LINE",
"510 233 LINE",
"678 746 LINE",
"706 733 LINE {name = hr00;}"
);
},
{
closed = 1;
nodes = (
"627 829 LINE SMOOTH",
"609 880 OFFCURVE",
"590 906 OFFCURVE",
"506 915 CURVE",
"506 933 LINE",
"878 933 LINE",
"878 915 LINE",
"783 909 OFFCURVE",
"770 895 OFFCURVE",
"770 871 CURVE SMOOTH",
"770 858 OFFCURVE",
"774 843 OFFCURVE",
"783 818 CURVE SMOOTH",
"977 233 LINE",
"986 233 LINE",
"1155 766 LINE SMOOTH",
"1164 794 OFFCURVE",
"1168 816 OFFCURVE",
"1168 834 CURVE SMOOTH",
"1168 880 OFFCURVE",
"1137 898 OFFCURVE",
"1034 915 CURVE",
"1034 933 LINE",
"1388 933 LINE",
"1388 915 LINE",
"1258 893 OFFCURVE",
"1221 865 OFFCURVE",
"1188 763 CURVE SMOOTH",
"937 -7 LINE",
"913 -7 LINE"
);
}
);
width = 1362;
}
);
leftKerningGroup = w;
rightKerningGroup = w;
unicode = 0077;
},
{
glyphname = x;
lastChange = "2018-10-29 19:59:31 +0000";
layers = (
{
layerId = master01;
paths = (
{
closed = 1;
nodes = (
"889 44 OFFCURVE",
"915 29 OFFCURVE",
"1008 18 CURVE",
"1008 0 LINE",
"601 0 LINE",
"601 18 LINE",
"680 26 OFFCURVE",
"704 31 OFFCURVE",
"704 53 CURVE SMOOTH",
"704 68 OFFCURVE",
"693 88 OFFCURVE",
"678 112 CURVE SMOOTH",
"196 840 LINE SMOOTH",
"163 889 OFFCURVE",
"134 904 OFFCURVE",
"42 915 CURVE",
"42 933 LINE",
"449 933 LINE",
"449 915 LINE",
"370 906 OFFCURVE",
"345 902 OFFCURVE",
"345 880 CURVE SMOOTH",
"345 865 OFFCURVE",
"356 845 OFFCURVE",
"372 821 CURVE SMOOTH",
"856 92 LINE SMOOTH {name = hr00;}"
);
},
{
closed = 1;
nodes = (
"268 143 LINE SMOOTH",
"249 117 OFFCURVE",
"238 97 OFFCURVE",
"238 79 CURVE SMOOTH",
"238 51 OFFCURVE",
"266 35 OFFCURVE",
"365 18 CURVE",
"365 0 LINE",
"2 0 LINE",
"2 18 LINE",
"121 37 OFFCURVE",
"169 64 OFFCURVE",
"224 136 CURVE SMOOTH",
"482 477 LINE",
"502 455 LINE"
);
},
{
closed = 1;
nodes = (
"708 790 LINE SMOOTH",
"728 816 OFFCURVE",
"739 836 OFFCURVE",
"739 854 CURVE SMOOTH",
"739 882 OFFCURVE",
"711 898 OFFCURVE",
"612 915 CURVE",
"612 933 LINE",
"975 933 LINE",
"975 915 LINE",
"856 895 OFFCURVE",
"807 869 OFFCURVE",
"752 796 CURVE SMOOTH",
"513 484 LINE",
"493 506 LINE"
);
}
);
width = 1012;
}
);
unicode = 0078;
userData = {
com.typemytype.robofont.guides = (
{
angle = 90;
isGlobal = 0;
magnetic = 5;
x = 2;
y = 0;
},
{
angle = 90;
isGlobal = 0;
magnetic = 5;
x = 427;
y = 0;
}
);
};
},
{
glyphname = y;
lastChange = "2018-10-29 19:59:31 +0000";
layers = (
{
anchors = (
{
name = top;
position = "{524, 1166}";
}
);
layerId = master01;
paths = (
{
closed = 1;
nodes = (
"752 766 LINE SMOOTH",
"761 794 OFFCURVE",
"766 816 OFFCURVE",
"766 834 CURVE SMOOTH",
"766 880 OFFCURVE",
"728 898 OFFCURVE",
"612 915 CURVE",
"612 933 LINE",
"1005 933 LINE",
"1005 915 LINE",
"865 893 OFFCURVE",
"821 862 OFFCURVE",
"788 763 CURVE SMOOTH",
"420 -317 LINE SMOOTH",
"394 -396 OFFCURVE",
"370 -444 OFFCURVE",
"337 -477 CURVE SMOOTH",
"299 -519 OFFCURVE",
"255 -541 OFFCURVE",
"205 -541 CURVE SMOOTH",
"121 -541 OFFCURVE",
"59 -486 OFFCURVE",
"59 -414 CURVE SMOOTH {name = hr01;}",
"59 -354 OFFCURVE",
"97 -317 OFFCURVE",
"154 -317 CURVE SMOOTH",
"268 -317 OFFCURVE",
"220 -460 OFFCURVE",
"290 -460 CURVE SMOOTH",
"330 -460 OFFCURVE",
"359 -411 OFFCURVE",
"396 -301 CURVE SMOOTH",
"482 -40 LINE",
"143 840 LINE SMOOTH",
"121 895 OFFCURVE",
"97 909 OFFCURVE",
"-4 915 CURVE",
"-4 933 LINE",
"420 933 LINE",
"420 915 LINE",
"315 909 OFFCURVE",
"295 902 OFFCURVE",
"295 878 CURVE SMOOTH",
"295 867 OFFCURVE",
"299 851 OFFCURVE",
"310 821 CURVE SMOOTH",
"543 161 LINE",
"552 161 LINE"
);
}
);
width = 994;
}
);
leftKerningGroup = y;
rightKerningGroup = y;
unicode = 0079;
},
{
glyphname = z;
lastChange = "2018-10-29 19:59:31 +0000";
layers = (
{
anchors = (
{
name = bottom;
position = "{431, 0}";
},
{
name = top;
position = "{429, 1166}";
}
);
layerId = master01;
paths = (
{
closed = 1;
nodes = (
"768 884 LINE",
"218 33 LINE",
"627 33 LINE",
"642 73 LINE SMOOTH",
"673 156 OFFCURVE",
"702 249 OFFCURVE",
"726 341 CURVE",
"757 339 LINE",
"744 0 LINE",
"68 0 LINE",
"68 48 LINE",
"614 902 LINE",
"227 902 LINE",
"213 867 LINE SMOOTH",
"185 790 OFFCURVE",
"152 680 OFFCURVE",
"139 609 CURVE",
"106 612 LINE",
"125 933 LINE",
"768 933 LINE"
);
}
);
width = 854;
}
);
leftKerningGroup = z;
rightKerningGroup = z;
unicode = 007A;
},
{
glyphname = braceleft;
lastChange = "2018-10-29 19:59:31 +0000";
layers = (
{
layerId = master01;
paths = (
{
closed = 1;
nodes = (
"352 618 OFFCURVE",
"418 535 OFFCURVE",
"418 385 CURVE SMOOTH",
"418 222 OFFCURVE",
"341 55 OFFCURVE",
"341 -128 CURVE SMOOTH",
"341 -277 OFFCURVE",
"394 -352 OFFCURVE",
"497 -352 CURVE SMOOTH",
"526 -352 OFFCURVE",
"557 -348 OFFCURVE",
"605 -334 CURVE",
"612 -359 LINE",
"559 -374 OFFCURVE",
"506 -383 OFFCURVE",
"458 -383 CURVE SMOOTH",
"286 -383 OFFCURVE",
"185 -286 OFFCURVE",
"185 -119 CURVE SMOOTH",
"185 29 OFFCURVE",
"264 231 OFFCURVE",
"264 431 CURVE SMOOTH",
"264 594 OFFCURVE",
"211 649 OFFCURVE",
"53 649 CURVE",
"53 671 LINE",
"211 671 OFFCURVE",
"264 719 OFFCURVE",
"264 869 CURVE SMOOTH",
"264 1052 OFFCURVE",
"185 1230 OFFCURVE",
"185 1375 CURVE SMOOTH",
"185 1538 OFFCURVE",
"286 1637 OFFCURVE",
"458 1637 CURVE SMOOTH",
"506 1637 OFFCURVE",
"559 1628 OFFCURVE",
"612 1613 CURVE",
"605 1588 LINE",
"557 1602 OFFCURVE",
"526 1606 OFFCURVE",
"497 1606 CURVE SMOOTH",
"394 1606 OFFCURVE",
"341 1529 OFFCURVE",
"341 1384 CURVE SMOOTH",
"341 1208 OFFCURVE",
"418 1065 OFFCURVE",
"418 913 CURVE SMOOTH",
"418 774 OFFCURVE",
"354 700 OFFCURVE",
"205 664 CURVE",
"205 656 LINE"
);
}
);
width = 671;
}
);
unicode = 007B;
},
{
glyphname = bar;
lastChange = "2018-10-29 19:59:31 +0000";
layers = (
{
layerId = master01;
paths = (
{
closed = 1;
nodes = (
"253 -297 LINE",
"205 -297 LINE",
"205 1518 LINE",
"253 1518 LINE"
);
}
);
width = 458;
}
);
unicode = 007C;
},
{
glyphname = braceright;
lastChange = "2018-10-29 19:59:31 +0000";
layers = (
{
layerId = master01;
paths = (
{
closed = 1;
nodes = (
"317 700 OFFCURVE",
"253 774 OFFCURVE",
"253 913 CURVE SMOOTH",
"253 1065 OFFCURVE",
"330 1208 OFFCURVE",
"330 1384 CURVE SMOOTH",
"330 1529 OFFCURVE",
"277 1606 OFFCURVE",
"174 1606 CURVE SMOOTH",
"145 1606 OFFCURVE",
"112 1599 OFFCURVE",
"66 1588 CURVE",
"59 1613 LINE",
"112 1628 OFFCURVE",
"165 1637 OFFCURVE",
"213 1637 CURVE SMOOTH",
"385 1637 OFFCURVE",
"486 1538 OFFCURVE",
"486 1375 CURVE SMOOTH",
"486 1230 OFFCURVE",
"407 1052 OFFCURVE",
"407 869 CURVE SMOOTH",
"407 719 OFFCURVE",
"460 671 OFFCURVE",
"618 671 CURVE",
"618 649 LINE",
"460 649 OFFCURVE",
"407 594 OFFCURVE",
"407 431 CURVE SMOOTH",
"407 231 OFFCURVE",
"486 29 OFFCURVE",
"486 -119 CURVE SMOOTH",
"486 -286 OFFCURVE",
"385 -383 OFFCURVE",
"213 -383 CURVE SMOOTH",
"165 -383 OFFCURVE",
"112 -374 OFFCURVE",
"59 -359 CURVE",
"66 -334 LINE",
"112 -345 OFFCURVE",
"145 -352 OFFCURVE",
"174 -352 CURVE SMOOTH",
"277 -352 OFFCURVE",
"330 -277 OFFCURVE",
"330 -128 CURVE SMOOTH",
"330 55 OFFCURVE",
"253 222 OFFCURVE",
"253 385 CURVE SMOOTH",
"253 535 OFFCURVE",
"319 618 OFFCURVE",
"466 656 CURVE",
"466 664 LINE"
);
}
);
width = 671;
}
);
unicode = 007D;
},
{
glyphname = asciitilde;
lastChange = "2018-10-29 19:59:31 +0000";
layers = (
{
layerId = master01;
paths = (
{
closed = 1;
nodes = (
"167 614 OFFCURVE",
"229 689 OFFCURVE",
"321 689 CURVE SMOOTH",
"436 689 OFFCURVE",
"598 616 OFFCURVE",
"715 616 CURVE SMOOTH",
"768 616 OFFCURVE",
"796 645 OFFCURVE",
"807 695 CURVE",
"818 695 LINE",
"818 574 OFFCURVE",
"759 497 OFFCURVE",
"664 497 CURVE SMOOTH",
"543 497 OFFCURVE",
"389 576 OFFCURVE",
"268 576 CURVE SMOOTH",
"216 576 OFFCURVE",
"183 548 OFFCURVE",
"176 499 CURVE",
"167 499 LINE"
);
}
);
width = 977;
}
);
unicode = 007E;
},
{
glyphname = exclamdown;
lastChange = "2018-10-29 19:59:31 +0000";
layers = (
{
layerId = master01;
paths = (
{
closed = 1;
nodes = (
"211 409 OFFCURVE",
"200 187 OFFCURVE",
"185 2 CURVE SMOOTH",
"167 -216 OFFCURVE",
"147 -381 OFFCURVE",
"147 -440 CURVE SMOOTH",
"147 -504 OFFCURVE",
"176 -541 OFFCURVE",
"233 -541 CURVE SMOOTH",
"286 -541 OFFCURVE",
"319 -502 OFFCURVE",
"319 -433 CURVE SMOOTH",
"319 -376 OFFCURVE",
"304 -209 OFFCURVE",
"282 11 CURVE SMOOTH",
"262 194 OFFCURVE",
"257 411 OFFCURVE",
"244 651 CURVE",
"222 651 LINE"
);
},
{
closed = 1;
nodes = (
"339 1001 OFFCURVE",
"297 1047 OFFCURVE",
"233 1047 CURVE SMOOTH",
"169 1047 OFFCURVE",
"128 1001 OFFCURVE",
"128 942 CURVE SMOOTH",
"128 882 OFFCURVE",
"169 836 OFFCURVE",
"233 836 CURVE SMOOTH",
"297 836 OFFCURVE",
"339 882 OFFCURVE",
"339 942 CURVE SMOOTH"
);
}
);
width = 466;
}
);
unicode = 00A1;
},
{
glyphname = cent;
lastChange = "2018-10-29 19:59:31 +0000";
layers = (
{
layerId = master01;
paths = (
{
closed = 1;
nodes = (
"713 955 OFFCURVE",
"843 871 OFFCURVE",
"843 763 CURVE SMOOTH",
"843 713 OFFCURVE",
"812 680 OFFCURVE",
"761 680 CURVE SMOOTH",
"620 680 OFFCURVE",
"726 933 OFFCURVE",
"541 933 CURVE SMOOTH",
"381 933 OFFCURVE",
"262 746 OFFCURVE",
"262 488 CURVE SMOOTH",
"262 233 OFFCURVE",
"376 86 OFFCURVE",
"574 86 CURVE SMOOTH",
"684 86 OFFCURVE",
"768 130 OFFCURVE",
"840 224 CURVE SMOOTH",
"860 251 LINE",
"869 246 LINE",
"860 222 LINE SMOOTH",
"803 68 OFFCURVE",
"678 -22 OFFCURVE",
"517 -22 CURVE SMOOTH",
"282 -22 OFFCURVE",
"114 176 OFFCURVE",
"114 455 CURVE SMOOTH",
"114 746 OFFCURVE",
"295 955 OFFCURVE",
"550 955 CURVE SMOOTH {name = hr00;}"
);
},
{
closed = 1;
nodes = (
"552 -297 LINE",
"504 -297 LINE",
"504 1254 LINE",
"552 1254 LINE"
);
}
);
width = 961;
}
);
unicode = 00A2;
},
{
glyphname = sterling;
lastChange = "2018-10-29 19:59:31 +0000";
layers = (
{
layerId = master01;
paths = (
{
closed = 1;
nodes = (
"867 1525 OFFCURVE",
"840 1448 OFFCURVE",
"724 862 CURVE SMOOTH",
"638 438 OFFCURVE",
"634 425 OFFCURVE",
"532 209 CURVE",
"658 150 OFFCURVE",
"785 117 OFFCURVE",
"898 117 CURVE SMOOTH",
"1069 117 OFFCURVE",
"1179 191 OFFCURVE",
"1206 326 CURVE",
"1217 326 LINE",
"1217 119 OFFCURVE",
"1098 -18 OFFCURVE",
"913 -18 CURVE SMOOTH",
"779 -18 OFFCURVE",
"631 53 OFFCURVE",
"513 176 CURVE",
"414 31 OFFCURVE",
"341 -20 OFFCURVE",
"240 -20 CURVE SMOOTH",
"136 -20 OFFCURVE",
"70 35 OFFCURVE",
"70 121 CURVE SMOOTH",
"70 222 OFFCURVE",
"161 295 OFFCURVE",
"286 295 CURVE SMOOTH",
"321 295 OFFCURVE",
"361 290 OFFCURVE",
"414 277 CURVE",
"453 444 OFFCURVE",
"455 460 OFFCURVE",
"554 968 CURVE SMOOTH",
"629 1355 OFFCURVE",
"770 1553 OFFCURVE",
"970 1553 CURVE SMOOTH",
"1113 1553 OFFCURVE",
"1250 1454 OFFCURVE",
"1250 1353 CURVE SMOOTH",
"1250 1302 OFFCURVE",
"1217 1269 OFFCURVE",
"1170 1269 CURVE SMOOTH",
"1041 1269 OFFCURVE",
"1107 1525 OFFCURVE",
"957 1525 CURVE SMOOTH"
);
},
{
closed = 1;
nodes = (
"367 262 OFFCURVE",
"326 268 OFFCURVE",
"290 268 CURVE SMOOTH",
"180 268 OFFCURVE",
"101 207 OFFCURVE",
"101 121 CURVE SMOOTH",
"101 51 OFFCURVE",
"150 7 OFFCURVE",
"227 7 CURVE SMOOTH",
"315 7 OFFCURVE",
"363 70 OFFCURVE",
"409 249 CURVE"
);
},
{
closed = 1;
nodes = (
"321 779 LINE",
"1115 779 LINE",
"1104 730 LINE",
"310 730 LINE"
);
}
);
width = 1379;
}
);
unicode = 00A3;
},
{
glyphname = currency;
lastChange = "2018-10-29 19:59:31 +0000";
layers = (
{
layerId = master01;
paths = (
{
closed = 1;
nodes = (
"211 524 OFFCURVE",
"407 328 OFFCURVE",
"647 328 CURVE SMOOTH",
"887 328 OFFCURVE",
"1082 524 OFFCURVE",
"1082 763 CURVE SMOOTH",
"1082 1003 OFFCURVE",
"887 1199 OFFCURVE",
"647 1199 CURVE SMOOTH",
"407 1199 OFFCURVE",
"211 1003 OFFCURVE",
"211 763 CURVE SMOOTH"
);
},
{
closed = 1;
nodes = (
"253 979 OFFCURVE",
"429 1155 OFFCURVE",
"647 1155 CURVE SMOOTH",
"865 1155 OFFCURVE",
"1041 979 OFFCURVE",
"1041 763 CURVE SMOOTH",
"1041 546 OFFCURVE",
"865 370 OFFCURVE",
"647 370 CURVE SMOOTH",
"429 370 OFFCURVE",
"253 546 OFFCURVE",
"253 763 CURVE SMOOTH"
);
},
{
closed = 1;
nodes = (
"1096 1245 LINE",
"922 1071 LINE",
"957 1041 LINE",
"1129 1212 LINE"
);
},
{
closed = 1;
nodes = (
"200 284 LINE",
"363 447 LINE",
"337 486 LINE",
"167 317 LINE"
);
},
{
closed = 1;
nodes = (
"165 1212 LINE",
"339 1038 LINE",
"370 1074 LINE",
"198 1245 LINE"
);
},
{
closed = 1;
nodes = (
"1126 317 LINE",
"964 480 LINE",
"924 453 LINE",
"1093 284 LINE"
);
}
);
width = 1294;
}
);
unicode = 00A4;
},
{
glyphname = yen;
lastChange = "2018-10-29 19:59:31 +0000";
layers = (
{
layerId = master01;
paths = (
{
closed = 1;
nodes = (
"1049 1518 LINE",
"1518 1518 LINE",
"1518 1500 LINE",
"1395 1489 LINE SMOOTH",
"1320 1483 OFFCURVE",
"1307 1465 OFFCURVE",
"1276 1401 CURVE SMOOTH",
"829 469 LINE",
"790 469 LINE",
"246 1483 LINE",
"66 1500 LINE",
"66 1518 LINE",
"614 1518 LINE",
"614 1500 LINE",
"422 1483 LINE",
"869 649 LINE",
"880 649 LINE",
"1241 1401 LINE SMOOTH",
"1250 1421 OFFCURVE",
"1250 1432 OFFCURVE",
"1250 1443 CURVE SMOOTH",
"1250 1472 OFFCURVE",
"1232 1485 OFFCURVE",
"1184 1489 CURVE SMOOTH",
"1049 1500 LINE"
);
},
{
closed = 1;
nodes = (
"893 35 LINE",
"1085 18 LINE",
"1085 0 LINE",
"532 0 LINE",
"532 18 LINE",
"724 35 LINE",
"724 616 LINE",
"893 616 LINE"
);
},
{
closed = 1;
nodes = (
"414 649 LINE",
"1208 649 LINE",
"1197 601 LINE",
"403 601 LINE"
);
},
{
closed = 1;
nodes = (
"414 392 LINE",
"1208 392 LINE",
"1197 343 LINE",
"403 343 LINE"
);
}
);
width = 1586;
}
);
unicode = 00A5;
},
{
glyphname = brokenbar;
lastChange = "2018-10-29 19:59:31 +0000";
layers = (
{
layerId = master01;
paths = (
{
closed = 1;
nodes = (
"255 724 LINE",
"207 724 LINE",
"207 1518 LINE",
"255 1518 LINE"
);
},
{
closed = 1;
nodes = (
"255 -297 LINE",
"207 -297 LINE",
"207 497 LINE",
"255 497 LINE"
);
}
);
width = 462;
}
);
unicode = 00A6;
},
{
glyphname = section;
lastChange = "2018-10-29 19:59:31 +0000";
layers = (
{
layerId = master01;
paths = (
{
closed = 1;
nodes = (
"741 1615 OFFCURVE",
"924 1511 OFFCURVE",
"924 1406 CURVE SMOOTH",
"924 1362 OFFCURVE",
"889 1329 OFFCURVE",
"847 1329 CURVE SMOOTH",
"726 1329 OFFCURVE",
"748 1588 OFFCURVE",
"530 1588 CURVE SMOOTH",
"403 1588 OFFCURVE",
"321 1498 OFFCURVE",
"321 1366 CURVE SMOOTH",
"321 1016 OFFCURVE",
"968 1071 OFFCURVE",
"968 664 CURVE SMOOTH",
"968 444 OFFCURVE",
"772 268 OFFCURVE",
"532 268 CURVE",
"539 277 LINE",
"711 277 OFFCURVE",
"829 394 OFFCURVE",
"829 559 CURVE SMOOTH",
"829 937 OFFCURVE",
"176 849 OFFCURVE",
"176 1267 CURVE SMOOTH",
"176 1470 OFFCURVE",
"339 1615 OFFCURVE",
"554 1615 CURVE SMOOTH"
);
},
{
closed = 1;
nodes = (
"312 -337 OFFCURVE",
"128 -233 OFFCURVE",
"128 -128 CURVE SMOOTH",
"128 -84 OFFCURVE",
"163 -51 OFFCURVE",
"205 -51 CURVE SMOOTH",
"328 -51 OFFCURVE",
"297 -310 OFFCURVE",
"528 -310 CURVE SMOOTH",
"673 -310 OFFCURVE",
"777 -205 OFFCURVE",
"777 -51 CURVE SMOOTH",
"777 330 OFFCURVE",
"123 235 OFFCURVE",
"123 638 CURVE SMOOTH",
"123 843 OFFCURVE",
"301 988 OFFCURVE",
"543 988 CURVE",
"517 961 LINE",
"370 961 OFFCURVE",
"266 869 OFFCURVE",
"266 735 CURVE SMOOTH",
"266 405 OFFCURVE",
"915 455 OFFCURVE",
"915 53 CURVE SMOOTH",
"915 -167 OFFCURVE",
"735 -337 OFFCURVE",
"506 -337 CURVE SMOOTH"
);
}
);
width = 1080;
}
);
unicode = 00A7;
},
{
glyphname = dieresis;
lastChange = "2018-10-29 19:59:31 +0000";
layers = (
{
anchors = (
{
name = _top;
position = "{376, 1166}";
}
);
layerId = master01;
paths = (
{
closed = 1;
nodes = (
"99 1208 OFFCURVE",
"136 1166 OFFCURVE",
"194 1166 CURVE SMOOTH",
"251 1166 OFFCURVE",
"288 1208 OFFCURVE",
"288 1261 CURVE SMOOTH",
"288 1313 OFFCURVE",
"251 1355 OFFCURVE",
"194 1355 CURVE SMOOTH",
"136 1355 OFFCURVE",
"99 1313 OFFCURVE",
"99 1261 CURVE SMOOTH"
);
},
{
closed = 1;
nodes = (
"466 1208 OFFCURVE",
"504 1166 OFFCURVE",
"561 1166 CURVE SMOOTH",
"618 1166 OFFCURVE",
"656 1208 OFFCURVE",
"656 1261 CURVE SMOOTH",
"656 1313 OFFCURVE",
"618 1355 OFFCURVE",
"561 1355 CURVE SMOOTH",
"504 1355 OFFCURVE",
"466 1313 OFFCURVE",
"466 1261 CURVE SMOOTH"
);
}
);
width = 755;
}
);
unicode = 00A8;
},
{
glyphname = copyright;
lastChange = "2018-10-29 19:59:31 +0000";
layers = (
{
layerId = master01;
paths = (
{
closed = 1;
nodes = (
"1175 411 OFFCURVE",
"1206 506 OFFCURVE",
"1225 590 CURVE",
"1250 587 LINE",
"1250 244 LINE",
"1225 244 LINE",
"1175 326 LINE",
"1087 262 OFFCURVE",
"977 220 OFFCURVE",
"878 220 CURVE SMOOTH",
"609 220 OFFCURVE",
"398 455 OFFCURVE",
"398 759 CURVE SMOOTH",
"398 1060 OFFCURVE",
"609 1298 OFFCURVE",
"873 1298 CURVE SMOOTH",
"964 1298 OFFCURVE",
"1054 1272 OFFCURVE",
"1170 1208 CURVE",
"1206 1280 LINE",
"1230 1280 LINE",
"1245 944 LINE",
"1219 937 LINE",
"1206 1012 OFFCURVE",
"1184 1078 OFFCURVE",
"1153 1129 CURVE SMOOTH",
"1093 1221 OFFCURVE",
"994 1272 OFFCURVE",
"878 1272 CURVE SMOOTH",
"673 1272 OFFCURVE",
"559 1085 OFFCURVE",
"559 759 CURVE SMOOTH",
"559 436 OFFCURVE",
"675 249 OFFCURVE",
"878 249 CURVE SMOOTH",
"968 249 OFFCURVE",
"1058 288 OFFCURVE",
"1115 345 CURVE SMOOTH"
);
},
{
closed = 1;
nodes = (
"117 332 OFFCURVE",
"464 -22 OFFCURVE",
"889 -22 CURVE SMOOTH",
"1313 -22 OFFCURVE",
"1661 332 OFFCURVE",
"1661 757 CURVE SMOOTH",
"1661 1181 OFFCURVE",
"1313 1540 OFFCURVE",
"889 1540 CURVE SMOOTH",
"464 1540 OFFCURVE",
"117 1181 OFFCURVE",
"117 757 CURVE SMOOTH"
);
},
{
closed = 1;
nodes = (
"152 1164 OFFCURVE",
"477 1505 OFFCURVE",
"889 1505 CURVE SMOOTH",
"1294 1505 OFFCURVE",
"1626 1164 OFFCURVE",
"1626 757 CURVE SMOOTH",
"1626 345 OFFCURVE",
"1294 13 OFFCURVE",
"889 13 CURVE SMOOTH",
"477 13 OFFCURVE",
"152 345 OFFCURVE",
"152 757 CURVE SMOOTH"
);
}
);
width = 1778;
}
);
unicode = 00A9;
},
{
glyphname = ordfeminine;
lastChange = "2018-10-29 19:59:31 +0000";
layers = (
{
layerId = master01;
paths = (
{
closed = 1;
nodes = (
"319 1166 OFFCURVE",
"381 1206 OFFCURVE",
"422 1261 CURVE",
"429 1258 LINE",
"433 1208 OFFCURVE",
"475 1173 OFFCURVE",
"530 1173 CURVE SMOOTH {name = hr01;}",
"581 1173 OFFCURVE",
"623 1201 OFFCURVE",
"647 1247 CURVE",
"636 1258 LINE",
"627 1245 OFFCURVE",
"618 1234 OFFCURVE",
"598 1234 CURVE SMOOTH",
"563 1234 OFFCURVE",
"552 1265 OFFCURVE",
"552 1322 CURVE SMOOTH",
"552 1610 LINE SMOOTH",
"552 1720 OFFCURVE",
"552 1742 OFFCURVE",
"541 1769 CURVE SMOOTH",
"526 1802 OFFCURVE",
"473 1835 OFFCURVE",
"409 1835 CURVE SMOOTH",
"356 1835 OFFCURVE",
"293 1813 OFFCURVE",
"260 1795 CURVE SMOOTH",
"189 1758 OFFCURVE",
"134 1694 OFFCURVE",
"134 1643 CURVE SMOOTH",
"134 1615 OFFCURVE",
"154 1591 OFFCURVE",
"185 1591 CURVE SMOOTH",
"220 1591 OFFCURVE",
"242 1624 OFFCURVE",
"242 1670 CURVE SMOOTH",
"242 1690 OFFCURVE",
"238 1698 OFFCURVE",
"238 1714 CURVE SMOOTH",
"238 1764 OFFCURVE",
"286 1795 OFFCURVE",
"341 1795 CURVE SMOOTH",
"400 1795 OFFCURVE",
"420 1760 OFFCURVE",
"420 1648 CURVE SMOOTH",
"420 1516 LINE",
"191 1467 OFFCURVE",
"106 1412 OFFCURVE",
"106 1313 CURVE SMOOTH",
"106 1221 OFFCURVE",
"178 1166 OFFCURVE",
"255 1166 CURVE SMOOTH"
);
},
{
closed = 1;
nodes = (
"271 1232 OFFCURVE",
"242 1278 OFFCURVE",
"242 1342 CURVE SMOOTH",
"242 1419 OFFCURVE",
"284 1454 OFFCURVE",
"420 1494 CURVE",
"420 1296 LINE",
"400 1250 OFFCURVE",
"361 1232 OFFCURVE",
"326 1232 CURVE SMOOTH"
);
}
);
width = 735;
}
);
unicode = 00AA;
},
{
glyphname = guillemotleft;
lastChange = "2018-10-29 19:59:31 +0000";
layers = (
{
layerId = master01;
paths = (
{
closed = 1;
nodes = (
"108 455 LINE",
"108 466 LINE",
"431 858 LINE",
"438 854 LINE",
"246 462 LINE",
"444 66 LINE",
"436 59 LINE"
);
},
{
closed = 1;
nodes = (
"367 455 LINE",
"367 466 LINE",
"691 858 LINE",
"697 854 LINE",
"506 462 LINE",
"704 66 LINE",
"695 59 LINE"
);
}
);
width = 821;
}
);
leftKerningGroup = guilsinglleft;
rightKerningGroup = guilsinglleft;
unicode = 00AB;
},
{
glyphname = logicalnot;
lastChange = "2018-10-29 19:59:31 +0000";
layers = (
{
layerId = master01;
paths = (
{
closed = 1;
nodes = (
"851 814 LINE",
"851 766 LINE",
"169 766 LINE",
"169 814 LINE"
);
},
{
closed = 1;
nodes = (
"851 477 LINE",
"803 477 LINE",
"803 774 LINE",
"851 774 LINE"
);
}
);
width = 1010;
}
);
unicode = 00AC;
},
{
glyphname = uni00AD;
lastChange = "2018-10-29 19:59:31 +0000";
layers = (
{
layerId = master01;
paths = (
{
closed = 1;
nodes = (
"642 524 LINE",
"627 475 LINE",
"143 475 LINE",
"158 524 LINE"
);
}
);
width = 783;
}
);
leftKerningGroup = hyphen;
rightKerningGroup = hyphen;
unicode = 00AD;
},
{
glyphname = registered;
lastChange = "2018-10-29 19:59:31 +0000";
layers = (
{
layerId = master01;
paths = (
{
closed = 1;
nodes = (
"117 332 OFFCURVE",
"464 -22 OFFCURVE",
"889 -22 CURVE SMOOTH",
"1313 -22 OFFCURVE",
"1661 332 OFFCURVE",
"1661 757 CURVE SMOOTH",
"1661 1181 OFFCURVE",
"1313 1540 OFFCURVE",
"889 1540 CURVE SMOOTH",
"464 1540 OFFCURVE",
"117 1181 OFFCURVE",
"117 757 CURVE SMOOTH"
);
},
{
closed = 1;
nodes = (
"152 1164 OFFCURVE",
"477 1505 OFFCURVE",
"889 1505 CURVE SMOOTH",
"1294 1505 OFFCURVE",
"1626 1164 OFFCURVE",
"1626 757 CURVE SMOOTH",
"1626 345 OFFCURVE",
"1294 13 OFFCURVE",
"889 13 CURVE SMOOTH",
"477 13 OFFCURVE",
"152 345 OFFCURVE",
"152 757 CURVE SMOOTH"
);
},
{
closed = 1;
nodes = (
"975 739 LINE",
"1252 304 LINE SMOOTH",
"1278 262 OFFCURVE",
"1298 253 OFFCURVE",
"1346 253 CURVE SMOOTH",
"1368 253 LINE",
"1368 235 LINE",
"1192 235 LINE SMOOTH",
"1144 235 OFFCURVE",
"1124 246 OFFCURVE",
"1100 288 CURVE SMOOTH",
"867 662 LINE SMOOTH",
"838 708 OFFCURVE",
"829 715 OFFCURVE",
"779 715 CURVE SMOOTH",
"656 715 LINE",
"656 739 LINE"
);
},
{
closed = 1;
nodes = (
"598 1256 LINE",
"488 1267 LINE",
"488 1285 LINE",
"730 1285 LINE",
"730 264 LINE",
"862 253 LINE",
"862 235 LINE",
"488 235 LINE",
"488 253 LINE",
"598 264 LINE"
);
},
{
closed = 1;
nodes = (
"873 1285 LINE SMOOTH",
"1113 1285 OFFCURVE",
"1243 1186 OFFCURVE",
"1243 1003 CURVE SMOOTH",
"1243 821 OFFCURVE",
"1111 719 OFFCURVE",
"873 719 CURVE SMOOTH",
"680 719 LINE",
"680 741 LINE",
"869 741 LINE SMOOTH",
"1032 741 OFFCURVE",
"1109 823 OFFCURVE",
"1109 1001 CURVE SMOOTH",
"1109 1179 OFFCURVE",
"1030 1263 OFFCURVE",
"869 1263 CURVE SMOOTH",
"680 1263 LINE",
"680 1285 LINE"
);
}
);
width = 1778;
}
);
unicode = 00AE;
},
{
glyphname = macron;
lastChange = "2018-10-29 19:59:31 +0000";
layers = (
{
anchors = (
{
name = _top;
position = "{319, 1166}";
}
);
layerId = master01;
paths = (
{
closed = 1;
nodes = (
"539 1265 LINE",
"539 1217 LINE",
"99 1217 LINE",
"99 1265 LINE"
);
}
);
width = 638;
}
);
unicode = 00AF;
},
{
glyphname = degree;
lastChange = "2018-10-29 19:59:31 +0000";
layers = (
{
layerId = master01;
paths = (
{
closed = 1;
nodes = (
"99 1720 OFFCURVE",
"216 1841 OFFCURVE",
"376 1841 CURVE SMOOTH",
"537 1841 OFFCURVE",
"649 1725 OFFCURVE",
"649 1560 CURVE SMOOTH",
"649 1397 OFFCURVE",
"539 1278 OFFCURVE",
"374 1278 CURVE SMOOTH",
"209 1278 OFFCURVE",
"99 1399 OFFCURVE",
"99 1558 CURVE SMOOTH"
);
},
{
closed = 1;
nodes = (
"139 1423 OFFCURVE",
"238 1318 OFFCURVE",
"374 1318 CURVE SMOOTH",
"508 1318 OFFCURVE",
"607 1423 OFFCURVE",
"607 1560 CURVE SMOOTH",
"607 1696 OFFCURVE",
"508 1800 OFFCURVE",
"374 1800 CURVE SMOOTH",
"238 1800 OFFCURVE",
"139 1696 OFFCURVE",
"139 1560 CURVE SMOOTH"
);
}
);
width = 750;
}
);
unicode = 00B0;
},
{
glyphname = twosuperior;
lastChange = "2018-10-29 19:59:31 +0000";
layers = (
{
layerId = master01;
paths = (
{
closed = 1;
nodes = (
"513 1393 LINE",
"497 1395 LINE",
"482 1333 LINE SMOOTH",
"473 1298 OFFCURVE",
"460 1289 OFFCURVE",
"418 1289 CURVE SMOOTH",
"189 1289 LINE",
"275 1375 LINE SMOOTH",
"460 1560 OFFCURVE",
"495 1610 OFFCURVE",
"495 1687 CURVE SMOOTH",
"495 1800 OFFCURVE",
"403 1879 OFFCURVE",
"273 1879 CURVE SMOOTH",
"187 1879 OFFCURVE",
"108 1822 OFFCURVE",
"73 1736 CURVE",
"90 1727 LINE",
"121 1791 OFFCURVE",
"172 1824 OFFCURVE",
"231 1824 CURVE SMOOTH",
"312 1824 OFFCURVE",
"359 1767 OFFCURVE",
"359 1665 CURVE SMOOTH",
"359 1544 OFFCURVE",
"293 1423 OFFCURVE",
"156 1289 CURVE SMOOTH",
"53 1188 LINE",
"55 1179 LINE",
"486 1179 LINE"
);
}
);
width = 587;
}
);
unicode = 00B2;
},
{
glyphname = threesuperior;
lastChange = "2018-10-29 19:59:31 +0000";
layers = (
{
layerId = master01;
paths = (
{
closed = 1;
nodes = (
"200 1525 OFFCURVE",
"224 1529 OFFCURVE",
"242 1529 CURVE SMOOTH",
"317 1529 OFFCURVE",
"370 1456 OFFCURVE",
"370 1349 CURVE SMOOTH",
"370 1245 OFFCURVE",
"323 1188 OFFCURVE",
"238 1188 CURVE SMOOTH",
"200 1188 OFFCURVE",
"189 1201 OFFCURVE",
"169 1258 CURVE SMOOTH",
"141 1324 OFFCURVE",
"132 1338 OFFCURVE",
"106 1338 CURVE SMOOTH",
"79 1338 OFFCURVE",
"62 1320 OFFCURVE",
"62 1289 CURVE SMOOTH",
"62 1221 OFFCURVE",
"143 1166 OFFCURVE",
"244 1166 CURVE SMOOTH",
"383 1166 OFFCURVE",
"493 1265 OFFCURVE",
"493 1386 CURVE SMOOTH",
"493 1489 OFFCURVE",
"414 1571 OFFCURVE",
"308 1573 CURVE",
"308 1582 LINE",
"392 1613 OFFCURVE",
"447 1683 OFFCURVE",
"447 1753 CURVE SMOOTH",
"447 1828 OFFCURVE",
"389 1881 OFFCURVE",
"312 1881 CURVE SMOOTH",
"205 1881 OFFCURVE",
"128 1828 OFFCURVE",
"88 1727 CURVE",
"106 1718 LINE",
"136 1789 OFFCURVE",
"180 1826 OFFCURVE",
"235 1826 CURVE SMOOTH",
"293 1826 OFFCURVE",
"326 1786 OFFCURVE",
"326 1723 CURVE SMOOTH",
"326 1641 OFFCURVE",
"275 1577 OFFCURVE",
"176 1538 CURVE",
"185 1520 LINE"
);
}
);
width = 563;
}
);
unicode = 00B3;
},
{
glyphname = acute;
lastChange = "2018-10-29 19:59:31 +0000";
layers = (
{
anchors = (
{
name = _top;
position = "{213, 1166}";
}
);
layerId = master01;
paths = (
{
closed = 1;
nodes = (
"209 1507 OFFCURVE",
"233 1520 OFFCURVE",
"266 1520 CURVE SMOOTH",
"306 1520 OFFCURVE",
"328 1489 OFFCURVE",
"328 1452 CURVE SMOOTH",
"328 1423 OFFCURVE",
"306 1404 OFFCURVE",
"249 1331 CURVE SMOOTH",
"106 1151 LINE",
"99 1153 LINE",
"198 1474 LINE"
);
}
);
width = 427;
}
);
unicode = 00B4;
},
{
glyphname = mu;
lastChange = "2018-10-29 19:59:31 +0000";
layers = (
{
layerId = master01;
paths = (
{
closed = 1;
nodes = (
"722 154 LINE",
"726 141 LINE",
"733 139 LINE",
"733 -11 LINE",
"746 -11 LINE",
"986 99 LINE",
"986 110 LINE",
"865 136 LINE",
"865 933 LINE",
"590 933 LINE",
"590 915 LINE",
"722 898 LINE {name = hr00;}"
);
},
{
closed = 1;
nodes = (
"293 26 OFFCURVE",
"356 -22 OFFCURVE",
"449 -22 CURVE SMOOTH",
"548 -22 OFFCURVE",
"640 33 OFFCURVE",
"726 141 CURVE",
"726 176 LINE",
"671 101 OFFCURVE",
"598 62 OFFCURVE",
"524 62 CURVE SMOOTH",
"460 62 OFFCURVE",
"414 88 OFFCURVE",
"389 139 CURVE SMOOTH",
"372 174 OFFCURVE",
"367 216 OFFCURVE",
"367 337 CURVE SMOOTH",
"367 933 LINE",
"92 933 LINE",
"92 915 LINE",
"224 898 LINE",
"224 337 LINE SMOOTH",
"224 81 OFFCURVE",
"191 -253 OFFCURVE",
"191 -356 CURVE SMOOTH",
"191 -440 OFFCURVE",
"209 -475 OFFCURVE",
"253 -475 CURVE SMOOTH",
"295 -475 OFFCURVE",
"319 -444 OFFCURVE",
"319 -396 CURVE SMOOTH",
"319 -321 OFFCURVE",
"249 -220 OFFCURVE",
"249 108 CURVE",
"260 112 LINE"
);
}
);
width = 1080;
}
);
unicode = 00B5;
},
{
glyphname = paragraph;
lastChange = "2018-10-29 19:59:31 +0000";
layers = (
{
layerId = master01;
paths = (
{
closed = 1;
nodes = (
"649 1487 LINE",
"737 1487 LINE",
"737 -238 LINE",
"785 -238 LINE",
"785 1483 LINE",
"953 1498 LINE",
"953 1518 LINE",
"539 1518 LINE SMOOTH",
"251 1518 OFFCURVE",
"75 1349 OFFCURVE",
"75 1085 CURVE SMOOTH",
"75 854 OFFCURVE",
"235 658 OFFCURVE",
"488 658 CURVE SMOOTH",
"601 658 LINE",
"601 -238 LINE",
"649 -238 LINE"
);
}
);
width = 1041;
}
);
unicode = 00B6;
},
{
glyphname = periodcentered;
lastChange = "2018-10-29 19:59:31 +0000";
layers = (
{
layerId = master01;
paths = (
{
closed = 1;
nodes = (
"143 460 OFFCURVE",
"189 409 OFFCURVE",
"257 409 CURVE SMOOTH",
"326 409 OFFCURVE",
"370 460 OFFCURVE",
"370 524 CURVE SMOOTH",
"370 587 OFFCURVE",
"326 636 OFFCURVE",
"257 636 CURVE SMOOTH",
"189 636 OFFCURVE",
"143 587 OFFCURVE",
"143 524 CURVE SMOOTH"
);
}
);
width = 513;
}
);
unicode = 00B7;
},
{
glyphname = cedilla;
lastChange = "2018-10-29 19:59:31 +0000";
layers = (
{
anchors = (
{
name = _bottom;
position = "{297, 0}";
}
);
layerId = master01;
paths = (
{
closed = 1;
nodes = (
"132 -458 OFFCURVE",
"174 -466 OFFCURVE",
"213 -466 CURVE SMOOTH",
"306 -466 OFFCURVE",
"367 -427 OFFCURVE",
"367 -365 CURVE SMOOTH",
"367 -308 OFFCURVE",
"319 -273 OFFCURVE",
"242 -273 CURVE SMOOTH",
"211 -273 OFFCURVE",
"180 -277 OFFCURVE",
"158 -286 CURVE",
"152 -279 LINE",
"273 2 LINE",
"299 2 LINE",
"229 -163 LINE",
"249 -158 OFFCURVE",
"260 -158 OFFCURVE",
"288 -158 CURVE SMOOTH",
"411 -158 OFFCURVE",
"497 -224 OFFCURVE",
"497 -317 CURVE SMOOTH",
"497 -420 OFFCURVE",
"396 -497 OFFCURVE",
"260 -497 CURVE SMOOTH",
"191 -497 OFFCURVE",
"132 -480 OFFCURVE",
"99 -451 CURVE",
"103 -444 LINE"
);
}
);
width = 596;
}
);
unicode = 00B8;
},
{
glyphname = onesuperior;
lastChange = "2018-10-29 19:59:31 +0000";
layers = (
{
layerId = master01;
paths = (
{
closed = 1;
nodes = (
"64 1773 LINE",
"64 1784 LINE",
"169 1795 OFFCURVE",
"218 1824 OFFCURVE",
"268 1888 CURVE",
"279 1885 LINE",
"279 1206 LINE",
"370 1197 LINE",
"370 1179 LINE",
"64 1179 LINE",
"64 1197 LINE",
"165 1206 LINE",
"165 1773 LINE"
);
}
);
width = 420;
}
);
unicode = 00B9;
},
{
glyphname = ordmasculine;
lastChange = "2018-10-29 19:59:31 +0000";
layers = (
{
layerId = master01;
paths = (
{
closed = 1;
nodes = (
"222 1835 OFFCURVE",
"99 1698 OFFCURVE",
"99 1500 CURVE SMOOTH",
"99 1300 OFFCURVE",
"222 1164 OFFCURVE",
"398 1164 CURVE SMOOTH",
"574 1164 OFFCURVE",
"697 1300 OFFCURVE",
"697 1500 CURVE SMOOTH",
"697 1698 OFFCURVE",
"574 1835 OFFCURVE",
"398 1835 CURVE SMOOTH {name = hr00;}"
);
},
{
closed = 1;
nodes = (
"233 1698 OFFCURVE",
"293 1813 OFFCURVE",
"398 1813 CURVE SMOOTH",
"502 1813 OFFCURVE",
"563 1698 OFFCURVE",
"563 1500 CURVE SMOOTH",
"563 1302 OFFCURVE",
"502 1186 OFFCURVE",
"398 1186 CURVE SMOOTH",
"293 1186 OFFCURVE",
"233 1302 OFFCURVE",
"233 1500 CURVE SMOOTH"
);
}
);
width = 796;
}
);
unicode = 00BA;
},
{
glyphname = guillemotright;
lastChange = "2018-10-29 19:59:31 +0000";
layers = (
{
layerId = master01;
paths = (
{
closed = 1;
nodes = (
"574 462 LINE",
"383 854 LINE",
"389 858 LINE",
"713 466 LINE",
"713 455 LINE",
"385 59 LINE",
"376 66 LINE"
);
},
{
closed = 1;
nodes = (
"315 462 LINE",
"123 854 LINE",
"130 858 LINE",
"453 466 LINE",
"453 455 LINE",
"125 59 LINE",
"117 66 LINE"
);
}
);
width = 821;
}
);
leftKerningGroup = guilsinglright;
rightKerningGroup = guilsinglright;
unicode = 00BB;
},
{
glyphname = questiondown;
lastChange = "2018-10-29 19:59:31 +0000";
layers = (
{
layerId = master01;
paths = (
{
closed = 1;
nodes = (
"570 141 LINE",
"510 141 LINE SMOOTH",
"242 141 OFFCURVE",
"123 86 OFFCURVE",
"123 -42 CURVE SMOOTH",
"123 -301 OFFCURVE",
"627 -286 OFFCURVE",
"627 -471 CURVE SMOOTH",
"627 -517 OFFCURVE",
"594 -541 OFFCURVE",
"530 -541 CURVE SMOOTH",
"317 -541 OFFCURVE",
"92 -275 OFFCURVE",
"92 -20 CURVE SMOOTH",
"92 180 OFFCURVE",
"229 306 OFFCURVE",
"455 315 CURVE SMOOTH",
"513 317 LINE",
"530 651 LINE",
"552 651 LINE"
);
},
{
closed = 1;
nodes = (
"656 1003 OFFCURVE",
"612 1047 OFFCURVE",
"550 1047 CURVE SMOOTH",
"488 1047 OFFCURVE",
"444 1003 OFFCURVE",
"444 942 CURVE SMOOTH",
"444 880 OFFCURVE",
"488 836 OFFCURVE",
"550 836 CURVE SMOOTH",
"612 836 OFFCURVE",
"656 880 OFFCURVE",
"656 942 CURVE"
);
}
);
width = 774;
}
);
unicode = 00BF;
},
{
glyphname = AE;
lastChange = "2018-10-29 19:59:31 +0000";
layers = (
{
layerId = master01;
paths = (
{
closed = 1;
nodes = (
"378 0 LINE",
"-88 0 LINE",
"-84 18 LINE",
"42 29 LINE SMOOTH",
"117 35 OFFCURVE",
"141 51 OFFCURVE",
"180 117 CURVE SMOOTH",
"992 1500 LINE",
"1032 1500 LINE",
"922 1309 LINE",
"913 1309 LINE",
"216 117 LINE SMOOTH",
"200 92 OFFCURVE",
"196 77 OFFCURVE",
"196 64 CURVE SMOOTH",
"196 40 OFFCURVE",
"213 33 OFFCURVE",
"251 29 CURVE SMOOTH",
"383 18 LINE"
);
},
{
closed = 1;
nodes = (
"1080 638 LINE",
"1074 603 LINE",
"486 603 LINE",
"493 638 LINE"
);
},
{
closed = 1;
nodes = (
"1091 26 LINE",
"1452 26 LINE SMOOTH",
"1522 26 OFFCURVE",
"1547 42 OFFCURVE",
"1573 108 CURVE SMOOTH",
"1718 464 LINE",
"1742 462 LINE",
"1687 0 LINE",
"741 0 LINE",
"741 18 LINE",
"922 35 LINE",
"922 1483 LINE",
"741 1500 LINE",
"741 1518 LINE",
"1690 1518 LINE",
"1720 1104 LINE",
"1698 1102 LINE",
"1575 1410 LINE SMOOTH",
"1549 1476 OFFCURVE",
"1527 1492 OFFCURVE",
"1456 1492 CURVE SMOOTH",
"1091 1492 LINE"
);
},
{
closed = 1;
nodes = (
"1357 816 OFFCURVE",
"1379 834 OFFCURVE",
"1393 902 CURVE SMOOTH",
"1430 1080 LINE",
"1456 1080 LINE",
"1456 517 LINE",
"1430 517 LINE",
"1393 695 LINE SMOOTH",
"1379 763 OFFCURVE",
"1357 781 OFFCURVE",
"1287 781 CURVE SMOOTH",
"1074 781 LINE",
"1074 816 LINE",
"1287 816 LINE SMOOTH"
);
}
);
width = 1872;
}
);
leftKerningGroup = AE;
rightKerningGroup = E;
unicode = 00C6;
},
{
glyphname = Eth;
lastChange = "2018-10-29 19:59:31 +0000";
layers = (
{
components = (
{
name = D;
transform = "{1, 0, 0, 1, 24, 0}";
}
);
layerId = master01;
paths = (
{
closed = 1;
nodes = (
"737 799 LINE",
"737 750 LINE",
"112 750 LINE",
"112 799 LINE"
);
}
);
width = 1573;
}
);
leftKerningGroup = I;
rightKerningGroup = D;
unicode = 00D0;
},
{
glyphname = multiply;
lastChange = "2018-10-29 19:59:31 +0000";
layers = (
{
layerId = master01;
paths = (
{
closed = 1;
nodes = (
"838 466 LINE",
"805 436 LINE",
"189 1052 LINE",
"222 1082 LINE"
);
},
{
closed = 1;
nodes = (
"220 436 LINE",
"187 466 LINE",
"803 1082 LINE",
"836 1052 LINE"
);
}
);
width = 1025;
}
);
unicode = 00D7;
},
{
glyphname = Oslash;
lastChange = "2018-10-29 19:59:31 +0000";
layers = (
{
layerId = master01;
paths = (
{
closed = 1;
nodes = (
"361 -165 LINE",
"310 -165 LINE",
"1234 1650 LINE",
"1285 1650 LINE"
);
},
{
closed = 1;
nodes = (
"1197 1553 OFFCURVE",
"1500 1206 OFFCURVE",
"1500 759 CURVE SMOOTH",
"1500 312 OFFCURVE",
"1197 -35 OFFCURVE",
"807 -35 CURVE SMOOTH",
"418 -35 OFFCURVE",
"114 312 OFFCURVE",
"114 759 CURVE SMOOTH",
"114 1206 OFFCURVE",
"418 1553 OFFCURVE",
"807 1553 CURVE SMOOTH"
);
},
{
closed = 1;
nodes = (
"326 271 OFFCURVE",
"499 -7 OFFCURVE",
"807 -7 CURVE SMOOTH",
"1115 -7 OFFCURVE",
"1289 271 OFFCURVE",
"1289 759 CURVE SMOOTH",
"1289 1250 OFFCURVE",
"1115 1527 OFFCURVE",
"807 1527 CURVE SMOOTH",
"499 1527 OFFCURVE",
"326 1250 OFFCURVE",
"326 759 CURVE SMOOTH"
);
}
);
width = 1615;
}
);
leftKerningGroup = O;
rightKerningGroup = O;
unicode = 00D8;
},
{
glyphname = Thorn;
lastChange = "2018-10-29 19:59:31 +0000";
layers = (
{
layerId = master01;
paths = (
{
closed = 1;
nodes = (
"645 1208 LINE SMOOTH",
"990 1208 OFFCURVE",
"1177 1054 OFFCURVE",
"1177 788 CURVE SMOOTH",
"1177 502 OFFCURVE",
"990 350 OFFCURVE",
"645 350 CURVE SMOOTH",
"363 350 LINE",
"363 376 LINE",
"638 376 LINE SMOOTH",
"876 376 OFFCURVE",
"979 506 OFFCURVE",
"979 799 CURVE SMOOTH",
"979 1014 OFFCURVE",
"915 1181 OFFCURVE",
"638 1181 CURVE SMOOTH",
"363 1181 LINE",
"363 1208 LINE"
);
},
{
closed = 1;
nodes = (
"268 1483 LINE",
"88 1500 LINE",
"88 1518 LINE",
"653 1518 LINE",
"653 1500 LINE",
"438 1483 LINE",
"438 35 LINE",
"653 18 LINE",
"653 0 LINE",
"88 0 LINE",
"88 18 LINE",
"268 35 LINE"
);
}
);
width = 1256;
}
);
leftKerningGroup = I;
unicode = 00DE;
},
{
glyphname = germandbls;
lastChange = "2018-10-29 19:59:31 +0000";
layers = (
{
layerId = master01;
paths = (
{
closed = 1;
nodes = (
"400 1613 OFFCURVE",
"286 1551 OFFCURVE",
"222 1443 CURVE SMOOTH",
"178 1366 OFFCURVE",
"169 1298 OFFCURVE",
"169 1001 CURVE SMOOTH",
"169 35 LINE",
"35 18 LINE",
"35 0 LINE",
"312 0 LINE",
"312 1232 LINE SMOOTH",
"312 1470 OFFCURVE",
"378 1586 OFFCURVE",
"515 1586 CURVE SMOOTH",
"629 1586 OFFCURVE",
"697 1505 OFFCURVE",
"697 1364 CURVE SMOOTH",
"697 1104 OFFCURVE",
"486 1104 OFFCURVE",
"486 862 CURVE SMOOTH",
"486 517 OFFCURVE",
"917 541 OFFCURVE",
"917 211 CURVE SMOOTH",
"917 81 OFFCURVE",
"843 2 OFFCURVE",
"719 2 CURVE SMOOTH",
"583 2 OFFCURVE",
"497 103 OFFCURVE",
"469 304 CURVE",
"442 304 LINE",
"453 20 LINE",
"530 -4 OFFCURVE",
"642 -22 OFFCURVE",
"719 -22 CURVE SMOOTH",
"920 -22 OFFCURVE",
"1045 101 OFFCURVE",
"1045 295 CURVE SMOOTH",
"1045 704 OFFCURVE",
"526 642 OFFCURVE",
"526 915 CURVE SMOOTH",
"526 1124 OFFCURVE",
"838 1140 OFFCURVE",
"838 1375 CURVE SMOOTH",
"838 1518 OFFCURVE",
"719 1613 OFFCURVE",
"541 1613 CURVE SMOOTH {name = hr00;}"
);
}
);
width = 1109;
}
);
leftKerningGroup = h;
unicode = 00DF;
},
{
glyphname = ae;
lastChange = "2018-10-29 19:59:31 +0000";
layers = (
{
layerId = master01;
paths = (
{
closed = 1;
nodes = (
"392 -15 OFFCURVE",
"502 53 OFFCURVE",
"581 174 CURVE",
"638 57 OFFCURVE",
"766 -22 OFFCURVE",
"917 -22 CURVE SMOOTH",
"1071 -22 OFFCURVE",
"1195 68 OFFCURVE",
"1252 222 CURVE SMOOTH",
"1261 246 LINE",
"1252 251 LINE",
"1232 224 LINE SMOOTH",
"1166 139 OFFCURVE",
"1067 88 OFFCURVE",
"961 88 CURVE SMOOTH",
"781 88 OFFCURVE",
"680 235 OFFCURVE",
"680 502 CURVE SMOOTH",
"680 530 OFFCURVE",
"680 559 OFFCURVE",
"682 587 CURVE",
"1256 587 LINE",
"1269 598 LINE",
"1263 834 OFFCURVE",
"1153 955 OFFCURVE",
"946 955 CURVE SMOOTH",
"829 955 OFFCURVE",
"722 913 OFFCURVE",
"667 845 CURVE",
"634 920 OFFCURVE",
"579 953 OFFCURVE",
"493 953 CURVE SMOOTH {name = hr01;}",
"425 953 OFFCURVE",
"354 933 OFFCURVE",
"288 898 CURVE SMOOTH",
"180 840 OFFCURVE",
"103 748 OFFCURVE",
"103 678 CURVE SMOOTH",
"103 631 OFFCURVE",
"134 598 OFFCURVE",
"178 598 CURVE SMOOTH",
"227 598 OFFCURVE",
"257 642 OFFCURVE",
"257 717 CURVE SMOOTH",
"257 737 OFFCURVE",
"255 761 OFFCURVE",
"255 777 CURVE SMOOTH",
"255 858 OFFCURVE",
"317 911 OFFCURVE",
"407 911 CURVE SMOOTH",
"502 911 OFFCURVE",
"535 854 OFFCURVE",
"535 684 CURVE SMOOTH",
"535 484 LINE",
"213 420 OFFCURVE",
"95 341 OFFCURVE",
"95 194 CURVE SMOOTH",
"95 70 OFFCURVE",
"174 -15 OFFCURVE",
"286 -15 CURVE SMOOTH"
);
},
{
closed = 1;
nodes = (
"1043 931 OFFCURVE",
"1098 856 OFFCURVE",
"1098 713 CURVE SMOOTH",
"1098 678 OFFCURVE",
"1096 642 OFFCURVE",
"1091 627 CURVE",
"686 612 LINE",
"708 812 OFFCURVE",
"799 931 OFFCURVE",
"935 931 CURVE SMOOTH"
);
},
{
closed = 1;
nodes = (
"295 68 OFFCURVE",
"242 132 OFFCURVE",
"242 235 CURVE SMOOTH",
"242 352 OFFCURVE",
"310 403 OFFCURVE",
"537 460 CURVE",
"546 264 OFFCURVE",
"557 231 OFFCURVE",
"568 200 CURVE",
"521 114 OFFCURVE",
"458 68 OFFCURVE",
"381 68 CURVE SMOOTH"
);
}
);
width = 1349;
}
);
leftKerningGroup = a;
rightKerningGroup = e;
unicode = 00E6;
},
{
glyphname = eth;
lastChange = "2018-10-29 19:59:31 +0000";
layers = (
{
layerId = master01;
paths = (
{
closed = 1;
nodes = (
"271 -35 OFFCURVE",
"90 156 OFFCURVE",
"90 444 CURVE SMOOTH",
"90 726 OFFCURVE",
"260 909 OFFCURVE",
"524 909 CURVE SMOOTH",
"629 909 OFFCURVE",
"704 880 OFFCURVE",
"779 814 CURVE",
"735 1159 OFFCURVE",
"612 1344 OFFCURVE",
"268 1553 CURVE",
"277 1571 LINE",
"708 1390 OFFCURVE",
"1010 992 OFFCURVE",
"1010 539 CURVE SMOOTH",
"1010 180 OFFCURVE",
"836 -35 OFFCURVE",
"546 -35 CURVE SMOOTH"
);
},
{
closed = 1;
nodes = (
"717 -9 OFFCURVE",
"807 161 OFFCURVE",
"807 469 CURVE SMOOTH",
"807 568 OFFCURVE",
"799 684 OFFCURVE",
"783 774 CURVE",
"733 825 OFFCURVE",
"653 856 OFFCURVE",
"574 856 CURVE SMOOTH",
"394 856 OFFCURVE",
"295 702 OFFCURVE",
"295 427 CURVE SMOOTH",
"295 154 OFFCURVE",
"392 -9 OFFCURVE",
"554 -9 CURVE SMOOTH"
);
},
{
closed = 1;
nodes = (
"310 1115 LINE",
"310 1155 LINE",
"917 1507 LINE",
"917 1465 LINE"
);
}
);
width = 1124;
}
);
leftKerningGroup = o;
unicode = 00F0;
},
{
glyphname = divide;
lastChange = "2018-10-29 19:59:31 +0000";
layers = (
{
layerId = master01;
paths = (
{
closed = 1;
nodes = (
"922 781 LINE",
"922 733 LINE",
"174 733 LINE",
"174 781 LINE"
);
},
{
closed = 1;
nodes = (
"438 1045 OFFCURVE",
"480 999 OFFCURVE",
"543 999 CURVE SMOOTH",
"607 999 OFFCURVE",
"649 1045 OFFCURVE",
"649 1104 CURVE SMOOTH",
"649 1164 OFFCURVE",
"607 1210 OFFCURVE",
"543 1210 CURVE SMOOTH",
"480 1210 OFFCURVE",
"438 1164 OFFCURVE",
"438 1104 CURVE SMOOTH"
);
},
{
closed = 1;
nodes = (
"438 350 OFFCURVE",
"480 304 OFFCURVE",
"543 304 CURVE SMOOTH",
"607 304 OFFCURVE",
"649 350 OFFCURVE",
"649 409 CURVE SMOOTH",
"649 469 OFFCURVE",
"607 515 OFFCURVE",
"543 515 CURVE SMOOTH",
"480 515 OFFCURVE",
"438 469 OFFCURVE",
"438 409 CURVE SMOOTH"
);
}
);
width = 1096;
}
);
unicode = 00F7;
},
{
glyphname = oslash;
lastChange = "2018-10-29 19:59:31 +0000";
layers = (
{
layerId = master01;
paths = (
{
closed = 1;
nodes = (
"178 -143 LINE",
"229 -143 LINE",
"911 1078 LINE",
"860 1078 LINE {name = hr00;}"
);
},
{
closed = 1;
nodes = (
"266 955 OFFCURVE",
"88 757 OFFCURVE",
"88 466 CURVE SMOOTH",
"88 176 OFFCURVE",
"266 -22 OFFCURVE",
"524 -22 CURVE SMOOTH",
"781 -22 OFFCURVE",
"959 176 OFFCURVE",
"959 466 CURVE SMOOTH",
"959 757 OFFCURVE",
"781 955 OFFCURVE",
"524 955 CURVE SMOOTH"
);
},
{
closed = 1;
nodes = (
"251 759 OFFCURVE",
"352 933 OFFCURVE",
"524 933 CURVE SMOOTH",
"693 933 OFFCURVE",
"796 759 OFFCURVE",
"796 466 CURVE SMOOTH",
"796 174 OFFCURVE",
"693 0 OFFCURVE",
"524 0 CURVE SMOOTH",
"352 0 OFFCURVE",
"251 174 OFFCURVE",
"251 466 CURVE SMOOTH"
);
}
);
width = 1047;
}
);
leftKerningGroup = o;
rightKerningGroup = o;
unicode = 00F8;
},
{
glyphname = thorn;
lastChange = "2018-10-29 19:59:31 +0000";
layers = (
{
layerId = master01;
paths = (
{
closed = 1;
nodes = (
"935 191 OFFCURVE",
"748 -22 OFFCURVE",
"484 -22 CURVE SMOOTH",
"420 -22 OFFCURVE",
"363 -9 OFFCURVE",
"304 18 CURVE",
"304 -475 LINE",
"502 -499 LINE",
"502 -515 LINE",
"26 -515 LINE",
"26 -497 LINE",
"161 -480 LINE",
"161 1437 LINE",
"31 1485 LINE",
"31 1500 LINE",
"286 1586 LINE",
"304 1586 LINE",
"304 829 LINE",
"381 913 OFFCURVE",
"471 955 OFFCURVE",
"574 955 CURVE SMOOTH",
"794 955 OFFCURVE",
"935 763 OFFCURVE",
"935 493 CURVE SMOOTH {name = hr00;}"
);
},
{
closed = 1;
nodes = (
"658 0 OFFCURVE",
"777 187 OFFCURVE",
"777 455 CURVE SMOOTH",
"777 724 OFFCURVE",
"671 889 OFFCURVE",
"499 889 CURVE SMOOTH",
"420 889 OFFCURVE",
"348 854 OFFCURVE",
"304 796 CURVE",
"304 156 LINE SMOOTH",
"304 73 OFFCURVE",
"394 0 OFFCURVE",
"499 0 CURVE SMOOTH"
);
}
);
width = 1025;
}
);
leftKerningGroup = b;
rightKerningGroup = b;
unicode = 00FE;
},
{
glyphname = Aogonek;
lastChange = "2018-10-29 19:59:31 +0000";
layers = (
{
components = (
{
name = A;
transform = "{1, 0, 0, 1, -7, 0}";
}
);
layerId = master01;
paths = (
{
closed = 1;
nodes = (
"1316 -464 OFFCURVE",
"1247 -497 OFFCURVE",
"1162 -497 CURVE SMOOTH",
"1041 -497 OFFCURVE",
"964 -431 OFFCURVE",
"964 -328 CURVE SMOOTH",
"964 -218 OFFCURVE",
"1056 -92 OFFCURVE",
"1214 20 CURVE",
"1241 20 LINE",
"1168 -51 OFFCURVE",
"1098 -191 OFFCURVE",
"1098 -290 CURVE SMOOTH",
"1098 -385 OFFCURVE",
"1151 -436 OFFCURVE",
"1234 -436 CURVE SMOOTH",
"1285 -436 OFFCURVE",
"1329 -420 OFFCURVE",
"1371 -381 CURVE",
"1377 -392 LINE"
);
}
);
width = 1437;
}
);
leftKerningGroup = A;
rightKerningGroup = A;
unicode = 0104;
},
{
glyphname = Dcroat;
lastChange = "2018-10-29 19:59:31 +0000";
layers = (
{
components = (
{
name = D;
transform = "{1, 0, 0, 1, 24, 0}";
}
);
layerId = master01;
paths = (
{
closed = 1;
nodes = (
"737 799 LINE",
"737 750 LINE",
"112 750 LINE",
"112 799 LINE"
);
}
);
width = 1573;
}
);
leftKerningGroup = I;
rightKerningGroup = D;
unicode = 0110;
},
{
glyphname = dcroat;
lastChange = "2018-10-29 19:59:31 +0000";
layers = (
{
components = (
{
name = d;
}
);
layerId = master01;
paths = (
{
closed = 1;
nodes = (
"986 1217 LINE",
"986 1168 LINE",
"515 1168 LINE",
"515 1217 LINE"
);
}
);
width = 1038;
}
);
leftKerningGroup = d;
rightKerningGroup = d;
unicode = 0111;
},
{
glyphname = eogonek;
lastChange = "2018-10-29 19:59:31 +0000";
layers = (
{
layerId = master01;
paths = (
{
closed = 1;
nodes = (
"722 -420 OFFCURVE",
"678 -436 OFFCURVE",
"627 -436 CURVE SMOOTH",
"543 -436 OFFCURVE",
"491 -385 OFFCURVE",
"491 -290 CURVE SMOOTH",
"491 -178 OFFCURVE",
"565 -64 OFFCURVE",
"649 0 CURVE SMOOTH",
"735 57 OFFCURVE",
"796 117 OFFCURVE",
"834 222 CURVE SMOOTH",
"843 246 LINE",
"834 251 LINE",
"814 224 LINE SMOOTH",
"741 132 OFFCURVE",
"645 88 OFFCURVE",
"548 88 CURVE SMOOTH",
"356 88 OFFCURVE",
"240 224 OFFCURVE",
"240 497 CURVE SMOOTH",
"240 528 OFFCURVE",
"240 559 OFFCURVE",
"244 587 CURVE",
"838 587 LINE",
"851 598 LINE",
"847 832 OFFCURVE",
"735 955 OFFCURVE",
"530 955 CURVE SMOOTH",
"266 955 OFFCURVE",
"88 755 OFFCURVE",
"88 464 CURVE SMOOTH",
"88 176 OFFCURVE",
"253 -22 OFFCURVE",
"495 -22 CURVE SMOOTH",
"530 -22 OFFCURVE",
"563 -18 OFFCURVE",
"596 -9 CURVE",
"444 -112 OFFCURVE",
"356 -227 OFFCURVE",
"356 -328 CURVE SMOOTH",
"356 -431 OFFCURVE",
"433 -497 OFFCURVE",
"554 -497 CURVE SMOOTH",
"640 -497 OFFCURVE",
"708 -464 OFFCURVE",
"770 -392 CURVE",
"763 -381 LINE {name = hr00;}"
);
},
{
closed = 1;
nodes = (
"607 931 OFFCURVE",
"680 882 OFFCURVE",
"680 715 CURVE SMOOTH",
"680 682 OFFCURVE",
"678 645 OFFCURVE",
"673 627 CURVE",
"246 612 LINE",
"273 803 OFFCURVE",
"367 931 OFFCURVE",
"506 931 CURVE SMOOTH"
);
}
);
width = 931;
}
);
leftKerningGroup = o;
rightKerningGroup = e;
unicode = 0119;
},
{
glyphname = gcommaaccent;
lastChange = "2018-10-29 19:59:31 +0000";
layers = (
{
components = (
{
name = g;
}
);
layerId = master01;
paths = (
{
closed = 1;
nodes = (
"433 1481 OFFCURVE",
"383 1393 OFFCURVE",
"383 1300 CURVE SMOOTH",
"383 1221 OFFCURVE",
"420 1168 OFFCURVE",
"475 1168 CURVE SMOOTH",
"517 1168 OFFCURVE",
"546 1199 OFFCURVE",
"546 1243 CURVE SMOOTH",
"546 1318 OFFCURVE",
"462 1318 OFFCURVE",
"462 1399 CURVE SMOOTH",
"462 1445 OFFCURVE",
"491 1503 OFFCURVE",
"535 1536 CURVE",
"526 1547 LINE"
);
}
);
width = 887;
}
);
leftKerningGroup = g;
rightKerningGroup = g;
unicode = 0123;
},
{
glyphname = Hbar;
lastChange = "2018-10-29 19:59:31 +0000";
layers = (
{
components = (
{
name = H;
transform = "{1, 0, 0, 1, 13, 0}";
}
);
layerId = master01;
paths = (
{
closed = 1;
nodes = (
"1533 1168 LINE",
"1533 1131 LINE",
"103 1131 LINE",
"103 1168 LINE"
);
}
);
width = 1639;
}
);
leftKerningGroup = I;
rightKerningGroup = I;
unicode = 0126;
},
{
glyphname = hbar;
lastChange = "2018-10-29 19:59:31 +0000";
layers = (
{
components = (
{
name = h;
}
);
layerId = master01;
paths = (
{
closed = 1;
nodes = (
"517 1217 LINE",
"517 1168 LINE",
"46 1168 LINE",
"46 1217 LINE"
);
}
);
width = 997;
}
);
leftKerningGroup = h;
rightKerningGroup = n;
unicode = 0127;
},
{
glyphname = iogonek;
lastChange = "2018-10-29 19:59:31 +0000";
layers = (
{
components = (
{
name = i;
}
);
layerId = master01;
paths = (
{
closed = 1;
nodes = (
"385 -464 OFFCURVE",
"317 -497 OFFCURVE",
"231 -497 CURVE SMOOTH",
"110 -497 OFFCURVE",
"33 -431 OFFCURVE",
"33 -328 CURVE SMOOTH",
"33 -218 OFFCURVE",
"125 -88 OFFCURVE",
"284 24 CURVE",
"310 24 LINE",
"238 -46 OFFCURVE",
"167 -191 OFFCURVE",
"167 -290 CURVE SMOOTH",
"167 -385 OFFCURVE",
"220 -436 OFFCURVE",
"304 -436 CURVE SMOOTH",
"354 -436 OFFCURVE",
"398 -420 OFFCURVE",
"440 -381 CURVE",
"447 -392 LINE"
);
}
);
width = 497;
}
);
leftKerningGroup = i;
rightKerningGroup = i;
unicode = 012F;
},
{
glyphname = dotlessi;
lastChange = "2018-10-29 19:59:31 +0000";
layers = (
{
anchors = (
{
name = bottom;
position = "{257, 0}";
},
{
name = top;
position = "{257, 1166}";
}
);
layerId = master01;
paths = (
{
closed = 1;
nodes = (
"466 0 LINE",
"55 0 LINE",
"55 18 LINE",
"189 35 LINE",
"189 805 LINE",
"59 854 LINE",
"59 869 LINE",
"315 955 LINE",
"332 955 LINE",
"332 35 LINE",
"466 18 LINE {name = hr00;}"
);
}
);
width = 504;
}
);
leftKerningGroup = i;
rightKerningGroup = i;
unicode = 0131;
},
{
glyphname = kgreenlandic;
lastChange = "2018-10-29 19:59:31 +0000";
layers = (
{
layerId = master01;
paths = (
{
closed = 1;
nodes = (
"926 35 LINE",
"1047 18 LINE",
"1047 0 LINE",
"766 0 LINE",
"385 462 LINE",
"480 576 LINE {name = hr00;}"
);
},
{
closed = 1;
nodes = (
"464 0 LINE",
"55 0 LINE",
"55 18 LINE",
"189 35 LINE",
"189 794 LINE",
"59 843 LINE",
"59 858 LINE",
"315 944 LINE",
"332 944 LINE",
"332 35 LINE",
"464 18 LINE"
);
},
{
closed = 1;
nodes = (
"548 933 LINE",
"920 933 LINE",
"920 915 LINE",
"801 895 OFFCURVE",
"748 867 OFFCURVE",
"689 796 CURVE SMOOTH",
"284 319 LINE",
"284 359 LINE",
"645 792 LINE SMOOTH",
"671 825 OFFCURVE",
"684 847 OFFCURVE",
"684 862 CURVE SMOOTH",
"684 889 OFFCURVE",
"653 900 OFFCURVE",
"548 915 CURVE"
);
}
);
width = 1021;
}
);
unicode = 0138;
},
{
glyphname = Lslash;
lastChange = "2018-10-29 19:59:31 +0000";
layers = (
{
components = (
{
name = L;
}
);
layerId = master01;
paths = (
{
closed = 1;
nodes = (
"88 557 LINE",
"88 596 LINE",
"695 948 LINE",
"695 906 LINE"
);
}
);
width = 1283;
}
);
leftKerningGroup = I;
rightKerningGroup = L;
unicode = 0141;
},
{
glyphname = lslash;
lastChange = "2018-10-29 19:59:31 +0000";
layers = (
{
components = (
{
name = l;
transform = "{1, 0, 0, 1, 79, 0}";
}
);
layerId = master01;
paths = (
{
closed = 1;
nodes = (
"24 557 LINE",
"24 596 LINE",
"631 948 LINE",
"631 906 LINE"
);
}
);
width = 614;
}
);
leftKerningGroup = l;
rightKerningGroup = l;
unicode = 0142;
},
{
glyphname = Eng;
lastChange = "2018-10-29 19:59:31 +0000";
layers = (
{
layerId = master01;
paths = (
{
closed = 1;
nodes = (
"95 1518 LINE",
"422 1518 LINE",
"1289 304 LINE",
"1298 304 LINE",
"1298 1384 LINE SMOOTH",
"1298 1456 OFFCURVE",
"1283 1478 OFFCURVE",
"1232 1483 CURVE SMOOTH",
"1054 1500 LINE",
"1054 1518 LINE",
"1580 1518 LINE",
"1580 1500 LINE",
"1421 1483 LINE SMOOTH",
"1351 1474 OFFCURVE",
"1333 1454 OFFCURVE",
"1333 1384 CURVE SMOOTH",
"1333 -31 LINE SMOOTH",
"1333 -392 OFFCURVE",
"1263 -541 OFFCURVE",
"1091 -541 CURVE SMOOTH",
"966 -541 OFFCURVE",
"865 -462 OFFCURVE",
"865 -363 CURVE SMOOTH",
"865 -304 OFFCURVE",
"900 -266 OFFCURVE",
"957 -266 CURVE SMOOTH",
"1014 -266 OFFCURVE",
"1049 -304 OFFCURVE",
"1049 -365 CURVE SMOOTH",
"1049 -381 OFFCURVE",
"1047 -414 OFFCURVE",
"1047 -429 CURVE SMOOTH",
"1047 -480 OFFCURVE",
"1074 -506 OFFCURVE",
"1120 -506 CURVE SMOOTH",
"1234 -506 OFFCURVE",
"1298 -354 OFFCURVE",
"1298 -88 CURVE SMOOTH",
"1298 -7 LINE",
"323 1366 LINE",
"315 1366 LINE",
"315 134 LINE SMOOTH",
"315 62 OFFCURVE",
"330 40 OFFCURVE",
"381 35 CURVE SMOOTH",
"537 18 LINE",
"537 0 LINE",
"55 0 LINE",
"55 18 LINE",
"213 35 LINE SMOOTH",
"264 40 OFFCURVE",
"279 62 OFFCURVE",
"279 134 CURVE SMOOTH",
"279 1415 LINE",
"271 1428 LINE SMOOTH",
"231 1485 OFFCURVE",
"202 1500 OFFCURVE",
"132 1500 CURVE SMOOTH",
"95 1500 LINE"
);
}
);
width = 1615;
}
);
leftKerningGroup = I;
rightKerningGroup = N;
unicode = 014A;
},
{
glyphname = eng;
lastChange = "2018-10-29 19:59:31 +0000";
layers = (
{
layerId = master01;
paths = (
{
closed = 1;
nodes = (
"464 0 LINE",
"53 0 LINE",
"53 18 LINE",
"187 35 LINE",
"187 794 LINE",
"57 843 LINE",
"57 858 LINE",
"306 944 LINE",
"323 944 LINE",
"323 805 LINE",
"418 904 OFFCURVE",
"517 955 OFFCURVE",
"618 955 CURVE SMOOTH",
"708 955 OFFCURVE",
"790 913 OFFCURVE",
"823 847 CURVE SMOOTH",
"843 807 OFFCURVE",
"847 761 OFFCURVE",
"847 596 CURVE SMOOTH",
"847 88 LINE SMOOTH",
"847 -200 OFFCURVE",
"838 -271 OFFCURVE",
"796 -348 CURVE SMOOTH",
"730 -471 OFFCURVE",
"620 -543 OFFCURVE",
"497 -543 CURVE SMOOTH",
"396 -543 OFFCURVE",
"328 -491 OFFCURVE",
"328 -416 CURVE SMOOTH",
"328 -363 OFFCURVE",
"363 -328 OFFCURVE",
"411 -328 CURVE SMOOTH",
"455 -328 OFFCURVE",
"482 -354 OFFCURVE",
"497 -414 CURVE SMOOTH",
"513 -480 OFFCURVE",
"532 -502 OFFCURVE",
"579 -502 CURVE SMOOTH",
"664 -502 OFFCURVE",
"704 -414 OFFCURVE",
"704 -224 CURVE SMOOTH",
"704 596 LINE SMOOTH",
"704 708 OFFCURVE",
"700 757 OFFCURVE",
"682 794 CURVE SMOOTH",
"658 845 OFFCURVE",
"601 873 OFFCURVE",
"530 873 CURVE SMOOTH",
"455 873 OFFCURVE",
"389 843 OFFCURVE",
"330 779 CURVE",
"330 35 LINE",
"464 18 LINE {name = hr00;}"
);
}
);
width = 983;
}
);
leftKerningGroup = n;
rightKerningGroup = n;
unicode = 014B;
},
{
glyphname = OE;
lastChange = "2018-10-29 19:59:31 +0000";
layers = (
{
layerId = master01;
paths = (
{
closed = 1;
nodes = (
"418 1553 OFFCURVE",
"114 1206 OFFCURVE",
"114 759 CURVE SMOOTH",
"114 312 OFFCURVE",
"418 -35 OFFCURVE",
"807 -35 CURVE SMOOTH",
"906 -35 OFFCURVE",
"1003 -22 OFFCURVE",
"1089 0 CURVE",
"1984 0 LINE",
"2039 462 LINE",
"2015 464 LINE",
"1870 108 LINE SMOOTH",
"1844 42 OFFCURVE",
"1819 26 OFFCURVE",
"1749 26 CURVE SMOOTH",
"1256 26 LINE",
"1256 781 LINE",
"1582 781 LINE SMOOTH",
"1652 781 OFFCURVE",
"1674 763 OFFCURVE",
"1687 695 CURVE SMOOTH",
"1725 517 LINE",
"1751 517 LINE",
"1751 1080 LINE",
"1725 1080 LINE",
"1687 902 LINE SMOOTH",
"1674 834 OFFCURVE",
"1652 816 OFFCURVE",
"1582 816 CURVE SMOOTH",
"1256 816 LINE",
"1256 1492 LINE",
"1753 1492 LINE SMOOTH",
"1824 1492 OFFCURVE",
"1846 1476 OFFCURVE",
"1872 1410 CURVE SMOOTH",
"1995 1102 LINE",
"2017 1104 LINE",
"1987 1518 LINE",
"1087 1518 LINE",
"1014 1540 OFFCURVE",
"915 1553 OFFCURVE",
"807 1553 CURVE SMOOTH"
);
},
{
closed = 1;
nodes = (
"326 1250 OFFCURVE",
"499 1527 OFFCURVE",
"807 1527 CURVE SMOOTH",
"917 1527 OFFCURVE",
"1012 1496 OFFCURVE",
"1087 1428 CURVE",
"1087 90 LINE",
"1003 26 OFFCURVE",
"909 -7 OFFCURVE",
"807 -7 CURVE SMOOTH",
"499 -7 OFFCURVE",
"326 271 OFFCURVE",
"326 759 CURVE SMOOTH"
);
}
);
width = 2167;
}
);
leftKerningGroup = O;
rightKerningGroup = E;
unicode = 0152;
},
{
glyphname = oe;
lastChange = "2018-10-29 19:59:31 +0000";
layers = (
{
components = (
{
name = e;
transform = "{1, 0, 0, 1, 708, 0}";
}
);
layerId = master01;
paths = (
{
closed = 1;
nodes = (
"266 955 OFFCURVE",
"88 757 OFFCURVE",
"88 466 CURVE SMOOTH",
"88 176 OFFCURVE",
"266 -22 OFFCURVE",
"524 -22 CURVE SMOOTH",
"763 -22 OFFCURVE",
"942 176 OFFCURVE",
"942 466 CURVE SMOOTH",
"942 757 OFFCURVE",
"763 955 OFFCURVE",
"524 955 CURVE SMOOTH {name = hr00;}"
);
},
{
closed = 1;
nodes = (
"251 759 OFFCURVE",
"352 933 OFFCURVE",
"524 933 CURVE SMOOTH",
"693 933 OFFCURVE",
"796 759 OFFCURVE",
"796 466 CURVE SMOOTH",
"796 174 OFFCURVE",
"693 0 OFFCURVE",
"524 0 CURVE SMOOTH",
"352 0 OFFCURVE",
"251 174 OFFCURVE",
"251 466 CURVE SMOOTH"
);
}
);
width = 1639;
}
);
leftKerningGroup = o;
rightKerningGroup = e;
unicode = 0153;
},
{
glyphname = Tbar;
lastChange = "2018-10-29 19:59:31 +0000";
layers = (
{
components = (
{
name = T;
}
);
layerId = master01;
paths = (
{
closed = 1;
nodes = (
"1104 920 LINE",
"1104 882 LINE",
"334 882 LINE",
"334 920 LINE"
);
}
);
width = 1459;
}
);
leftKerningGroup = T;
rightKerningGroup = T;
unicode = 0166;
},
{
glyphname = tbar;
lastChange = "2018-10-29 19:59:31 +0000";
layers = (
{
components = (
{
name = t;
transform = "{1, 0, 0, 1, 9, 0}";
}
);
layerId = master01;
paths = (
{
closed = 1;
nodes = (
"563 719 LINE",
"563 682 LINE",
"64 682 LINE",
"64 719 LINE"
);
}
);
width = 625;
}
);
leftKerningGroup = t;
rightKerningGroup = t;
unicode = 0167;
},
{
glyphname = Schwa;
lastChange = "2018-10-29 19:59:31 +0000";
layers = (
{
layerId = master01;
paths = (
{
closed = 1;
nodes = (
"114 163 OFFCURVE",
"286 -35 OFFCURVE",
"603 -35 CURVE SMOOTH",
"1030 -35 OFFCURVE",
"1316 288 OFFCURVE",
"1316 768 CURVE SMOOTH",
"1316 1234 OFFCURVE",
"1058 1553 OFFCURVE",
"682 1553 CURVE SMOOTH",
"422 1553 OFFCURVE",
"229 1410 OFFCURVE",
"136 1159 CURVE SMOOTH",
"121 1120 LINE",
"132 1115 LINE",
"163 1157 LINE SMOOTH",
"290 1329 OFFCURVE",
"442 1419 OFFCURVE",
"596 1419 CURVE SMOOTH",
"917 1419 OFFCURVE",
"1104 1186 OFFCURVE",
"1104 715 CURVE SMOOTH",
"1104 279 OFFCURVE",
"924 -7 OFFCURVE",
"642 -7 CURVE SMOOTH",
"464 -7 OFFCURVE",
"330 70 OFFCURVE",
"330 365 CURVE SMOOTH",
"330 418 OFFCURVE",
"332 477 OFFCURVE",
"341 506 CURVE",
"1126 532 LINE",
"1126 561 LINE",
"130 561 LINE",
"108 543 LINE {name = hr00;}"
);
}
);
width = 1434;
}
);
rightKerningGroup = O;
unicode = 018F;
},
{
glyphname = florin;
lastChange = "2018-10-29 19:59:31 +0000";
layers = (
{
layerId = master01;
paths = (
{
closed = 1;
nodes = (
"253 933 LINE",
"114 70 LINE SMOOTH",
"79 -152 OFFCURVE",
"-31 -253 OFFCURVE",
"-141 -253 CURVE SMOOTH",
"-262 -253 OFFCURVE",
"-211 -73 OFFCURVE",
"-317 -73 CURVE SMOOTH",
"-356 -73 OFFCURVE",
"-392 -108 OFFCURVE",
"-392 -152 CURVE SMOOTH",
"-392 -233 OFFCURVE",
"-275 -282 OFFCURVE",
"-178 -282 CURVE SMOOTH",
"15 -282 OFFCURVE",
"227 -110 OFFCURVE",
"297 312 CURVE SMOOTH",
"400 933 LINE",
"647 933 LINE",
"656 968 LINE",
"403 968 LINE",
"420 1076 LINE SMOOTH",
"477 1434 OFFCURVE",
"574 1525 OFFCURVE",
"704 1525 CURVE SMOOTH",
"814 1525 OFFCURVE",
"739 1344 OFFCURVE",
"865 1344 CURVE SMOOTH",
"917 1344 OFFCURVE",
"946 1388 OFFCURVE",
"946 1423 CURVE SMOOTH",
"946 1487 OFFCURVE",
"865 1553 OFFCURVE",
"728 1553 CURVE SMOOTH",
"568 1553 OFFCURVE",
"429 1456 OFFCURVE",
"367 1346 CURVE SMOOTH",
"312 1245 OFFCURVE",
"290 1179 OFFCURVE",
"257 968 CURVE",
"110 968 LINE",
"99 933 LINE {name = hr00;}"
);
}
);
width = 649;
}
);
unicode = 0192;
},
{
glyphname = Oogonek;
lastChange = "2018-10-29 19:59:31 +0000";
layers = (
{
components = (
{
name = O;
}
);
layerId = master01;
paths = (
{
closed = 1;
nodes = (
"704 -114 OFFCURVE",
"616 -227 OFFCURVE",
"616 -328 CURVE SMOOTH",
"616 -431 OFFCURVE",
"693 -497 OFFCURVE",
"814 -497 CURVE SMOOTH",
"900 -497 OFFCURVE",
"968 -464 OFFCURVE",
"1030 -392 CURVE",
"1023 -381 LINE",
"981 -420 OFFCURVE",
"937 -436 OFFCURVE",
"887 -436 CURVE SMOOTH",
"803 -436 OFFCURVE",
"750 -385 OFFCURVE",
"750 -290 CURVE SMOOTH",
"750 -205 OFFCURVE",
"810 -90 OFFCURVE",
"876 -20 CURVE",
"856 -11 LINE"
);
}
);
width = 1615;
}
);
unicode = 01EA;
},
{
glyphname = Aringacute;
lastChange = "2018-10-29 19:59:31 +0000";
layers = (
{
components = (
{
name = A;
},
{
name = ring;
transform = "{1, 0, 0, 1, 497, 363}";
}
);
layerId = master01;
paths = (
{
closed = 1;
nodes = (
"840 2070 LINE SMOOTH",
"851 2103 OFFCURVE",
"876 2116 OFFCURVE",
"909 2116 CURVE SMOOTH",
"948 2116 OFFCURVE",
"970 2086 OFFCURVE",
"970 2048 CURVE SMOOTH",
"970 2020 OFFCURVE",
"948 2000 OFFCURVE",
"891 1927 CURVE SMOOTH",
"768 1773 LINE",
"752 1784 LINE"
);
}
);
width = 1450;
}
);
leftKerningGroup = A;
rightKerningGroup = A;
unicode = 01FA;
},
{
glyphname = Oslashacute;
lastChange = "2018-10-29 19:59:31 +0000";
layers = (
{
components = (
{
name = acute;
transform = "{1, 0, 0, 1, 682, 594}";
},
{
name = O;
transform = "{1, 0, 0, 1, 2, 0}";
}
);
layerId = master01;
paths = (
{
closed = 1;
nodes = (
"312 -165 LINE",
"363 -165 LINE",
"1287 1650 LINE",
"1236 1650 LINE"
);
}
);
width = 1615;
}
);
leftKerningGroup = O;
rightKerningGroup = O;
unicode = 01FE;
},
{
glyphname = oslashacute;
lastChange = "2018-10-29 19:59:31 +0000";
layers = (
{
components = (
{
name = acute;
transform = "{1, 0, 0, 1, 407, 0}";
}
);
layerId = master01;
paths = (
{
closed = 1;
nodes = (
"178 -143 LINE",
"229 -143 LINE",
"911 1078 LINE",
"860 1078 LINE"
);
},
{
closed = 1;
nodes = (
"266 955 OFFCURVE",
"88 757 OFFCURVE",
"88 466 CURVE SMOOTH",
"88 176 OFFCURVE",
"266 -22 OFFCURVE",
"524 -22 CURVE SMOOTH",
"781 -22 OFFCURVE",
"959 176 OFFCURVE",
"959 466 CURVE SMOOTH",
"959 757 OFFCURVE",
"781 955 OFFCURVE",
"524 955 CURVE SMOOTH"
);
},
{
closed = 1;
nodes = (
"251 759 OFFCURVE",
"352 933 OFFCURVE",
"524 933 CURVE SMOOTH",
"693 933 OFFCURVE",
"796 759 OFFCURVE",
"796 466 CURVE SMOOTH",
"796 174 OFFCURVE",
"693 0 OFFCURVE",
"524 0 CURVE SMOOTH",
"352 0 OFFCURVE",
"251 174 OFFCURVE",
"251 466 CURVE SMOOTH"
);
}
);
width = 1047;
}
);
leftKerningGroup = o;
rightKerningGroup = o;
unicode = 01FF;
},
{
glyphname = dotlessj;
lastChange = "2018-10-29 19:59:31 +0000";
layers = (
{
anchors = (
{
name = top;
position = "{249, 1166}";
}
);
layerId = master01;
paths = (
{
closed = 1;
nodes = (
"48 854 LINE",
"48 869 LINE",
"304 955 LINE",
"321 955 LINE",
"321 88 LINE SMOOTH",
"321 -200 OFFCURVE",
"312 -271 OFFCURVE",
"271 -348 CURVE SMOOTH",
"205 -471 OFFCURVE",
"95 -543 OFFCURVE",
"-29 -543 CURVE SMOOTH",
"-130 -543 OFFCURVE",
"-198 -491 OFFCURVE",
"-198 -416 CURVE SMOOTH",
"-198 -363 OFFCURVE",
"-163 -328 OFFCURVE",
"-114 -328 CURVE SMOOTH",
"-70 -328 OFFCURVE",
"-44 -354 OFFCURVE",
"-29 -414 CURVE SMOOTH",
"-13 -480 OFFCURVE",
"7 -502 OFFCURVE",
"53 -502 CURVE SMOOTH",
"139 -502 OFFCURVE",
"178 -414 OFFCURVE",
"178 -224 CURVE SMOOTH",
"178 805 LINE {name = hr00;}"
);
}
);
width = 480;
}
);
leftKerningGroup = j;
rightKerningGroup = j;
unicode = 0237;
},
{
glyphname = schwa;
lastChange = "2018-10-29 19:59:31 +0000";
layers = (
{
layerId = master01;
paths = (
{
closed = 1;
nodes = (
"86 101 OFFCURVE",
"198 -22 OFFCURVE",
"403 -22 CURVE SMOOTH",
"667 -22 OFFCURVE",
"845 178 OFFCURVE",
"845 469 CURVE SMOOTH",
"845 757 OFFCURVE",
"680 955 OFFCURVE",
"438 955 CURVE SMOOTH",
"277 955 OFFCURVE",
"156 867 OFFCURVE",
"99 711 CURVE SMOOTH",
"90 686 LINE",
"99 682 LINE",
"119 708 LINE SMOOTH",
"191 801 OFFCURVE",
"288 845 OFFCURVE",
"385 845 CURVE SMOOTH",
"576 845 OFFCURVE",
"693 708 OFFCURVE",
"693 436 CURVE SMOOTH",
"693 180 OFFCURVE",
"592 2 OFFCURVE",
"427 2 CURVE SMOOTH",
"326 2 OFFCURVE",
"253 51 OFFCURVE",
"253 218 CURVE SMOOTH",
"253 251 OFFCURVE",
"255 288 OFFCURVE",
"260 306 CURVE",
"706 321 LINE",
"706 345 LINE",
"95 345 LINE",
"81 334 LINE {name = hr00;}"
);
}
);
width = 933;
}
);
rightKerningGroup = o;
unicode = 0259;
},
{
glyphname = apostrophe;
lastChange = "2018-10-29 19:59:31 +0000";
layers = (
{
anchors = (
{
name = _top;
position = "{158, 1166}";
}
);
layerId = master01;
paths = (
{
closed = 1;
nodes = (
"163 1166 LINE",
"213 1432 LINE SMOOTH",
"216 1445 OFFCURVE",
"218 1456 OFFCURVE",
"218 1465 CURVE SMOOTH",
"218 1511 OFFCURVE",
"194 1531 OFFCURVE",
"158 1531 CURVE SMOOTH",
"123 1531 OFFCURVE",
"99 1511 OFFCURVE",
"99 1465 CURVE SMOOTH",
"99 1456 OFFCURVE",
"101 1445 OFFCURVE",
"103 1432 CURVE SMOOTH",
"154 1166 LINE"
);
}
);
width = 317;
}
);
unicode = 02BC;
},
{
glyphname = circumflex;
lastChange = "2018-10-29 19:59:31 +0000";
layers = (
{
anchors = (
{
name = _top;
position = "{310, 1166}";
}
);
layerId = master01;
paths = (
{
closed = 1;
nodes = (
"365 1500 OFFCURVE",
"348 1520 OFFCURVE",
"310 1520 CURVE SMOOTH",
"277 1520 OFFCURVE",
"255 1505 OFFCURVE",
"242 1474 CURVE SMOOTH",
"99 1153 LINE",
"106 1151 LINE",
"310 1384 LINE",
"515 1151 LINE",
"521 1153 LINE",
"378 1474 LINE SMOOTH"
);
}
);
width = 620;
}
);
unicode = 02C6;
},
{
glyphname = caron;
lastChange = "2018-10-29 19:59:31 +0000";
layers = (
{
anchors = (
{
name = _top;
position = "{310, 1166}";
}
);
layerId = master01;
paths = (
{
closed = 1;
nodes = (
"515 1531 LINE",
"310 1298 LINE",
"106 1531 LINE",
"99 1529 LINE",
"242 1208 LINE SMOOTH",
"255 1177 OFFCURVE",
"277 1162 OFFCURVE",
"310 1162 CURVE SMOOTH",
"348 1162 OFFCURVE",
"365 1181 OFFCURVE",
"378 1208 CURVE SMOOTH",
"521 1529 LINE"
);
}
);
width = 620;
}
);
unicode = 02C7;
},
{
glyphname = uni02C9;
lastChange = "2018-10-29 19:59:31 +0000";
layers = (
{
anchors = (
{
name = _top;
position = "{319, 1166}";
}
);
layerId = master01;
paths = (
{
closed = 1;
nodes = (
"539 1265 LINE",
"539 1217 LINE",
"99 1217 LINE",
"99 1265 LINE"
);
}
);
width = 638;
}
);
unicode = 02C9;
},
{
glyphname = breve;
lastChange = "2018-10-29 19:59:31 +0000";
layers = (
{
anchors = (
{
name = _top;
position = "{334, 1166}";
}
);
layerId = master01;
paths = (
{
closed = 1;
nodes = (
"220 1166 OFFCURVE",
"136 1241 OFFCURVE",
"99 1375 CURVE",
"110 1375 LINE",
"152 1307 OFFCURVE",
"229 1272 OFFCURVE",
"337 1272 CURVE SMOOTH",
"444 1272 OFFCURVE",
"519 1307 OFFCURVE",
"563 1375 CURVE",
"574 1375 LINE",
"537 1241 OFFCURVE",
"451 1166 OFFCURVE",
"337 1166 CURVE SMOOTH"
);
}
);
width = 673;
}
);
unicode = 02D8;
},
{
glyphname = dotaccent;
lastChange = "2018-10-29 19:59:31 +0000";
layers = (
{
anchors = (
{
name = _top;
position = "{205, 1166}";
}
);
layerId = master01;
paths = (
{
closed = 1;
nodes = (
"99 1212 OFFCURVE",
"141 1166 OFFCURVE",
"205 1166 CURVE SMOOTH",
"268 1166 OFFCURVE",
"310 1212 OFFCURVE",
"310 1272 CURVE SMOOTH",
"310 1331 OFFCURVE",
"268 1377 OFFCURVE",
"205 1377 CURVE SMOOTH",
"141 1377 OFFCURVE",
"99 1331 OFFCURVE",
"99 1272 CURVE SMOOTH"
);
}
);
width = 409;
}
);
unicode = 02D9;
},
{
glyphname = ring;
lastChange = "2018-10-29 19:59:31 +0000";
layers = (
{
anchors = (
{
name = _top;
position = "{238, 1166}";
}
);
layerId = master01;
paths = (
{
closed = 1;
nodes = (
"99 1382 OFFCURVE",
"154 1443 OFFCURVE",
"238 1443 CURVE SMOOTH",
"321 1443 OFFCURVE",
"376 1382 OFFCURVE",
"376 1305 CURVE SMOOTH",
"376 1228 OFFCURVE",
"321 1166 OFFCURVE",
"238 1166 CURVE SMOOTH",
"154 1166 OFFCURVE",
"99 1228 OFFCURVE",
"99 1305 CURVE SMOOTH"
);
},
{
closed = 1;
nodes = (
"125 1241 OFFCURVE",
"169 1192 OFFCURVE",
"238 1192 CURVE SMOOTH",
"304 1192 OFFCURVE",
"348 1241 OFFCURVE",
"348 1305 CURVE SMOOTH",
"348 1368 OFFCURVE",
"304 1415 OFFCURVE",
"238 1415 CURVE SMOOTH",
"169 1415 OFFCURVE",
"125 1368 OFFCURVE",
"125 1305 CURVE"
);
}
);
width = 475;
}
);
unicode = 02DA;
},
{
glyphname = ogonek;
lastChange = "2018-10-29 19:59:31 +0000";
layers = (
{
anchors = (
{
name = _bottom;
position = "{337, 0}";
}
);
layerId = master01;
paths = (
{
closed = 1;
nodes = (
"464 -420 OFFCURVE",
"420 -436 OFFCURVE",
"370 -436 CURVE SMOOTH",
"286 -436 OFFCURVE",
"233 -385 OFFCURVE",
"233 -290 CURVE SMOOTH",
"233 -198 OFFCURVE",
"304 -68 OFFCURVE",
"376 -2 CURVE",
"350 -2 LINE",
"191 -108 OFFCURVE",
"99 -224 OFFCURVE",
"99 -328 CURVE SMOOTH",
"99 -431 OFFCURVE",
"176 -497 OFFCURVE",
"297 -497 CURVE SMOOTH",
"383 -497 OFFCURVE",
"451 -464 OFFCURVE",
"513 -392 CURVE",
"506 -381 LINE"
);
}
);
width = 612;
}
);
unicode = 02DB;
},
{
glyphname = tilde;
lastChange = "2018-10-29 19:59:31 +0000";
layers = (
{
anchors = (
{
name = _top;
position = "{370, 1166}";
}
);
layerId = master01;
paths = (
{
closed = 1;
nodes = (
"99 1283 OFFCURVE",
"161 1357 OFFCURVE",
"253 1357 CURVE SMOOTH",
"334 1357 OFFCURVE",
"453 1285 OFFCURVE",
"537 1285 CURVE SMOOTH",
"587 1285 OFFCURVE",
"618 1313 OFFCURVE",
"629 1364 CURVE",
"640 1364 LINE",
"640 1243 OFFCURVE",
"581 1166 OFFCURVE",
"486 1166 CURVE SMOOTH",
"398 1166 OFFCURVE",
"288 1245 OFFCURVE",
"200 1245 CURVE SMOOTH",
"147 1245 OFFCURVE",
"114 1217 OFFCURVE",
"108 1168 CURVE",
"99 1168 LINE"
);
}
);
width = 739;
}
);
unicode = 02DC;
},
{
glyphname = hungarumlaut;
lastChange = "2018-10-29 19:59:31 +0000";
layers = (
{
anchors = (
{
name = _top;
position = "{330, 1166}";
}
);
layerId = master01;
paths = (
{
closed = 1;
nodes = (
"106 1151 LINE",
"249 1331 LINE SMOOTH",
"306 1404 OFFCURVE",
"328 1423 OFFCURVE",
"328 1452 CURVE SMOOTH",
"328 1489 OFFCURVE",
"306 1520 OFFCURVE",
"266 1520 CURVE SMOOTH",
"233 1520 OFFCURVE",
"209 1507 OFFCURVE",
"198 1474 CURVE SMOOTH",
"99 1153 LINE"
);
},
{
closed = 1;
nodes = (
"337 1151 LINE",
"480 1331 LINE SMOOTH",
"537 1404 OFFCURVE",
"559 1423 OFFCURVE",
"559 1452 CURVE SMOOTH",
"559 1489 OFFCURVE",
"537 1520 OFFCURVE",
"497 1520 CURVE SMOOTH",
"464 1520 OFFCURVE",
"440 1507 OFFCURVE",
"429 1474 CURVE SMOOTH",
"330 1153 LINE"
);
}
);
width = 658;
}
);
unicode = 02DD;
},
{
glyphname = uni030F;
lastChange = "2018-10-29 19:59:31 +0000";
layers = (
{
anchors = (
{
name = _top;
position = "{330, 1166}";
}
);
layerId = master01;
paths = (
{
closed = 1;
nodes = (
"449 1505 OFFCURVE",
"425 1518 OFFCURVE",
"392 1518 CURVE SMOOTH",
"352 1518 OFFCURVE",
"330 1487 OFFCURVE",
"330 1450 CURVE SMOOTH",
"330 1421 OFFCURVE",
"352 1401 OFFCURVE",
"409 1329 CURVE SMOOTH",
"552 1148 LINE",
"559 1151 LINE",
"460 1472 LINE"
);
},
{
closed = 1;
nodes = (
"218 1505 OFFCURVE",
"194 1518 OFFCURVE",
"161 1518 CURVE SMOOTH",
"121 1518 OFFCURVE",
"99 1487 OFFCURVE",
"99 1450 CURVE SMOOTH",
"99 1421 OFFCURVE",
"121 1401 OFFCURVE",
"178 1329 CURVE SMOOTH",
"321 1148 LINE",
"328 1151 LINE",
"229 1472 LINE"
);
}
);
width = 658;
}
);
unicode = 030F;
},
{
glyphname = uni0311;
lastChange = "2018-10-29 19:59:31 +0000";
layers = (
{
anchors = (
{
name = _top;
position = "{334, 1166}";
}
);
layerId = master01;
paths = (
{
closed = 1;
nodes = (
"451 1375 OFFCURVE",
"537 1300 OFFCURVE",
"574 1166 CURVE",
"563 1166 LINE",
"519 1234 OFFCURVE",
"444 1269 OFFCURVE",
"337 1269 CURVE SMOOTH",
"229 1269 OFFCURVE",
"152 1234 OFFCURVE",
"110 1166 CURVE",
"99 1166 LINE",
"136 1300 OFFCURVE",
"220 1375 OFFCURVE",
"337 1375 CURVE SMOOTH"
);
}
);
width = 673;
}
);
unicode = 0311;
},
{
glyphname = uni0394;
lastChange = "2018-10-29 19:59:31 +0000";
layers = (
{
layerId = master01;
paths = (
{
closed = 1;
nodes = (
"1366 53 LINE",
"724 1553 LINE",
"631 1527 LINE",
"7 53 LINE",
"7 0 LINE",
"1366 0 LINE {name = hr00;}"
);
},
{
closed = 1;
nodes = (
"132 103 LINE",
"623 1298 LINE",
"1122 103 LINE"
);
}
);
width = 1373;
}
);
unicode = 0394;
},
{
glyphname = uni03A9;
lastChange = "2018-10-29 19:59:31 +0000";
layers = (
{
layerId = master01;
paths = (
{
closed = 1;
nodes = (
"1670 323 LINE",
"1615 167 OFFCURVE",
"1591 147 OFFCURVE",
"1487 147 CURVE SMOOTH",
"1214 147 LINE",
"1397 315 OFFCURVE",
"1626 546 OFFCURVE",
"1626 858 CURVE SMOOTH",
"1626 1294 OFFCURVE",
"1331 1553 OFFCURVE",
"917 1553 CURVE SMOOTH",
"515 1553 OFFCURVE",
"200 1274 OFFCURVE",
"200 838 CURVE SMOOTH",
"200 477 OFFCURVE",
"449 271 OFFCURVE",
"605 147 CURVE",
"343 147 LINE SMOOTH",
"244 147 OFFCURVE",
"209 176 OFFCURVE",
"156 323 CURVE",
"101 321 LINE",
"158 0 LINE",
"730 0 LINE",
"748 46 LINE",
"609 244 OFFCURVE",
"427 497 OFFCURVE",
"427 821 CURVE SMOOTH",
"427 1302 OFFCURVE",
"645 1485 OFFCURVE",
"913 1485 CURVE SMOOTH",
"1157 1485 OFFCURVE",
"1404 1318 OFFCURVE",
"1404 834 CURVE SMOOTH",
"1404 493 OFFCURVE",
"1181 211 OFFCURVE",
"1076 46 CURVE",
"1091 0 LINE",
"1668 0 LINE",
"1729 321 LINE {name = hr00;}"
);
}
);
width = 1819;
}
);
unicode = 03A9;
},
{
glyphname = uni03BC;
lastChange = "2018-10-29 19:59:31 +0000";
layers = (
{
layerId = master01;
paths = (
{
closed = 1;
nodes = (
"669 154 LINE",
"673 141 LINE",
"680 139 LINE",
"680 -11 LINE",
"693 -11 LINE",
"933 99 LINE",
"933 110 LINE",
"812 136 LINE",
"812 933 LINE",
"537 933 LINE",
"537 915 LINE",
"669 898 LINE {name = hr00;}"
);
},
{
closed = 1;
nodes = (
"240 26 OFFCURVE",
"304 -22 OFFCURVE",
"396 -22 CURVE SMOOTH",
"495 -22 OFFCURVE",
"587 33 OFFCURVE",
"673 141 CURVE",
"673 176 LINE",
"618 101 OFFCURVE",
"546 62 OFFCURVE",
"471 62 CURVE SMOOTH",
"407 62 OFFCURVE",
"361 88 OFFCURVE",
"337 139 CURVE SMOOTH",
"319 174 OFFCURVE",
"315 216 OFFCURVE",
"315 337 CURVE SMOOTH",
"315 933 LINE",
"40 933 LINE",
"40 915 LINE",
"172 898 LINE",
"172 337 LINE SMOOTH",
"172 81 OFFCURVE",
"139 -253 OFFCURVE",
"139 -356 CURVE SMOOTH",
"139 -440 OFFCURVE",
"156 -475 OFFCURVE",
"200 -475 CURVE SMOOTH",
"242 -475 OFFCURVE",
"266 -444 OFFCURVE",
"266 -396 CURVE SMOOTH",
"266 -321 OFFCURVE",
"196 -220 OFFCURVE",
"196 108 CURVE",
"207 112 LINE"
);
}
);
width = 981;
}
);
unicode = 03BC;
},
{
glyphname = pi;
lastChange = "2018-10-29 19:59:31 +0000";
layers = (
{
layerId = master01;
paths = (
{
closed = 1;
nodes = (
"1186 1003 OFFCURVE",
"1153 990 OFFCURVE",
"1082 990 CURVE SMOOTH",
"854 990 OFFCURVE",
"605 999 OFFCURVE",
"431 999 CURVE SMOOTH",
"191 999 OFFCURVE",
"101 878 OFFCURVE",
"33 790 CURVE",
"66 741 LINE",
"152 803 OFFCURVE",
"216 851 OFFCURVE",
"374 851 CURVE",
"374 623 OFFCURVE",
"328 213 OFFCURVE",
"154 11 CURVE",
"169 -26 LINE {name = hr01;}",
"205 -24 OFFCURVE",
"264 -4 OFFCURVE",
"304 11 CURVE",
"337 48 OFFCURVE",
"460 297 OFFCURVE",
"460 805 CURVE SMOOTH",
"460 847 LINE",
"554 847 OFFCURVE",
"704 845 OFFCURVE",
"851 843 CURVE",
"840 671 OFFCURVE",
"827 460 OFFCURVE",
"827 257 CURVE SMOOTH",
"827 33 OFFCURVE",
"913 -26 OFFCURVE",
"1034 -26 CURVE SMOOTH",
"1120 -26 OFFCURVE",
"1217 20 OFFCURVE",
"1276 123 CURVE",
"1247 172 LINE",
"1208 128 OFFCURVE",
"1177 101 OFFCURVE",
"1126 101 CURVE SMOOTH",
"1030 101 OFFCURVE",
"1019 169 OFFCURVE",
"1019 398 CURVE SMOOTH",
"1019 838 LINE",
"1085 838 OFFCURVE",
"1157 838 OFFCURVE",
"1195 847 CURVE",
"1225 884 OFFCURVE",
"1263 964 OFFCURVE",
"1280 1047 CURVE",
"1228 1069 LINE"
);
}
);
width = 1329;
}
);
unicode = 03C0;
},
{
glyphname = endash;
lastChange = "2018-10-29 19:59:31 +0000";
layers = (
{
layerId = master01;
paths = (
{
closed = 1;
nodes = (
"950 524 LINE",
"935 475 LINE",
"143 475 LINE",
"158 524 LINE"
);
}
);
width = 1091;
}
);
leftKerningGroup = hyphen;
rightKerningGroup = hyphen;
unicode = 2013;
},
{
glyphname = emdash;
lastChange = "2018-10-29 19:59:31 +0000";
layers = (
{
layerId = master01;
paths = (
{
closed = 1;
nodes = (
"1355 524 LINE",
"1340 475 LINE",
"143 475 LINE",
"158 524 LINE"
);
}
);
width = 1496;
}
);
leftKerningGroup = hyphen;
rightKerningGroup = hyphen;
unicode = 2014;
},
{
glyphname = quoteleft;
lastChange = "2018-10-29 19:59:31 +0000";
layers = (
{
layerId = master01;
paths = (
{
closed = 1;
nodes = (
"178 1485 OFFCURVE",
"123 1364 OFFCURVE",
"123 1252 CURVE SMOOTH",
"123 1162 OFFCURVE",
"158 1109 OFFCURVE",
"216 1109 CURVE SMOOTH",
"257 1109 OFFCURVE",
"286 1140 OFFCURVE",
"286 1184 CURVE SMOOTH",
"286 1256 OFFCURVE",
"202 1263 OFFCURVE",
"202 1377 CURVE SMOOTH",
"202 1445 OFFCURVE",
"231 1518 OFFCURVE",
"275 1560 CURVE",
"266 1571 LINE"
);
}
);
width = 411;
}
);
leftKerningGroup = quoteleft;
rightKerningGroup = quoteleft;
unicode = 2018;
},
{
glyphname = quoteright;
lastChange = "2018-10-29 19:59:31 +0000";
layers = (
{
layerId = master01;
paths = (
{
closed = 1;
nodes = (
"242 1195 OFFCURVE",
"297 1316 OFFCURVE",
"297 1428 CURVE SMOOTH",
"297 1518 OFFCURVE",
"262 1571 OFFCURVE",
"205 1571 CURVE SMOOTH",
"163 1571 OFFCURVE",
"134 1540 OFFCURVE",
"134 1496 CURVE SMOOTH",
"134 1423 OFFCURVE",
"218 1417 OFFCURVE",
"218 1302 CURVE SMOOTH",
"218 1234 OFFCURVE",
"189 1162 OFFCURVE",
"145 1120 CURVE",
"154 1109 LINE"
);
}
);
width = 409;
}
);
leftKerningGroup = quoteright;
rightKerningGroup = quoteright;
unicode = 2019;
},
{
glyphname = quotesinglbase;
lastChange = "2018-10-29 19:59:31 +0000";
layers = (
{
layerId = master01;
paths = (
{
closed = 1;
nodes = (
"255 -158 OFFCURVE",
"310 -37 OFFCURVE",
"310 75 CURVE SMOOTH",
"310 165 OFFCURVE",
"275 218 OFFCURVE",
"218 218 CURVE SMOOTH",
"176 218 OFFCURVE",
"147 187 OFFCURVE",
"147 143 CURVE SMOOTH",
"147 70 OFFCURVE",
"231 64 OFFCURVE",
"231 -51 CURVE SMOOTH",
"231 -119 OFFCURVE",
"202 -191 OFFCURVE",
"158 -233 CURVE",
"167 -244 LINE"
);
}
);
width = 455;
}
);
leftKerningGroup = period;
rightKerningGroup = period;
unicode = 201A;
},
{
glyphname = quotedblleft;
lastChange = "2018-10-29 19:59:31 +0000";
layers = (
{
layerId = master01;
paths = (
{
closed = 1;
nodes = (
"178 1485 OFFCURVE",
"123 1364 OFFCURVE",
"123 1252 CURVE SMOOTH",
"123 1162 OFFCURVE",
"158 1109 OFFCURVE",
"216 1109 CURVE SMOOTH",
"257 1109 OFFCURVE",
"286 1140 OFFCURVE",
"286 1184 CURVE SMOOTH",
"286 1256 OFFCURVE",
"202 1263 OFFCURVE",
"202 1377 CURVE SMOOTH",
"202 1445 OFFCURVE",
"231 1518 OFFCURVE",
"275 1560 CURVE",
"266 1571 LINE"
);
},
{
closed = 1;
nodes = (
"420 1485 OFFCURVE",
"365 1364 OFFCURVE",
"365 1252 CURVE SMOOTH",
"365 1162 OFFCURVE",
"400 1109 OFFCURVE",
"458 1109 CURVE SMOOTH",
"499 1109 OFFCURVE",
"528 1140 OFFCURVE",
"528 1184 CURVE SMOOTH",
"528 1256 OFFCURVE",
"444 1263 OFFCURVE",
"444 1377 CURVE SMOOTH",
"444 1445 OFFCURVE",
"473 1518 OFFCURVE",
"517 1560 CURVE",
"508 1571 LINE"
);
}
);
width = 653;
}
);
leftKerningGroup = quoteleft;
rightKerningGroup = quoteleft;
unicode = 201C;
},
{
glyphname = quotedblright;
lastChange = "2018-10-29 19:59:31 +0000";
layers = (
{
layerId = master01;
paths = (
{
closed = 1;
nodes = (
"484 1195 OFFCURVE",
"539 1316 OFFCURVE",
"539 1428 CURVE SMOOTH",
"539 1518 OFFCURVE",
"504 1571 OFFCURVE",
"447 1571 CURVE SMOOTH",
"405 1571 OFFCURVE",
"376 1540 OFFCURVE",
"376 1496 CURVE SMOOTH",
"376 1423 OFFCURVE",
"460 1417 OFFCURVE",
"460 1302 CURVE SMOOTH",
"460 1234 OFFCURVE",
"431 1162 OFFCURVE",
"387 1120 CURVE",
"396 1109 LINE"
);
},
{
closed = 1;
nodes = (
"242 1195 OFFCURVE",
"297 1316 OFFCURVE",
"297 1428 CURVE SMOOTH",
"297 1518 OFFCURVE",
"262 1571 OFFCURVE",
"205 1571 CURVE SMOOTH",
"163 1571 OFFCURVE",
"134 1540 OFFCURVE",
"134 1496 CURVE SMOOTH",
"134 1423 OFFCURVE",
"218 1417 OFFCURVE",
"218 1302 CURVE SMOOTH",
"218 1234 OFFCURVE",
"189 1162 OFFCURVE",
"145 1120 CURVE",
"154 1109 LINE"
);
}
);
width = 651;
}
);
leftKerningGroup = quoteright;
rightKerningGroup = quoteright;
unicode = 201D;
},
{
glyphname = quotedblbase;
lastChange = "2018-10-29 19:59:31 +0000";
layers = (
{
layerId = master01;
paths = (
{
closed = 1;
nodes = (
"497 -158 OFFCURVE",
"552 -37 OFFCURVE",
"552 75 CURVE SMOOTH",
"552 165 OFFCURVE",
"517 218 OFFCURVE",
"460 218 CURVE SMOOTH",
"418 218 OFFCURVE",
"389 187 OFFCURVE",
"389 143 CURVE SMOOTH",
"389 70 OFFCURVE",
"473 64 OFFCURVE",
"473 -51 CURVE SMOOTH",
"473 -119 OFFCURVE",
"444 -191 OFFCURVE",
"400 -233 CURVE",
"409 -244 LINE"
);
},
{
closed = 1;
nodes = (
"255 -158 OFFCURVE",
"310 -37 OFFCURVE",
"310 75 CURVE SMOOTH",
"310 165 OFFCURVE",
"275 218 OFFCURVE",
"218 218 CURVE SMOOTH",
"176 218 OFFCURVE",
"147 187 OFFCURVE",
"147 143 CURVE SMOOTH",
"147 70 OFFCURVE",
"231 64 OFFCURVE",
"231 -51 CURVE SMOOTH",
"231 -119 OFFCURVE",
"202 -191 OFFCURVE",
"158 -233 CURVE",
"167 -244 LINE"
);
}
);
width = 697;
}
);
leftKerningGroup = period;
rightKerningGroup = period;
unicode = 201E;
},
{
glyphname = dagger;
lastChange = "2018-10-29 19:59:31 +0000";
layers = (
{
layerId = master01;
paths = (
{
closed = 1;
nodes = (
"405 202 OFFCURVE",
"389 464 OFFCURVE",
"352 693 CURVE",
"381 807 OFFCURVE",
"398 953 OFFCURVE",
"414 1155 CURVE",
"264 1155 OFFCURVE",
"233 1107 OFFCURVE",
"161 1107 CURVE SMOOTH",
"117 1107 OFFCURVE",
"88 1135 OFFCURVE",
"88 1175 CURVE SMOOTH",
"88 1212 OFFCURVE",
"117 1239 OFFCURVE",
"161 1239 CURVE SMOOTH",
"233 1239 OFFCURVE",
"264 1184 OFFCURVE",
"414 1184 CURVE",
"414 1206 LINE SMOOTH",
"414 1344 OFFCURVE",
"352 1397 OFFCURVE",
"352 1465 CURVE SMOOTH",
"352 1520 OFFCURVE",
"381 1553 OFFCURVE",
"429 1553 CURVE SMOOTH",
"480 1553 OFFCURVE",
"510 1520 OFFCURVE",
"510 1465 CURVE SMOOTH",
"510 1404 OFFCURVE",
"451 1342 OFFCURVE",
"451 1206 CURVE SMOOTH",
"451 1184 LINE",
"601 1184 OFFCURVE",
"631 1239 OFFCURVE",
"704 1239 CURVE SMOOTH",
"748 1239 OFFCURVE",
"777 1212 OFFCURVE",
"777 1175 CURVE SMOOTH",
"777 1135 OFFCURVE",
"748 1107 OFFCURVE",
"704 1107 CURVE SMOOTH",
"631 1107 OFFCURVE",
"601 1155 OFFCURVE",
"451 1155 CURVE",
"462 964 OFFCURVE",
"480 816 OFFCURVE",
"510 693 CURVE",
"473 462 OFFCURVE",
"453 198 OFFCURVE",
"442 -299 CURVE",
"420 -299 LINE"
);
}
);
width = 865;
}
);
unicode = 2020;
},
{
glyphname = daggerdbl;
lastChange = "2018-10-29 19:59:31 +0000";
layers = (
{
layerId = master01;
paths = (
{
closed = 1;
nodes = (
"403 744 OFFCURVE",
"422 900 OFFCURVE",
"440 1155 CURVE",
"293 1155 OFFCURVE",
"255 1107 OFFCURVE",
"191 1107 CURVE SMOOTH",
"143 1107 OFFCURVE",
"114 1133 OFFCURVE",
"114 1175 CURVE SMOOTH",
"114 1214 OFFCURVE",
"143 1239 OFFCURVE",
"189 1239 CURVE SMOOTH",
"257 1239 OFFCURVE",
"290 1184 OFFCURVE",
"440 1184 CURVE",
"440 1206 LINE SMOOTH",
"440 1346 OFFCURVE",
"378 1393 OFFCURVE",
"378 1467 CURVE SMOOTH",
"378 1520 OFFCURVE",
"409 1553 OFFCURVE",
"455 1553 CURVE SMOOTH",
"504 1553 OFFCURVE",
"537 1520 OFFCURVE",
"537 1467 CURVE SMOOTH",
"537 1399 OFFCURVE",
"477 1344 OFFCURVE",
"477 1206 CURVE SMOOTH",
"477 1184 LINE",
"627 1184 OFFCURVE",
"660 1239 OFFCURVE",
"728 1239 CURVE SMOOTH",
"774 1239 OFFCURVE",
"803 1214 OFFCURVE",
"803 1175 CURVE SMOOTH",
"803 1133 OFFCURVE",
"774 1107 OFFCURVE",
"726 1107 CURVE SMOOTH",
"662 1107 OFFCURVE",
"625 1155 OFFCURVE",
"477 1155 CURVE",
"488 926 OFFCURVE",
"506 763 OFFCURVE",
"537 627 CURVE",
"506 488 OFFCURVE",
"488 326 OFFCURVE",
"477 99 CURVE",
"625 99 OFFCURVE",
"662 147 OFFCURVE",
"726 147 CURVE SMOOTH",
"774 147 OFFCURVE",
"803 121 OFFCURVE",
"803 79 CURVE SMOOTH",
"803 40 OFFCURVE",
"774 15 OFFCURVE",
"728 15 CURVE SMOOTH",
"660 15 OFFCURVE",
"627 70 OFFCURVE",
"477 70 CURVE",
"477 48 LINE SMOOTH",
"477 -90 OFFCURVE",
"537 -145 OFFCURVE",
"537 -213 CURVE SMOOTH",
"537 -266 OFFCURVE",
"504 -299 OFFCURVE",
"455 -299 CURVE SMOOTH",
"409 -299 OFFCURVE",
"378 -266 OFFCURVE",
"378 -213 CURVE SMOOTH",
"378 -139 OFFCURVE",
"440 -92 OFFCURVE",
"440 48 CURVE SMOOTH",
"440 70 LINE",
"290 70 OFFCURVE",
"257 15 OFFCURVE",
"189 15 CURVE SMOOTH",
"143 15 OFFCURVE",
"114 40 OFFCURVE",
"114 79 CURVE SMOOTH",
"114 121 OFFCURVE",
"143 147 OFFCURVE",
"191 147 CURVE SMOOTH",
"255 147 OFFCURVE",
"293 99 OFFCURVE",
"440 99 CURVE",
"422 352 OFFCURVE",
"403 510 OFFCURVE",
"378 627 CURVE"
);
}
);
width = 917;
}
);
unicode = 2021;
},
{
glyphname = bullet;
lastChange = "2018-10-29 19:59:31 +0000";
layers = (
{
layerId = master01;
paths = (
{
closed = 1;
nodes = (
"202 717 OFFCURVE",
"262 651 OFFCURVE",
"350 651 CURVE SMOOTH",
"438 651 OFFCURVE",
"495 717 OFFCURVE",
"495 799 CURVE SMOOTH",
"495 882 OFFCURVE",
"438 944 OFFCURVE",
"350 944 CURVE SMOOTH",
"262 944 OFFCURVE",
"202 882 OFFCURVE",
"202 799 CURVE SMOOTH"
);
}
);
width = 697;
}
);
unicode = 2022;
},
{
glyphname = ellipsis;
lastChange = "2018-10-29 19:59:31 +0000";
layers = (
{
layerId = master01;
paths = (
{
closed = 1;
nodes = (
"141 42 OFFCURVE",
"187 -9 OFFCURVE",
"255 -9 CURVE SMOOTH",
"323 -9 OFFCURVE",
"367 42 OFFCURVE",
"367 106 CURVE SMOOTH",
"367 169 OFFCURVE",
"323 218 OFFCURVE",
"255 218 CURVE SMOOTH",
"187 218 OFFCURVE",
"141 169 OFFCURVE",
"141 106 CURVE SMOOTH"
);
},
{
closed = 1;
nodes = (
"609 42 OFFCURVE",
"656 -9 OFFCURVE",
"724 -9 CURVE SMOOTH",
"792 -9 OFFCURVE",
"836 42 OFFCURVE",
"836 106 CURVE SMOOTH",
"836 169 OFFCURVE",
"792 218 OFFCURVE",
"724 218 CURVE SMOOTH",
"656 218 OFFCURVE",
"609 169 OFFCURVE",
"609 106 CURVE SMOOTH"
);
},
{
closed = 1;
nodes = (
"1078 42 OFFCURVE",
"1124 -9 OFFCURVE",
"1192 -9 CURVE SMOOTH",
"1261 -9 OFFCURVE",
"1305 42 OFFCURVE",
"1305 106 CURVE SMOOTH",
"1305 169 OFFCURVE",
"1261 218 OFFCURVE",
"1192 218 CURVE SMOOTH",
"1124 218 OFFCURVE",
"1078 169 OFFCURVE",
"1078 106 CURVE SMOOTH"
);
}
);
width = 1445;
}
);
leftKerningGroup = period;
unicode = 2026;
},
{
glyphname = guilsinglleft;
lastChange = "2018-10-29 19:59:31 +0000";
layers = (
{
layerId = master01;
paths = (
{
closed = 1;
nodes = (
"108 455 LINE",
"108 466 LINE",
"431 858 LINE",
"438 854 LINE",
"246 462 LINE",
"444 66 LINE",
"436 59 LINE"
);
}
);
width = 561;
}
);
leftKerningGroup = guilsinglleft;
rightKerningGroup = guilsinglleft;
unicode = 2039;
},
{
glyphname = guilsinglright;
lastChange = "2018-10-29 19:59:31 +0000";
layers = (
{
layerId = master01;
paths = (
{
closed = 1;
nodes = (
"315 462 LINE",
"123 854 LINE",
"130 858 LINE",
"453 466 LINE",
"453 455 LINE",
"125 59 LINE",
"117 66 LINE"
);
}
);
width = 561;
}
);
leftKerningGroup = guilsinglright;
rightKerningGroup = guilsinglright;
unicode = 203A;
},
{
glyphname = fraction;
lastChange = "2018-10-29 19:59:31 +0000";
layers = (
{
layerId = master01;
paths = (
{
closed = 1;
nodes = (
"-255 -4 LINE",
"-310 -4 LINE",
"475 1518 LINE",
"530 1518 LINE"
);
}
);
width = 220;
}
);
unicode = 2044;
},
{
glyphname = zerosuperior;
lastChange = "2018-10-29 19:59:31 +0000";
layers = (
{
layerId = master01;
paths = (
{
closed = 1;
nodes = (
"484 1879 OFFCURVE",
"601 1720 OFFCURVE",
"601 1522 CURVE SMOOTH",
"601 1324 OFFCURVE",
"484 1166 OFFCURVE",
"337 1166 CURVE SMOOTH",
"189 1166 OFFCURVE",
"73 1324 OFFCURVE",
"73 1522 CURVE SMOOTH",
"73 1720 OFFCURVE",
"189 1879 OFFCURVE",
"337 1879 CURVE SMOOTH"
);
},
{
closed = 1;
nodes = (
"211 1296 OFFCURVE",
"253 1188 OFFCURVE",
"337 1188 CURVE SMOOTH",
"420 1188 OFFCURVE",
"462 1296 OFFCURVE",
"462 1522 CURVE SMOOTH",
"462 1749 OFFCURVE",
"420 1857 OFFCURVE",
"337 1857 CURVE SMOOTH",
"253 1857 OFFCURVE",
"211 1749 OFFCURVE",
"211 1522 CURVE SMOOTH"
);
}
);
width = 673;
}
);
unicode = 2070;
},
{
glyphname = foursuperior;
lastChange = "2018-10-29 19:59:31 +0000";
layers = (
{
layerId = master01;
paths = (
{
closed = 1;
nodes = (
"227 1197 LINE",
"227 1179 LINE",
"528 1179 LINE",
"528 1197 LINE",
"442 1206 LINE",
"442 1340 LINE",
"528 1340 LINE",
"528 1423 LINE",
"442 1423 LINE",
"442 1885 LINE",
"422 1888 LINE",
"29 1346 LINE",
"31 1340 LINE",
"328 1340 LINE",
"328 1206 LINE"
);
},
{
closed = 1;
nodes = (
"112 1421 LINE",
"110 1428 LINE",
"319 1716 LINE",
"328 1716 LINE",
"328 1421 LINE"
);
}
);
width = 598;
}
);
unicode = 2074;
},
{
glyphname = fivesuperior;
lastChange = "2018-10-29 19:59:31 +0000";
layers = (
{
layerId = master01;
paths = (
{
closed = 1;
nodes = (
"440 1758 LINE",
"475 1896 LINE",
"466 1901 LINE",
"460 1888 OFFCURVE",
"451 1874 OFFCURVE",
"444 1866 CURVE",
"165 1866 LINE",
"112 1507 LINE",
"121 1505 LINE",
"152 1529 OFFCURVE",
"183 1540 OFFCURVE",
"220 1540 CURVE SMOOTH",
"310 1540 OFFCURVE",
"356 1476 OFFCURVE",
"356 1371 CURVE SMOOTH",
"356 1263 OFFCURVE",
"317 1188 OFFCURVE",
"246 1188 CURVE SMOOTH",
"130 1188 OFFCURVE",
"180 1335 OFFCURVE",
"97 1335 CURVE SMOOTH",
"70 1335 OFFCURVE",
"53 1318 OFFCURVE",
"53 1289 CURVE SMOOTH",
"53 1221 OFFCURVE",
"134 1166 OFFCURVE",
"231 1166 CURVE SMOOTH",
"376 1166 OFFCURVE",
"486 1276 OFFCURVE",
"486 1415 CURVE SMOOTH",
"486 1544 OFFCURVE",
"389 1630 OFFCURVE",
"244 1630 CURVE SMOOTH",
"216 1630 OFFCURVE",
"191 1630 OFFCURVE",
"150 1617 CURVE",
"169 1758 LINE"
);
}
);
width = 559;
}
);
unicode = 2075;
},
{
glyphname = sixsuperior;
lastChange = "2018-10-29 19:59:31 +0000";
layers = (
{
layerId = master01;
paths = (
{
closed = 1;
nodes = (
"433 1166 OFFCURVE",
"528 1261 OFFCURVE",
"528 1397 CURVE SMOOTH",
"528 1525 OFFCURVE",
"449 1610 OFFCURVE",
"326 1610 CURVE SMOOTH",
"282 1610 OFFCURVE",
"244 1593 OFFCURVE",
"218 1562 CURVE",
"231 1701 OFFCURVE",
"295 1789 OFFCURVE",
"429 1874 CURVE",
"422 1888 LINE",
"209 1808 OFFCURVE",
"70 1632 OFFCURVE",
"70 1421 CURVE SMOOTH",
"70 1265 OFFCURVE",
"158 1166 OFFCURVE",
"297 1166 CURVE SMOOTH"
);
},
{
closed = 1;
nodes = (
"244 1188 OFFCURVE",
"205 1276 OFFCURVE",
"205 1397 CURVE SMOOTH",
"205 1439 OFFCURVE",
"205 1494 OFFCURVE",
"216 1529 CURVE",
"235 1560 OFFCURVE",
"262 1575 OFFCURVE",
"290 1575 CURVE SMOOTH",
"356 1575 OFFCURVE",
"392 1505 OFFCURVE",
"392 1377 CURVE SMOOTH",
"392 1265 OFFCURVE",
"359 1188 OFFCURVE",
"304 1188 CURVE SMOOTH"
);
}
);
width = 585;
}
);
unicode = 2076;
},
{
glyphname = sevensuperior;
lastChange = "2018-10-29 19:59:31 +0000";
layers = (
{
layerId = master01;
paths = (
{
closed = 1;
nodes = (
"125 1874 OFFCURVE",
"125 1885 OFFCURVE",
"125 1894 CURVE",
"117 1896 LINE",
"51 1698 LINE",
"62 1694 LINE",
"70 1720 OFFCURVE",
"79 1738 OFFCURVE",
"97 1762 CURVE",
"376 1762 LINE",
"112 1254 LINE SMOOTH",
"108 1245 OFFCURVE",
"106 1234 OFFCURVE",
"106 1225 CURVE SMOOTH",
"106 1195 OFFCURVE",
"123 1166 OFFCURVE",
"163 1166 CURVE SMOOTH",
"191 1166 OFFCURVE",
"222 1188 OFFCURVE",
"233 1225 CURVE SMOOTH",
"328 1544 OFFCURVE",
"350 1608 OFFCURVE",
"451 1859 CURVE",
"444 1866 LINE",
"128 1866 LINE"
);
}
);
width = 480;
}
);
unicode = 2077;
},
{
glyphname = eightsuperior;
lastChange = "2018-10-29 19:59:31 +0000";
layers = (
{
layerId = master01;
paths = (
{
closed = 1;
nodes = (
"438 1613 OFFCURVE",
"493 1679 OFFCURVE",
"493 1738 CURVE SMOOTH",
"493 1819 OFFCURVE",
"414 1879 OFFCURVE",
"304 1879 CURVE SMOOTH",
"185 1879 OFFCURVE",
"97 1806 OFFCURVE",
"97 1709 CURVE SMOOTH",
"97 1628 OFFCURVE",
"145 1577 OFFCURVE",
"242 1522 CURVE",
"136 1485 OFFCURVE",
"73 1415 OFFCURVE",
"73 1344 CURVE SMOOTH",
"73 1245 OFFCURVE",
"169 1166 OFFCURVE",
"295 1166 CURVE SMOOTH",
"427 1166 OFFCURVE",
"530 1254 OFFCURVE",
"530 1368 CURVE SMOOTH",
"530 1459 OFFCURVE",
"473 1514 OFFCURVE",
"356 1584 CURVE"
);
},
{
closed = 1;
nodes = (
"251 1632 OFFCURVE",
"216 1687 OFFCURVE",
"216 1751 CURVE SMOOTH",
"216 1811 OFFCURVE",
"249 1857 OFFCURVE",
"299 1857 CURVE SMOOTH",
"352 1857 OFFCURVE",
"385 1806 OFFCURVE",
"385 1736 CURVE SMOOTH",
"385 1679 OFFCURVE",
"367 1624 OFFCURVE",
"339 1595 CURVE"
);
},
{
closed = 1;
nodes = (
"359 1459 OFFCURVE",
"400 1395 OFFCURVE",
"400 1320 CURVE SMOOTH",
"400 1245 OFFCURVE",
"361 1188 OFFCURVE",
"301 1188 CURVE SMOOTH",
"240 1188 OFFCURVE",
"205 1252 OFFCURVE",
"205 1349 CURVE SMOOTH",
"205 1423 OFFCURVE",
"224 1485 OFFCURVE",
"260 1511 CURVE"
);
}
);
width = 601;
}
);
unicode = 2078;
},
{
glyphname = ninesuperior;
lastChange = "2018-10-29 19:59:31 +0000";
layers = (
{
layerId = master01;
paths = (
{
closed = 1;
nodes = (
"152 1879 OFFCURVE",
"57 1784 OFFCURVE",
"57 1648 CURVE SMOOTH",
"57 1520 OFFCURVE",
"136 1434 OFFCURVE",
"260 1434 CURVE SMOOTH",
"304 1434 OFFCURVE",
"341 1452 OFFCURVE",
"367 1483 CURVE",
"354 1344 OFFCURVE",
"290 1256 OFFCURVE",
"156 1170 CURVE",
"163 1157 LINE",
"376 1236 OFFCURVE",
"515 1412 OFFCURVE",
"515 1624 CURVE SMOOTH",
"515 1780 OFFCURVE",
"427 1879 OFFCURVE",
"288 1879 CURVE"
);
},
{
closed = 1;
nodes = (
"341 1857 OFFCURVE",
"381 1769 OFFCURVE",
"381 1648 CURVE SMOOTH",
"381 1606 OFFCURVE",
"381 1551 OFFCURVE",
"370 1516 CURVE",
"350 1485 OFFCURVE",
"323 1470 OFFCURVE",
"295 1470 CURVE SMOOTH",
"229 1470 OFFCURVE",
"194 1540 OFFCURVE",
"194 1668 CURVE SMOOTH",
"194 1780 OFFCURVE",
"227 1857 OFFCURVE",
"282 1857 CURVE"
);
}
);
width = 585;
}
);
unicode = 2079;
},
{
glyphname = zeroinferior;
lastChange = "2018-10-29 19:59:31 +0000";
layers = (
{
layerId = master01;
paths = (
{
closed = 1;
nodes = (
"486 422 OFFCURVE",
"603 264 OFFCURVE",
"603 66 CURVE SMOOTH",
"603 -132 OFFCURVE",
"486 -290 OFFCURVE",
"339 -290 CURVE SMOOTH",
"191 -290 OFFCURVE",
"75 -132 OFFCURVE",
"75 66 CURVE SMOOTH",
"75 264 OFFCURVE",
"191 422 OFFCURVE",
"339 422 CURVE SMOOTH"
);
},
{
closed = 1;
nodes = (
"213 -161 OFFCURVE",
"255 -268 OFFCURVE",
"339 -268 CURVE SMOOTH",
"422 -268 OFFCURVE",
"464 -161 OFFCURVE",
"464 66 CURVE SMOOTH",
"464 293 OFFCURVE",
"422 400 OFFCURVE",
"339 400 CURVE SMOOTH",
"255 400 OFFCURVE",
"213 293 OFFCURVE",
"213 66 CURVE SMOOTH"
);
}
);
width = 678;
}
);
unicode = 2080;
},
{
glyphname = oneinferior;
lastChange = "2018-10-29 19:59:31 +0000";
layers = (
{
layerId = master01;
paths = (
{
closed = 1;
nodes = (
"64 319 LINE",
"64 330 LINE",
"169 341 OFFCURVE",
"218 370 OFFCURVE",
"268 433 CURVE",
"279 431 LINE",
"279 -249 LINE",
"370 -257 LINE",
"370 -275 LINE",
"64 -275 LINE",
"64 -257 LINE",
"165 -249 LINE",
"165 319 LINE"
);
}
);
width = 420;
}
);
unicode = 2081;
},
{
glyphname = twoinferior;
lastChange = "2018-10-29 19:59:31 +0000";
layers = (
{
layerId = master01;
paths = (
{
closed = 1;
nodes = (
"513 -64 LINE",
"497 -62 LINE",
"482 -123 LINE SMOOTH",
"473 -158 OFFCURVE",
"460 -167 OFFCURVE",
"418 -167 CURVE SMOOTH",
"189 -167 LINE",
"275 -81 LINE SMOOTH",
"460 103 OFFCURVE",
"495 154 OFFCURVE",
"495 231 CURVE SMOOTH",
"495 339 OFFCURVE",
"403 422 OFFCURVE",
"282 422 CURVE SMOOTH",
"185 422 OFFCURVE",
"110 372 OFFCURVE",
"73 279 CURVE",
"90 271 LINE",
"121 334 OFFCURVE",
"172 367 OFFCURVE",
"231 367 CURVE SMOOTH",
"312 367 OFFCURVE",
"359 310 OFFCURVE",
"359 209 CURVE SMOOTH",
"359 88 OFFCURVE",
"293 -33 OFFCURVE",
"156 -167 CURVE SMOOTH",
"53 -268 LINE",
"55 -277 LINE",
"486 -277 LINE"
);
}
);
width = 587;
}
);
unicode = 2082;
},
{
glyphname = threeinferior;
lastChange = "2018-10-29 19:59:31 +0000";
layers = (
{
layerId = master01;
paths = (
{
closed = 1;
nodes = (
"200 66 OFFCURVE",
"224 70 OFFCURVE",
"242 70 CURVE SMOOTH",
"310 70 OFFCURVE",
"359 -2 OFFCURVE",
"359 -110 CURVE SMOOTH",
"359 -213 OFFCURVE",
"317 -271 OFFCURVE",
"238 -271 CURVE SMOOTH",
"200 -271 OFFCURVE",
"189 -257 OFFCURVE",
"169 -200 CURVE SMOOTH",
"141 -134 OFFCURVE",
"132 -121 OFFCURVE",
"106 -121 CURVE SMOOTH",
"79 -121 OFFCURVE",
"62 -139 OFFCURVE",
"62 -169 CURVE SMOOTH",
"62 -238 OFFCURVE",
"143 -293 OFFCURVE",
"244 -293 CURVE SMOOTH",
"383 -293 OFFCURVE",
"493 -194 OFFCURVE",
"493 -73 CURVE SMOOTH",
"493 31 OFFCURVE",
"414 112 OFFCURVE",
"308 114 CURVE",
"308 123 LINE",
"392 154 OFFCURVE",
"447 224 OFFCURVE",
"447 295 CURVE SMOOTH",
"447 370 OFFCURVE",
"389 422 OFFCURVE",
"312 422 CURVE SMOOTH",
"205 422 OFFCURVE",
"128 370 OFFCURVE",
"88 268 CURVE",
"106 260 LINE",
"136 330 OFFCURVE",
"180 367 OFFCURVE",
"235 367 CURVE SMOOTH",
"293 367 OFFCURVE",
"326 328 OFFCURVE",
"326 264 CURVE SMOOTH",
"326 183 OFFCURVE",
"275 119 OFFCURVE",
"176 79 CURVE",
"185 62 LINE"
);
}
);
width = 563;
}
);
unicode = 2083;
},
{
glyphname = fourinferior;
lastChange = "2018-10-29 19:59:31 +0000";
layers = (
{
layerId = master01;
paths = (
{
closed = 1;
nodes = (
"222 -257 LINE",
"222 -275 LINE",
"524 -275 LINE",
"524 -257 LINE",
"438 -249 LINE",
"438 -114 LINE",
"524 -114 LINE",
"524 -31 LINE",
"438 -31 LINE",
"438 431 LINE",
"418 433 LINE",
"24 -108 LINE",
"26 -114 LINE",
"323 -114 LINE",
"323 -249 LINE"
);
},
{
closed = 1;
nodes = (
"108 -33 LINE",
"106 -26 LINE",
"315 262 LINE",
"323 262 LINE",
"323 -33 LINE"
);
}
);
width = 592;
}
);
unicode = 2084;
},
{
glyphname = fiveinferior;
lastChange = "2018-10-29 19:59:31 +0000";
layers = (
{
layerId = master01;
paths = (
{
closed = 1;
nodes = (
"440 301 LINE",
"475 440 LINE",
"466 444 LINE",
"460 431 OFFCURVE",
"451 418 OFFCURVE",
"444 409 CURVE",
"165 409 LINE",
"112 51 LINE",
"121 48 LINE",
"152 73 OFFCURVE",
"183 84 OFFCURVE",
"220 84 CURVE SMOOTH",
"310 84 OFFCURVE",
"356 20 OFFCURVE",
"356 -86 CURVE SMOOTH",
"356 -194 OFFCURVE",
"317 -268 OFFCURVE",
"246 -268 CURVE SMOOTH",
"130 -268 OFFCURVE",
"180 -121 OFFCURVE",
"97 -121 CURVE SMOOTH",
"70 -121 OFFCURVE",
"53 -139 OFFCURVE",
"53 -167 CURVE SMOOTH",
"53 -235 OFFCURVE",
"134 -290 OFFCURVE",
"231 -290 CURVE SMOOTH",
"376 -290 OFFCURVE",
"486 -180 OFFCURVE",
"486 -42 CURVE SMOOTH",
"486 88 OFFCURVE",
"389 174 OFFCURVE",
"244 174 CURVE SMOOTH",
"216 174 OFFCURVE",
"191 174 OFFCURVE",
"150 161 CURVE",
"169 301 LINE"
);
}
);
width = 559;
}
);
unicode = 2085;
},
{
glyphname = sixinferior;
lastChange = "2018-10-29 19:59:31 +0000";
layers = (
{
layerId = master01;
paths = (
{
closed = 1;
nodes = (
"433 -290 OFFCURVE",
"528 -196 OFFCURVE",
"528 -59 CURVE SMOOTH",
"528 68 OFFCURVE",
"449 154 OFFCURVE",
"326 154 CURVE SMOOTH",
"282 154 OFFCURVE",
"244 136 OFFCURVE",
"218 106 CURVE",
"231 244 OFFCURVE",
"295 332 OFFCURVE",
"429 418 CURVE",
"422 431 LINE",
"209 352 OFFCURVE",
"70 176 OFFCURVE",
"70 -35 CURVE SMOOTH",
"70 -191 OFFCURVE",
"158 -290 OFFCURVE",
"297 -290 CURVE SMOOTH"
);
},
{
closed = 1;
nodes = (
"244 -268 OFFCURVE",
"205 -180 OFFCURVE",
"205 -59 CURVE SMOOTH",
"205 -18 OFFCURVE",
"205 37 OFFCURVE",
"216 73 CURVE",
"235 103 OFFCURVE",
"262 119 OFFCURVE",
"290 119 CURVE SMOOTH",
"356 119 OFFCURVE",
"392 48 OFFCURVE",
"392 -79 CURVE SMOOTH",
"392 -191 OFFCURVE",
"359 -268 OFFCURVE",
"304 -268 CURVE SMOOTH"
);
}
);
width = 585;
}
);
unicode = 2086;
},
{
glyphname = seveninferior;
lastChange = "2018-10-29 19:59:31 +0000";
layers = (
{
layerId = master01;
paths = (
{
closed = 1;
nodes = (
"125 418 OFFCURVE",
"125 429 OFFCURVE",
"125 438 CURVE",
"117 440 LINE",
"51 242 LINE",
"62 238 LINE",
"70 264 OFFCURVE",
"79 282 OFFCURVE",
"97 306 CURVE",
"376 306 LINE",
"112 -202 LINE SMOOTH",
"108 -211 OFFCURVE",
"106 -222 OFFCURVE",
"106 -231 CURVE SMOOTH",
"106 -262 OFFCURVE",
"123 -290 OFFCURVE",
"163 -290 CURVE SMOOTH",
"191 -290 OFFCURVE",
"222 -268 OFFCURVE",
"233 -231 CURVE SMOOTH",
"328 88 OFFCURVE",
"350 152 OFFCURVE",
"451 403 CURVE",
"444 409 LINE",
"128 409 LINE"
);
}
);
width = 480;
}
);
unicode = 2087;
},
{
glyphname = eightinferior;
lastChange = "2018-10-29 19:59:31 +0000";
layers = (
{
layerId = master01;
paths = (
{
closed = 1;
nodes = (
"438 156 OFFCURVE",
"493 222 OFFCURVE",
"493 282 CURVE SMOOTH",
"493 363 OFFCURVE",
"414 422 OFFCURVE",
"304 422 CURVE SMOOTH",
"185 422 OFFCURVE",
"97 350 OFFCURVE",
"97 253 CURVE SMOOTH",
"97 172 OFFCURVE",
"145 121 OFFCURVE",
"242 66 CURVE",
"136 29 OFFCURVE",
"73 -42 OFFCURVE",
"73 -112 CURVE SMOOTH",
"73 -211 OFFCURVE",
"169 -290 OFFCURVE",
"295 -290 CURVE SMOOTH",
"427 -290 OFFCURVE",
"530 -202 OFFCURVE",
"530 -88 CURVE SMOOTH",
"530 2 OFFCURVE",
"473 57 OFFCURVE",
"356 128 CURVE"
);
},
{
closed = 1;
nodes = (
"251 176 OFFCURVE",
"216 231 OFFCURVE",
"216 295 CURVE SMOOTH",
"216 354 OFFCURVE",
"249 400 OFFCURVE",
"299 400 CURVE SMOOTH",
"352 400 OFFCURVE",
"385 350 OFFCURVE",
"385 279 CURVE SMOOTH",
"385 222 OFFCURVE",
"367 167 OFFCURVE",
"339 139 CURVE"
);
},
{
closed = 1;
nodes = (
"359 2 OFFCURVE",
"400 -62 OFFCURVE",
"400 -136 CURVE SMOOTH",
"400 -211 OFFCURVE",
"361 -268 OFFCURVE",
"301 -268 CURVE SMOOTH",
"240 -268 OFFCURVE",
"205 -205 OFFCURVE",
"205 -108 CURVE SMOOTH",
"205 -33 OFFCURVE",
"224 29 OFFCURVE",
"260 55 CURVE"
);
}
);
width = 603;
}
);
unicode = 2088;
},
{
glyphname = nineinferior;
lastChange = "2018-10-29 19:59:31 +0000";
layers = (
{
layerId = master01;
paths = (
{
closed = 1;
nodes = (
"152 422 OFFCURVE",
"57 328 OFFCURVE",
"57 191 CURVE SMOOTH",
"57 64 OFFCURVE",
"136 -22 OFFCURVE",
"260 -22 CURVE SMOOTH",
"304 -22 OFFCURVE",
"341 -4 OFFCURVE",
"367 26 CURVE",
"354 -112 OFFCURVE",
"290 -200 OFFCURVE",
"156 -286 CURVE",
"163 -299 LINE",
"376 -220 OFFCURVE",
"515 -44 OFFCURVE",
"515 167 CURVE SMOOTH",
"515 323 OFFCURVE",
"427 422 OFFCURVE",
"288 422 CURVE"
);
},
{
closed = 1;
nodes = (
"341 400 OFFCURVE",
"381 312 OFFCURVE",
"381 191 CURVE SMOOTH",
"381 150 OFFCURVE",
"381 95 OFFCURVE",
"370 59 CURVE",
"350 29 OFFCURVE",
"323 13 OFFCURVE",
"295 13 CURVE SMOOTH",
"229 13 OFFCURVE",
"194 84 OFFCURVE",
"194 211 CURVE SMOOTH",
"194 323 OFFCURVE",
"227 400 OFFCURVE",
"282 400 CURVE"
);
}
);
width = 585;
}
);
unicode = 2089;
},
{
glyphname = colonmonetary;
lastChange = "2018-10-29 19:59:31 +0000";
layers = (
{
layerId = master01;
paths = (
{
closed = 1;
nodes = (
"728 955 OFFCURVE",
"858 871 OFFCURVE",
"858 763 CURVE SMOOTH",
"858 713 OFFCURVE",
"827 680 OFFCURVE",
"777 680 CURVE SMOOTH",
"636 680 OFFCURVE",
"741 933 OFFCURVE",
"557 933 CURVE SMOOTH",
"396 933 OFFCURVE",
"277 746 OFFCURVE",
"277 488 CURVE SMOOTH",
"277 233 OFFCURVE",
"392 86 OFFCURVE",
"590 86 CURVE SMOOTH",
"700 86 OFFCURVE",
"783 130 OFFCURVE",
"856 224 CURVE SMOOTH",
"876 251 LINE",
"884 246 LINE",
"876 222 LINE SMOOTH",
"818 68 OFFCURVE",
"693 -22 OFFCURVE",
"532 -22 CURVE SMOOTH",
"297 -22 OFFCURVE",
"130 176 OFFCURVE",
"130 455 CURVE SMOOTH",
"130 746 OFFCURVE",
"310 955 OFFCURVE",
"565 955 CURVE SMOOTH {name = hr00;}"
);
},
{
closed = 1;
nodes = (
"284 -176 LINE",
"238 -176 LINE",
"521 1166 LINE",
"568 1166 LINE"
);
},
{
closed = 1;
nodes = (
"460 -176 LINE",
"414 -176 LINE",
"697 1166 LINE",
"744 1166 LINE"
);
}
);
width = 1012;
}
);
unicode = 20A1;
},
{
glyphname = franc;
lastChange = "2018-10-29 19:59:31 +0000";
layers = (
{
layerId = master01;
paths = (
{
closed = 1;
nodes = (
"471 35 LINE",
"686 18 LINE",
"686 0 LINE",
"121 0 LINE",
"121 18 LINE",
"301 35 LINE",
"301 1483 LINE",
"121 1500 LINE",
"121 1518 LINE",
"1151 1518 LINE",
"1186 1080 LINE",
"1168 1078 LINE",
"1036 1410 LINE SMOOTH",
"1010 1476 OFFCURVE",
"988 1492 OFFCURVE",
"917 1492 CURVE SMOOTH",
"471 1492 LINE"
);
},
{
closed = 1;
nodes = (
"860 816 OFFCURVE",
"882 834 OFFCURVE",
"895 902 CURVE SMOOTH",
"933 1080 LINE",
"959 1080 LINE",
"959 517 LINE",
"933 517 LINE",
"895 695 LINE SMOOTH",
"882 763 OFFCURVE",
"860 781 OFFCURVE",
"790 781 CURVE SMOOTH",
"444 781 LINE",
"444 816 LINE",
"790 816 LINE SMOOTH"
);
},
{
closed = 1;
nodes = (
"722 407 LINE",
"706 359 LINE",
"112 359 LINE",
"128 407 LINE"
);
}
);
width = 1265;
}
);
unicode = 20A3;
},
{
glyphname = lira;
lastChange = "2018-10-29 19:59:31 +0000";
layers = (
{
layerId = master01;
paths = (
{
closed = 1;
nodes = (
"867 1525 OFFCURVE",
"840 1448 OFFCURVE",
"724 862 CURVE SMOOTH",
"638 438 OFFCURVE",
"634 425 OFFCURVE",
"532 209 CURVE",
"658 150 OFFCURVE",
"785 117 OFFCURVE",
"898 117 CURVE SMOOTH",
"1069 117 OFFCURVE",
"1179 191 OFFCURVE",
"1206 326 CURVE",
"1217 326 LINE",
"1217 119 OFFCURVE",
"1098 -18 OFFCURVE",
"913 -18 CURVE SMOOTH",
"779 -18 OFFCURVE",
"631 53 OFFCURVE",
"513 176 CURVE",
"414 31 OFFCURVE",
"341 -20 OFFCURVE",
"240 -20 CURVE SMOOTH",
"136 -20 OFFCURVE",
"70 35 OFFCURVE",
"70 121 CURVE SMOOTH",
"70 222 OFFCURVE",
"161 295 OFFCURVE",
"286 295 CURVE SMOOTH",
"321 295 OFFCURVE",
"361 290 OFFCURVE",
"414 277 CURVE",
"453 444 OFFCURVE",
"455 460 OFFCURVE",
"554 968 CURVE SMOOTH",
"629 1355 OFFCURVE",
"770 1553 OFFCURVE",
"970 1553 CURVE SMOOTH",
"1113 1553 OFFCURVE",
"1250 1454 OFFCURVE",
"1250 1353 CURVE SMOOTH",
"1250 1302 OFFCURVE",
"1217 1269 OFFCURVE",
"1170 1269 CURVE SMOOTH",
"1041 1269 OFFCURVE",
"1107 1525 OFFCURVE",
"957 1525 CURVE SMOOTH"
);
},
{
closed = 1;
nodes = (
"367 262 OFFCURVE",
"326 268 OFFCURVE",
"290 268 CURVE SMOOTH",
"180 268 OFFCURVE",
"101 207 OFFCURVE",
"101 121 CURVE SMOOTH",
"101 51 OFFCURVE",
"150 7 OFFCURVE",
"227 7 CURVE SMOOTH",
"315 7 OFFCURVE",
"363 70 OFFCURVE",
"409 249 CURVE"
);
},
{
closed = 1;
nodes = (
"326 876 LINE",
"1122 876 LINE",
"1111 827 LINE",
"315 827 LINE"
);
},
{
closed = 1;
nodes = (
"326 618 LINE",
"1122 618 LINE",
"1111 570 LINE",
"315 570 LINE"
);
}
);
width = 1377;
}
);
unicode = 20A4;
},
{
glyphname = uni20A6;
lastChange = "2018-10-29 19:59:31 +0000";
layers = (
{
layerId = master01;
paths = (
{
closed = 1;
nodes = (
"154 1518 LINE",
"482 1518 LINE",
"1349 304 LINE",
"1393 304 LINE",
"1393 -35 LINE",
"1371 -35 LINE",
"383 1366 LINE",
"363 1366 LINE",
"352 1397 LINE",
"330 1428 LINE SMOOTH",
"290 1485 OFFCURVE",
"262 1500 OFFCURVE",
"191 1500 CURVE SMOOTH",
"154 1500 LINE"
);
},
{
closed = 1;
nodes = (
"1357 1384 LINE SMOOTH",
"1357 1454 OFFCURVE",
"1344 1478 OFFCURVE",
"1291 1483 CURVE SMOOTH",
"1113 1500 LINE",
"1113 1518 LINE",
"1639 1518 LINE",
"1639 1500 LINE",
"1481 1483 LINE SMOOTH",
"1410 1474 OFFCURVE",
"1393 1454 OFFCURVE",
"1393 1384 CURVE SMOOTH",
"1393 150 LINE",
"1357 150 LINE"
);
},
{
closed = 1;
nodes = (
"374 134 LINE SMOOTH",
"374 64 OFFCURVE",
"387 42 OFFCURVE",
"440 35 CURVE SMOOTH",
"596 18 LINE",
"596 0 LINE",
"114 0 LINE",
"114 18 LINE",
"273 35 LINE SMOOTH",
"326 42 OFFCURVE",
"339 64 OFFCURVE",
"339 134 CURVE SMOOTH",
"339 1456 LINE",
"374 1461 LINE"
);
},
{
closed = 1;
nodes = (
"158 979 LINE",
"1584 979 LINE",
"1573 931 LINE",
"147 931 LINE"
);
},
{
closed = 1;
nodes = (
"158 722 LINE",
"1584 722 LINE",
"1573 673 LINE",
"147 673 LINE"
);
}
);
width = 1720;
}
);
unicode = 20A6;
},
{
glyphname = uni20A9;
lastChange = "2018-10-29 19:59:31 +0000";
layers = (
{
layerId = master01;
paths = (
{
closed = 1;
nodes = (
"818 -35 LINE",
"783 -35 LINE",
"249 1483 LINE",
"68 1500 LINE",
"68 1518 LINE",
"618 1518 LINE",
"618 1500 LINE",
"427 1483 LINE",
"860 246 LINE",
"869 246 LINE",
"1173 1243 LINE",
"1208 1243 LINE"
);
},
{
closed = 1;
nodes = (
"1784 1518 LINE",
"2253 1518 LINE",
"2253 1500 LINE",
"2130 1489 LINE SMOOTH",
"2050 1483 OFFCURVE",
"2031 1467 OFFCURVE",
"2011 1401 CURVE SMOOTH",
"1573 -35 LINE",
"1538 -35 LINE",
"1003 1483 LINE",
"823 1500 LINE",
"823 1518 LINE",
"1373 1518 LINE",
"1373 1500 LINE",
"1181 1483 LINE",
"1615 246 LINE",
"1624 246 LINE",
"1976 1401 LINE SMOOTH",
"1980 1417 OFFCURVE",
"1982 1430 OFFCURVE",
"1982 1443 CURVE SMOOTH",
"1982 1474 OFFCURVE",
"1969 1485 OFFCURVE",
"1918 1489 CURVE SMOOTH",
"1784 1500 LINE"
);
},
{
closed = 1;
nodes = (
"288 847 LINE",
"2044 847 LINE",
"2033 799 LINE",
"277 799 LINE"
);
},
{
closed = 1;
nodes = (
"288 590 LINE",
"2044 590 LINE",
"2033 541 LINE",
"277 541 LINE"
);
}
);
width = 2321;
}
);
unicode = 20A9;
},
{
glyphname = Euro;
lastChange = "2018-10-29 19:59:31 +0000";
layers = (
{
layerId = master01;
paths = (
{
closed = 1;
nodes = (
"917 924 LINE",
"123 924 LINE",
"112 876 LINE",
"906 876 LINE"
);
},
{
closed = 1;
nodes = (
"878 667 LINE",
"84 667 LINE",
"73 618 LINE",
"867 618 LINE"
);
},
{
closed = 1;
nodes = (
"880 1527 OFFCURVE",
"924 1483 OFFCURVE",
"966 1335 CURVE SMOOTH",
"981 1276 OFFCURVE",
"1008 1250 OFFCURVE",
"1052 1250 CURVE SMOOTH",
"1100 1250 OFFCURVE",
"1135 1285 OFFCURVE",
"1135 1335 CURVE SMOOTH",
"1135 1448 OFFCURVE",
"975 1553 OFFCURVE",
"805 1553 CURVE SMOOTH",
"488 1553 OFFCURVE",
"242 1208 OFFCURVE",
"242 761 CURVE SMOOTH",
"242 319 OFFCURVE",
"488 -35 OFFCURVE",
"799 -35 CURVE SMOOTH",
"966 -35 OFFCURVE",
"1135 75 OFFCURVE",
"1135 183 CURVE SMOOTH",
"1135 233 OFFCURVE",
"1100 268 OFFCURVE",
"1052 268 CURVE SMOOTH",
"1008 268 OFFCURVE",
"981 242 OFFCURVE",
"966 183 CURVE SMOOTH",
"924 40 OFFCURVE",
"876 -9 OFFCURVE",
"781 -9 CURVE SMOOTH",
"568 -9 OFFCURVE",
"453 260 OFFCURVE",
"453 757 CURVE SMOOTH",
"453 1256 OFFCURVE",
"572 1527 OFFCURVE",
"788 1527 CURVE SMOOTH"
);
}
);
width = 1265;
}
);
unicode = 20AC;
},
{
glyphname = uni20B9;
lastChange = "2018-10-29 19:59:31 +0000";
layers = (
{
layerId = master01;
paths = (
{
closed = 1;
nodes = (
"651 722 LINE",
"1054 92 LINE SMOOTH",
"1091 33 OFFCURVE",
"1120 18 OFFCURVE",
"1190 18 CURVE SMOOTH",
"1221 18 LINE",
"1221 0 LINE",
"994 0 LINE SMOOTH",
"924 0 OFFCURVE",
"898 15 OFFCURVE",
"860 75 CURVE SMOOTH",
"524 618 LINE SMOOTH",
"482 684 OFFCURVE",
"471 693 OFFCURVE",
"398 693 CURVE SMOOTH",
"189 693 LINE",
"189 722 LINE"
);
},
{
closed = 1;
nodes = (
"442 1518 LINE SMOOTH",
"788 1518 OFFCURVE",
"975 1375 OFFCURVE",
"975 1111 CURVE SMOOTH",
"975 847 OFFCURVE",
"785 700 OFFCURVE",
"442 700 CURVE SMOOTH",
"161 700 LINE",
"161 726 LINE",
"436 726 LINE SMOOTH",
"671 726 OFFCURVE",
"781 849 OFFCURVE",
"781 1107 CURVE SMOOTH",
"781 1366 OFFCURVE",
"669 1492 OFFCURVE",
"436 1492 CURVE SMOOTH",
"161 1492 LINE",
"161 1518 LINE"
);
},
{
closed = 1;
nodes = (
"158 1518 LINE",
"1129 1518 LINE",
"1118 1470 LINE",
"147 1470 LINE"
);
},
{
closed = 1;
nodes = (
"158 1261 LINE",
"1129 1261 LINE",
"1118 1212 LINE",
"147 1212 LINE"
);
}
);
width = 1296;
}
);
unicode = 20B9;
},
{
glyphname = uni20BA;
lastChange = "2018-10-29 19:59:31 +0000";
layers = (
{
layerId = master01;
paths = (
{
closed = 1;
nodes = (
"689 1500 LINE",
"689 1518 LINE",
"158 1518 LINE",
"158 1500 LINE",
"339 1483 LINE",
"339 35 LINE",
"158 18 LINE",
"158 0 LINE",
"508 0 LINE SMOOTH",
"684 0 OFFCURVE",
"860 92 OFFCURVE",
"988 249 CURVE SMOOTH",
"1069 348 OFFCURVE",
"1118 460 OFFCURVE",
"1118 552 CURVE SMOOTH",
"1118 627 OFFCURVE",
"1085 673 OFFCURVE",
"1027 673 CURVE SMOOTH",
"966 673 OFFCURVE",
"942 623 OFFCURVE",
"917 469 CURVE SMOOTH",
"871 174 OFFCURVE",
"739 35 OFFCURVE",
"508 35 CURVE",
"508 1483 LINE"
);
},
{
closed = 1;
nodes = (
"121 772 LINE",
"147 735 LINE",
"763 1181 LINE",
"737 1217 LINE"
);
},
{
closed = 1;
nodes = (
"121 557 LINE",
"147 521 LINE",
"766 968 LINE",
"737 1003 LINE"
);
}
);
width = 1195;
}
);
unicode = 20BA;
},
{
glyphname = uni2113;
lastChange = "2018-10-29 19:59:31 +0000";
layers = (
{
layerId = master01;
paths = (
{
closed = 1;
nodes = (
"845 169 OFFCURVE",
"755 90 OFFCURVE",
"642 90 CURVE SMOOTH",
"506 90 OFFCURVE",
"422 176 OFFCURVE",
"422 477 CURVE SMOOTH",
"422 671 LINE",
"627 869 OFFCURVE",
"777 1074 OFFCURVE",
"777 1335 CURVE SMOOTH",
"777 1489 OFFCURVE",
"711 1635 OFFCURVE",
"565 1635 CURVE SMOOTH",
"493 1635 OFFCURVE",
"427 1602 OFFCURVE",
"363 1531 CURVE SMOOTH",
"262 1417 OFFCURVE",
"238 1294 OFFCURVE",
"238 926 CURVE SMOOTH",
"238 642 LINE",
"64 506 LINE",
"90 453 LINE",
"240 559 LINE",
"240 385 LINE SMOOTH",
"240 200 OFFCURVE",
"268 119 OFFCURVE",
"323 57 CURVE SMOOTH",
"374 0 OFFCURVE",
"451 -31 OFFCURVE",
"559 -31 CURVE SMOOTH",
"733 -31 OFFCURVE",
"858 57 OFFCURVE",
"953 224 CURVE",
"909 264 LINE {name = hr00;}"
);
},
{
closed = 1;
nodes = (
"422 1421 OFFCURVE",
"451 1564 OFFCURVE",
"543 1564 CURVE SMOOTH",
"620 1564 OFFCURVE",
"658 1454 OFFCURVE",
"658 1331 CURVE SMOOTH",
"658 1124 OFFCURVE",
"557 924 OFFCURVE",
"422 772 CURVE",
"422 1063 LINE SMOOTH"
);
}
);
width = 997;
}
);
unicode = 2113;
},
{
glyphname = afii61352;
lastChange = "2018-10-29 19:59:31 +0000";
layers = (
{
layerId = master01;
paths = (
{
closed = 1;
nodes = (
"117 1518 LINE",
"444 1518 LINE",
"1311 304 LINE",
"1355 304 LINE",
"1355 -35 LINE",
"1333 -35 LINE",
"345 1366 LINE",
"326 1366 LINE",
"315 1397 LINE",
"293 1428 LINE SMOOTH",
"253 1485 OFFCURVE",
"224 1500 OFFCURVE",
"154 1500 CURVE SMOOTH",
"117 1500 LINE {name = hr00;}"
);
},
{
closed = 1;
nodes = (
"1320 1384 LINE SMOOTH",
"1320 1454 OFFCURVE",
"1307 1478 OFFCURVE",
"1254 1483 CURVE SMOOTH",
"1076 1500 LINE",
"1076 1518 LINE",
"1602 1518 LINE",
"1602 1500 LINE",
"1443 1483 LINE SMOOTH",
"1373 1474 OFFCURVE",
"1355 1454 OFFCURVE",
"1355 1384 CURVE SMOOTH",
"1355 150 LINE",
"1320 150 LINE"
);
},
{
closed = 1;
nodes = (
"337 134 LINE SMOOTH",
"337 64 OFFCURVE",
"350 42 OFFCURVE",
"403 35 CURVE SMOOTH",
"559 18 LINE",
"559 0 LINE",
"77 0 LINE",
"77 18 LINE",
"235 35 LINE SMOOTH",
"288 42 OFFCURVE",
"301 64 OFFCURVE",
"301 134 CURVE SMOOTH",
"301 1456 LINE",
"337 1461 LINE"
);
},
{
closed = 1;
nodes = (
"1670 1445 OFFCURVE",
"1742 1531 OFFCURVE",
"1852 1531 CURVE SMOOTH",
"1962 1531 OFFCURVE",
"2035 1452 OFFCURVE",
"2035 1349 CURVE SMOOTH",
"2035 1245 OFFCURVE",
"1962 1166 OFFCURVE",
"1852 1166 CURVE SMOOTH",
"1742 1166 OFFCURVE",
"1670 1245 OFFCURVE",
"1670 1349 CURVE SMOOTH"
);
},
{
closed = 1;
nodes = (
"1707 1269 OFFCURVE",
"1769 1203 OFFCURVE",
"1852 1203 CURVE SMOOTH",
"1934 1203 OFFCURVE",
"1995 1269 OFFCURVE",
"1995 1349 CURVE SMOOTH",
"1995 1428 OFFCURVE",
"1934 1492 OFFCURVE",
"1852 1492 CURVE SMOOTH",
"1769 1492 OFFCURVE",
"1707 1428 OFFCURVE",
"1707 1349 CURVE SMOOTH"
);
},
{
closed = 1;
nodes = (
"2028 1065 LINE",
"2028 1030 LINE",
"1679 1030 LINE",
"1679 1065 LINE"
);
}
);
width = 2123;
}
);
unicode = 2116;
},
{
glyphname = servicemark;
lastChange = "2018-10-29 19:59:31 +0000";
layers = (
{
layerId = master01;
paths = (
{
closed = 1;
nodes = (
"700 1861 LINE",
"913 1861 LINE",
"1126 1364 LINE",
"1135 1364 LINE",
"1322 1861 LINE",
"1357 1861 LINE",
"1331 1786 LINE",
"1322 1786 LINE",
"1089 1164 LINE",
"1080 1164 LINE",
"814 1786 LINE",
"805 1786 LINE",
"796 1795 LINE",
"796 1806 LINE",
"783 1835 OFFCURVE",
"777 1844 OFFCURVE",
"746 1844 CURVE SMOOTH",
"700 1844 LINE"
);
},
{
closed = 1;
nodes = (
"805 1250 LINE SMOOTH",
"805 1219 OFFCURVE",
"810 1208 OFFCURVE",
"834 1206 CURVE SMOOTH",
"904 1197 LINE",
"904 1179 LINE",
"678 1179 LINE",
"678 1197 LINE",
"750 1206 LINE SMOOTH",
"774 1208 OFFCURVE",
"781 1219 OFFCURVE",
"781 1250 CURVE SMOOTH",
"781 1850 LINE",
"805 1850 LINE"
);
},
{
closed = 1;
nodes = (
"1529 1844 LINE",
"1461 1835 LINE",
"1461 1206 LINE",
"1547 1197 LINE",
"1547 1179 LINE",
"1250 1179 LINE",
"1250 1197 LINE",
"1331 1206 LINE",
"1331 1824 LINE",
"1338 1861 LINE",
"1538 1861 LINE"
);
},
{
closed = 1;
nodes = (
"308 1162 OFFCURVE",
"246 1181 OFFCURVE",
"205 1214 CURVE",
"185 1162 LINE",
"172 1162 LINE",
"158 1397 LINE",
"172 1399 LINE",
"191 1316 OFFCURVE",
"207 1278 OFFCURVE",
"242 1241 CURVE SMOOTH",
"275 1206 OFFCURVE",
"308 1184 OFFCURVE",
"367 1184 CURVE SMOOTH",
"455 1184 OFFCURVE",
"502 1232 OFFCURVE",
"502 1307 CURVE SMOOTH",
"502 1393 OFFCURVE",
"440 1419 OFFCURVE",
"341 1465 CURVE SMOOTH",
"251 1507 OFFCURVE",
"165 1562 OFFCURVE",
"165 1681 CURVE SMOOTH",
"165 1797 OFFCURVE",
"251 1874 OFFCURVE",
"367 1874 CURVE SMOOTH",
"420 1874 OFFCURVE",
"464 1859 OFFCURVE",
"519 1815 CURVE",
"543 1863 LINE",
"557 1863 LINE",
"565 1648 LINE",
"552 1646 LINE",
"539 1694 OFFCURVE",
"526 1734 OFFCURVE",
"510 1762 CURVE SMOOTH",
"477 1824 OFFCURVE",
"425 1852 OFFCURVE",
"367 1852 CURVE SMOOTH",
"293 1852 OFFCURVE",
"251 1806 OFFCURVE",
"251 1736 CURVE SMOOTH",
"251 1654 OFFCURVE",
"306 1626 OFFCURVE",
"409 1577 CURVE SMOOTH",
"508 1531 OFFCURVE",
"585 1478 OFFCURVE",
"585 1364 CURVE SMOOTH",
"585 1241 OFFCURVE",
"495 1162 OFFCURVE",
"370 1162 CURVE SMOOTH"
);
}
);
width = 1674;
}
);
unicode = 2120;
},
{
glyphname = trademark;
lastChange = "2018-10-29 19:59:31 +0000";
layers = (
{
layerId = master01;
paths = (
{
closed = 1;
nodes = (
"191 1839 OFFCURVE",
"180 1833 OFFCURVE",
"167 1802 CURVE SMOOTH",
"106 1661 LINE",
"99 1663 LINE",
"136 1877 LINE",
"150 1877 LINE",
"169 1866 OFFCURVE",
"187 1861 OFFCURVE",
"220 1861 CURVE SMOOTH",
"638 1861 LINE SMOOTH",
"669 1861 OFFCURVE",
"684 1866 OFFCURVE",
"708 1877 CURVE",
"719 1877 LINE",
"741 1663 LINE",
"735 1661 LINE",
"678 1802 LINE SMOOTH",
"664 1833 OFFCURVE",
"656 1839 OFFCURVE",
"623 1839 CURVE SMOOTH",
"475 1839 LINE",
"475 1206 LINE",
"581 1197 LINE",
"581 1179 LINE",
"253 1179 LINE",
"253 1197 LINE",
"361 1206 LINE",
"361 1839 LINE",
"224 1839 LINE SMOOTH"
);
},
{
closed = 1;
nodes = (
"788 1861 LINE",
"1001 1861 LINE",
"1214 1364 LINE",
"1223 1364 LINE",
"1410 1861 LINE",
"1445 1861 LINE",
"1419 1786 LINE",
"1410 1786 LINE",
"1177 1164 LINE",
"1168 1164 LINE",
"902 1786 LINE",
"893 1786 LINE",
"884 1795 LINE",
"884 1806 LINE",
"871 1835 OFFCURVE",
"865 1844 OFFCURVE",
"834 1844 CURVE SMOOTH",
"788 1844 LINE"
);
},
{
closed = 1;
nodes = (
"893 1250 LINE SMOOTH",
"893 1219 OFFCURVE",
"898 1208 OFFCURVE",
"922 1206 CURVE SMOOTH",
"992 1197 LINE",
"992 1179 LINE",
"766 1179 LINE",
"766 1197 LINE",
"838 1206 LINE SMOOTH",
"862 1208 OFFCURVE",
"869 1219 OFFCURVE",
"869 1250 CURVE SMOOTH",
"869 1850 LINE",
"893 1850 LINE"
);
},
{
closed = 1;
nodes = (
"1617 1844 LINE",
"1549 1835 LINE",
"1549 1206 LINE",
"1635 1197 LINE",
"1635 1179 LINE",
"1338 1179 LINE",
"1338 1197 LINE",
"1419 1206 LINE",
"1419 1824 LINE",
"1426 1861 LINE",
"1626 1861 LINE"
);
}
);
width = 1764;
}
);
unicode = 2122;
},
{
glyphname = Omega;
lastChange = "2018-10-29 19:59:31 +0000";
layers = (
{
layerId = master01;
paths = (
{
closed = 1;
nodes = (
"1670 323 LINE",
"1615 167 OFFCURVE",
"1591 147 OFFCURVE",
"1487 147 CURVE SMOOTH",
"1214 147 LINE",
"1397 315 OFFCURVE",
"1626 546 OFFCURVE",
"1626 858 CURVE SMOOTH",
"1626 1294 OFFCURVE",
"1331 1553 OFFCURVE",
"917 1553 CURVE SMOOTH",
"515 1553 OFFCURVE",
"200 1274 OFFCURVE",
"200 838 CURVE SMOOTH",
"200 477 OFFCURVE",
"449 271 OFFCURVE",
"605 147 CURVE",
"343 147 LINE SMOOTH",
"244 147 OFFCURVE",
"209 176 OFFCURVE",
"156 323 CURVE",
"101 321 LINE",
"158 0 LINE",
"730 0 LINE",
"748 46 LINE",
"609 244 OFFCURVE",
"427 497 OFFCURVE",
"427 821 CURVE SMOOTH",
"427 1302 OFFCURVE",
"645 1485 OFFCURVE",
"913 1485 CURVE SMOOTH",
"1157 1485 OFFCURVE",
"1404 1318 OFFCURVE",
"1404 834 CURVE SMOOTH",
"1404 493 OFFCURVE",
"1181 211 OFFCURVE",
"1076 46 CURVE",
"1091 0 LINE",
"1668 0 LINE",
"1729 321 LINE {name = hr00;}"
);
}
);
width = 1828;
}
);
unicode = 2126;
},
{
glyphname = estimated;
lastChange = "2018-10-29 19:59:31 +0000";
layers = (
{
layerId = master01;
paths = (
{
closed = 1;
nodes = (
"1877 757 LINE SMOOTH",
"1877 1195 OFFCURVE",
"1481 1549 OFFCURVE",
"994 1549 CURVE SMOOTH",
"508 1549 OFFCURVE",
"114 1195 OFFCURVE",
"114 757 CURVE SMOOTH",
"114 321 OFFCURVE",
"508 -33 OFFCURVE",
"994 -33 CURVE SMOOTH",
"1278 -33 OFFCURVE",
"1533 88 OFFCURVE",
"1690 273 CURVE",
"1564 273 LINE",
"1426 114 OFFCURVE",
"1223 20 OFFCURVE",
"997 20 CURVE SMOOTH",
"785 20 OFFCURVE",
"594 101 OFFCURVE",
"455 244 CURVE",
"444 260 OFFCURVE",
"438 275 OFFCURVE",
"438 295 CURVE SMOOTH",
"438 726 LINE SMOOTH",
"438 733 OFFCURVE",
"442 735 OFFCURVE",
"449 735 CURVE SMOOTH",
"1877 735 LINE {name = hr00;}"
);
},
{
closed = 1;
nodes = (
"1551 796 OFFCURVE",
"1549 788 OFFCURVE",
"1542 788 CURVE SMOOTH",
"449 788 LINE SMOOTH",
"442 788 OFFCURVE",
"438 796 OFFCURVE",
"438 801 CURVE SMOOTH",
"438 1217 LINE SMOOTH",
"438 1239 OFFCURVE",
"444 1256 OFFCURVE",
"458 1272 CURVE SMOOTH",
"596 1412 OFFCURVE",
"788 1494 OFFCURVE",
"997 1494 CURVE SMOOTH",
"1206 1494 OFFCURVE",
"1393 1415 OFFCURVE",
"1531 1278 CURVE",
"1544 1263 OFFCURVE",
"1551 1245 OFFCURVE",
"1551 1225 CURVE SMOOTH",
"1551 801 LINE SMOOTH"
);
}
);
width = 1956;
}
);
unicode = 212E;
},
{
glyphname = partialdiff;
lastChange = "2018-10-29 19:59:31 +0000";
layers = (
{
layerId = master01;
paths = (
{
closed = 1;
nodes = (
"878 -31 OFFCURVE",
"1131 350 OFFCURVE",
"1131 862 CURVE SMOOTH",
"1131 1360 OFFCURVE",
"891 1712 OFFCURVE",
"517 1712 CURVE SMOOTH",
"356 1712 OFFCURVE",
"169 1648 OFFCURVE",
"169 1575 CURVE SMOOTH",
"169 1538 OFFCURVE",
"216 1476 OFFCURVE",
"249 1476 CURVE",
"356 1566 OFFCURVE",
"480 1615 OFFCURVE",
"579 1615 CURVE SMOOTH",
"803 1615 OFFCURVE",
"966 1368 OFFCURVE",
"966 1036 CURVE SMOOTH",
"966 942 OFFCURVE",
"953 876 OFFCURVE",
"948 796 CURVE",
"871 904 OFFCURVE",
"744 968 OFFCURVE",
"596 968 CURVE SMOOTH",
"308 968 OFFCURVE",
"84 730 OFFCURVE",
"84 425 CURVE SMOOTH",
"84 150 OFFCURVE",
"264 -31 OFFCURVE",
"515 -31 CURVE SMOOTH {name = hr00;}"
);
},
{
closed = 1;
nodes = (
"370 40 OFFCURVE",
"282 163 OFFCURVE",
"282 378 CURVE SMOOTH",
"282 667 OFFCURVE",
"438 878 OFFCURVE",
"640 878 CURVE SMOOTH",
"761 878 OFFCURVE",
"880 803 OFFCURVE",
"931 702 CURVE",
"865 271 OFFCURVE",
"728 40 OFFCURVE",
"521 40 CURVE SMOOTH"
);
}
);
width = 1214;
}
);
unicode = 2202;
},
{
glyphname = Delta;
lastChange = "2018-10-29 19:59:31 +0000";
layers = (
{
layerId = master01;
paths = (
{
closed = 1;
nodes = (
"1428 53 LINE",
"785 1553 LINE",
"693 1527 LINE",
"68 53 LINE",
"68 0 LINE",
"1428 0 LINE {name = hr00;}"
);
},
{
closed = 1;
nodes = (
"194 103 LINE",
"684 1298 LINE",
"1184 103 LINE"
);
}
);
width = 1496;
}
);
unicode = 2206;
},
{
glyphname = product;
lastChange = "2018-10-29 19:59:31 +0000";
layers = (
{
layerId = master01;
paths = (
{
closed = 1;
nodes = (
"86 1540 LINE",
"86 1483 LINE",
"293 1467 OFFCURVE",
"304 1456 OFFCURVE",
"304 1335 CURVE SMOOTH",
"304 42 LINE SMOOTH",
"304 -103 OFFCURVE",
"286 -117 OFFCURVE",
"95 -132 CURVE",
"95 -189 LINE",
"684 -189 LINE",
"684 -132 LINE",
"499 -117 OFFCURVE",
"499 -99 OFFCURVE",
"499 42 CURVE SMOOTH",
"499 1401 LINE SMOOTH",
"499 1456 OFFCURVE",
"510 1465 OFFCURVE",
"576 1465 CURVE SMOOTH",
"1107 1465 LINE SMOOTH",
"1173 1465 OFFCURVE",
"1188 1459 OFFCURVE",
"1188 1393 CURVE SMOOTH",
"1188 42 LINE SMOOTH",
"1188 -110 OFFCURVE",
"1175 -119 OFFCURVE",
"983 -132 CURVE",
"983 -189 LINE",
"1593 -189 LINE",
"1593 -132 LINE",
"1395 -119 OFFCURVE",
"1382 -101 OFFCURVE",
"1382 42 CURVE SMOOTH",
"1382 1335 LINE SMOOTH",
"1382 1454 OFFCURVE",
"1390 1467 OFFCURVE",
"1597 1483 CURVE",
"1597 1540 LINE {name = hr00;}"
);
}
);
width = 1685;
}
);
unicode = 220F;
},
{
glyphname = summation;
lastChange = "2018-10-29 19:59:31 +0000";
layers = (
{
layerId = master01;
paths = (
{
closed = 1;
nodes = (
"1228 249 LINE",
"1126 -24 OFFCURVE",
"1102 -33 OFFCURVE",
"895 -33 CURVE SMOOTH",
"255 -33 LINE",
"788 750 LINE",
"341 1467 LINE",
"827 1467 LINE SMOOTH",
"1008 1467 OFFCURVE",
"1043 1450 OFFCURVE",
"1074 1399 CURVE SMOOTH",
"1102 1353 OFFCURVE",
"1133 1272 OFFCURVE",
"1155 1155 CURVE",
"1214 1168 LINE",
"1184 1540 LINE",
"92 1540 LINE",
"92 1485 LINE",
"616 634 LINE",
"79 -143 LINE",
"79 -198 LINE",
"1186 -198 LINE",
"1289 233 LINE {name = hr00;}"
);
}
);
width = 1386;
}
);
unicode = 2211;
},
{
glyphname = minus;
lastChange = "2018-10-29 19:59:31 +0000";
layers = (
{
layerId = master01;
paths = (
{
closed = 1;
nodes = (
"821 781 LINE",
"821 733 LINE",
"161 733 LINE",
"161 781 LINE"
);
}
);
width = 981;
}
);
unicode = 2212;
},
{
glyphname = uni2215;
lastChange = "2018-10-29 19:59:31 +0000";
layers = (
{
layerId = master01;
paths = (
{
closed = 1;
nodes = (
"55 -4 LINE",
"0 -4 LINE",
"785 1518 LINE",
"840 1518 LINE"
);
}
);
width = 840;
}
);
unicode = 2215;
},
{
glyphname = uni2219;
lastChange = "2018-10-29 19:59:31 +0000";
layers = (
{
layerId = master01;
paths = (
{
closed = 1;
nodes = (
"143 460 OFFCURVE",
"189 409 OFFCURVE",
"257 409 CURVE SMOOTH",
"326 409 OFFCURVE",
"370 460 OFFCURVE",
"370 524 CURVE SMOOTH",
"370 587 OFFCURVE",
"326 636 OFFCURVE",
"257 636 CURVE SMOOTH",
"189 636 OFFCURVE",
"143 587 OFFCURVE",
"143 524 CURVE SMOOTH"
);
}
);
width = 513;
}
);
unicode = 2219;
},
{
glyphname = radical;
lastChange = "2018-10-29 19:59:31 +0000";
layers = (
{
layerId = master01;
paths = (
{
closed = 1;
nodes = (
"1113 1998 LINE",
"788 26 LINE",
"779 26 LINE",
"367 1034 LINE",
"7 858 LINE",
"33 785 LINE",
"240 889 LINE",
"763 -343 LINE",
"810 -317 LINE",
"1199 1976 LINE {name = hr00;}"
);
}
);
width = 1272;
}
);
unicode = 221A;
},
{
glyphname = infinity;
lastChange = "2018-10-29 19:59:31 +0000";
layers = (
{
layerId = master01;
paths = (
{
closed = 1;
nodes = (
"1663 847 OFFCURVE",
"1527 990 OFFCURVE",
"1329 990 CURVE SMOOTH",
"1135 990 OFFCURVE",
"1016 849 OFFCURVE",
"906 724 CURVE",
"788 867 OFFCURVE",
"658 990 OFFCURVE",
"488 990 CURVE SMOOTH",
"282 990 OFFCURVE",
"125 836 OFFCURVE",
"125 625 CURVE SMOOTH",
"125 418 OFFCURVE",
"286 264 OFFCURVE",
"471 264 CURVE SMOOTH",
"656 264 OFFCURVE",
"779 394 OFFCURVE",
"898 532 CURVE",
"1056 348 OFFCURVE",
"1175 264 OFFCURVE",
"1313 264 CURVE SMOOTH",
"1494 264 OFFCURVE",
"1663 407 OFFCURVE",
"1663 634 CURVE SMOOTH {name = hr00;}"
);
},
{
closed = 1;
nodes = (
"348 383 OFFCURVE",
"251 491 OFFCURVE",
"251 620 CURVE SMOOTH",
"251 759 OFFCURVE",
"337 876 OFFCURVE",
"475 876 CURVE SMOOTH",
"634 876 OFFCURVE",
"737 741 OFFCURVE",
"832 620 CURVE",
"746 521 OFFCURVE",
"629 383 OFFCURVE",
"486 383 CURVE SMOOTH"
);
},
{
closed = 1;
nodes = (
"1445 876 OFFCURVE",
"1540 779 OFFCURVE",
"1540 625 CURVE SMOOTH",
"1540 510 OFFCURVE",
"1461 383 OFFCURVE",
"1320 383 CURVE SMOOTH",
"1201 383 OFFCURVE",
"1118 462 OFFCURVE",
"970 631 CURVE",
"1047 713 OFFCURVE",
"1164 876 OFFCURVE",
"1316 876 CURVE SMOOTH"
);
}
);
width = 1791;
}
);
unicode = 221E;
},
{
glyphname = integral;
lastChange = "2018-10-29 19:59:31 +0000";
layers = (
{
layerId = master01;
paths = (
{
closed = 1;
nodes = (
"345 15 OFFCURVE",
"348 -11 OFFCURVE",
"348 -35 CURVE SMOOTH",
"348 -227 OFFCURVE",
"310 -350 OFFCURVE",
"246 -350 CURVE SMOOTH",
"196 -350 OFFCURVE",
"196 -240 OFFCURVE",
"134 -240 CURVE SMOOTH",
"70 -240 OFFCURVE",
"22 -286 OFFCURVE",
"22 -341 CURVE SMOOTH",
"22 -398 OFFCURVE",
"77 -447 OFFCURVE",
"158 -447 CURVE SMOOTH",
"341 -447 OFFCURVE",
"510 -299 OFFCURVE",
"510 337 CURVE SMOOTH",
"510 400 OFFCURVE",
"510 469 OFFCURVE",
"506 543 CURVE SMOOTH",
"464 1410 LINE SMOOTH",
"462 1439 OFFCURVE",
"462 1465 OFFCURVE",
"462 1489 CURVE SMOOTH",
"462 1736 OFFCURVE",
"519 1795 OFFCURVE",
"565 1795 CURVE SMOOTH",
"618 1795 OFFCURVE",
"614 1692 OFFCURVE",
"686 1692 CURVE SMOOTH",
"735 1692 OFFCURVE",
"781 1723 OFFCURVE",
"781 1786 CURVE SMOOTH",
"781 1855 OFFCURVE",
"702 1888 OFFCURVE",
"645 1888 CURVE SMOOTH",
"462 1888 OFFCURVE",
"295 1738 OFFCURVE",
"295 1133 CURVE SMOOTH",
"295 1078 OFFCURVE",
"295 1019 OFFCURVE",
"299 955 CURVE SMOOTH",
"345 42 LINE {name = hr00;}"
);
}
);
width = 803;
}
);
unicode = 222B;
},
{
glyphname = approxequal;
lastChange = "2018-10-29 19:59:31 +0000";
layers = (
{
layerId = master01;
paths = (
{
closed = 1;
nodes = (
"268 579 OFFCURVE",
"224 546 OFFCURVE",
"224 495 CURVE",
"169 495 LINE",
"169 579 OFFCURVE",
"240 634 OFFCURVE",
"350 634 CURVE SMOOTH",
"477 634 OFFCURVE",
"625 550 OFFCURVE",
"735 550 CURVE SMOOTH",
"805 550 OFFCURVE",
"849 585 OFFCURVE",
"849 634 CURVE",
"904 634 LINE",
"904 550 OFFCURVE",
"832 495 OFFCURVE",
"726 495 CURVE SMOOTH",
"605 495 OFFCURVE",
"458 579 OFFCURVE",
"341 579 CURVE SMOOTH"
);
},
{
closed = 1;
nodes = (
"268 922 OFFCURVE",
"224 889 OFFCURVE",
"224 838 CURVE",
"169 838 LINE",
"169 922 OFFCURVE",
"240 977 OFFCURVE",
"350 977 CURVE SMOOTH",
"477 977 OFFCURVE",
"625 893 OFFCURVE",
"735 893 CURVE SMOOTH",
"805 893 OFFCURVE",
"849 928 OFFCURVE",
"849 977 CURVE",
"904 977 LINE",
"904 893 OFFCURVE",
"832 838 OFFCURVE",
"726 838 CURVE SMOOTH",
"605 838 OFFCURVE",
"458 922 OFFCURVE",
"341 922 CURVE SMOOTH"
);
}
);
width = 1063;
}
);
unicode = 2248;
},
{
glyphname = notequal;
lastChange = "2018-10-29 19:59:31 +0000";
layers = (
{
layerId = master01;
paths = (
{
closed = 1;
nodes = (
"257 262 LINE",
"207 262 LINE",
"686 1188 LINE",
"737 1188 LINE"
);
},
{
closed = 1;
nodes = (
"854 550 LINE",
"838 502 LINE",
"112 502 LINE",
"128 550 LINE"
);
},
{
closed = 1;
nodes = (
"854 957 LINE",
"838 909 LINE",
"112 909 LINE",
"128 957 LINE"
);
}
);
width = 972;
}
);
unicode = 2260;
},
{
glyphname = lozenge;
lastChange = "2018-10-29 19:59:31 +0000";
layers = (
{
layerId = master01;
paths = (
{
closed = 1;
nodes = (
"697 1646 LINE",
"557 1646 LINE",
"75 737 LINE",
"554 -165 LINE",
"697 -165 LINE",
"1177 737 LINE {name = hr00;}"
);
},
{
closed = 1;
nodes = (
"634 -33 LINE",
"623 -33 LINE",
"220 739 LINE",
"623 1509 LINE",
"634 1509 LINE",
"1034 737 LINE"
);
}
);
width = 1252;
}
);
unicode = 25CA;
},
